<svg width="50" height="50" viewBox="0 0 50 50" fill="none" xmlns="http://www.w3.org/2000/svg">
<path d="M20.4483 24.9999C20.4483 22.4867 22.4863 20.4489 25.001 20.4489C27.5157 20.4489 29.5547 22.4867 29.5547 24.9999C29.5547 27.513 27.5157 29.5509 25.001 29.5509C22.4863 29.5509 20.4483 27.513 20.4483 24.9999ZM17.9867 24.9999C17.9867 28.8716 21.127 32.01 25.001 32.01C28.875 32.01 32.0153 28.8716 32.0153 24.9999C32.0153 21.1282 28.875 17.9898 25.001 17.9898C21.127 17.9898 17.9867 21.1282 17.9867 24.9999ZM30.6538 17.7118C30.6537 18.0358 30.7497 18.3526 30.9297 18.6221C31.1097 18.8915 31.3656 19.1016 31.6651 19.2257C31.9646 19.3499 32.2942 19.3824 32.6122 19.3193C32.9302 19.2563 33.2223 19.1003 33.4517 18.8713C33.681 18.6423 33.8372 18.3505 33.9006 18.0327C33.964 17.7149 33.9317 17.3855 33.8077 17.0861C33.6838 16.7867 33.4738 16.5308 33.2043 16.3507C32.9348 16.1706 32.6179 16.0743 32.2937 16.0742H32.293C31.8584 16.0744 31.4417 16.247 31.1344 16.554C30.827 16.8611 30.6542 17.2775 30.6538 17.7118ZM19.4823 36.1123C18.1505 36.0517 17.4266 35.8299 16.9455 35.6426C16.3078 35.3945 15.8527 35.099 15.3743 34.6215C14.8959 34.144 14.5997 33.6896 14.3525 33.0523C14.165 32.5717 13.9431 31.848 13.8826 30.517C13.8164 29.078 13.8031 28.6457 13.8031 25C13.8031 21.3543 13.8175 20.9232 13.8826 19.483C13.9432 18.1519 14.1667 17.4297 14.3525 16.9477C14.6008 16.3103 14.8965 15.8556 15.3743 15.3774C15.8521 14.8993 16.3067 14.6033 16.9455 14.3563C17.4264 14.1688 18.1505 13.9471 19.4823 13.8866C20.9222 13.8204 21.3547 13.8072 25.001 13.8072C28.6473 13.8072 29.0802 13.8215 30.5213 13.8866C31.8532 13.9472 32.5758 14.1706 33.0581 14.3563C33.6959 14.6033 34.1509 14.8999 34.6293 15.3774C35.1078 15.8549 35.4028 16.3103 35.6511 16.9477C35.8386 17.4283 36.0605 18.1519 36.121 19.483C36.1873 20.9232 36.2005 21.3543 36.2005 25C36.2005 28.6457 36.1873 29.0768 36.121 30.517C36.0604 31.848 35.8374 32.5715 35.6511 33.0523C35.4028 33.6896 35.1071 34.1444 34.6293 34.6215C34.1516 35.0985 33.6959 35.3945 33.0581 35.6426C32.5773 35.8301 31.8532 36.0518 30.5213 36.1123C29.0814 36.1785 28.6489 36.1917 25.001 36.1917C21.3531 36.1917 20.9217 36.1785 19.4823 36.1123ZM19.3692 11.4306C17.915 11.4968 16.9213 11.7272 16.0535 12.0647C15.1547 12.4132 14.3939 12.8807 13.6337 13.6394C12.8734 14.398 12.4068 15.1595 12.058 16.0577C11.7204 16.9256 11.4898 17.9181 11.4235 19.3714C11.3562 20.8271 11.3408 21.2924 11.3408 24.9999C11.3408 28.7073 11.3562 29.1727 11.4235 30.6283C11.4898 32.0818 11.7204 33.0742 12.058 33.942C12.4068 34.8397 12.8735 35.6021 13.6337 36.3604C14.3938 37.1187 15.1547 37.5856 16.0535 37.9351C16.9229 38.2726 17.915 38.503 19.3692 38.5692C20.8264 38.6354 21.2913 38.6519 25.001 38.6519C28.7107 38.6519 29.1763 38.6365 30.6328 38.5692C32.0871 38.503 33.0802 38.2726 33.9485 37.9351C34.8467 37.5856 35.6081 37.119 36.3683 36.3604C37.1286 35.6018 37.5942 34.8397 37.944 33.942C38.2816 33.0742 38.5133 32.0817 38.5784 30.6283C38.6447 29.1716 38.6601 28.7073 38.6601 24.9999C38.6601 21.2924 38.6447 20.8271 38.5784 19.3714C38.5122 17.918 38.2816 16.925 37.944 16.0577C37.5942 15.1601 37.1274 14.3992 36.3683 13.6394C35.6093 12.8795 34.8467 12.4132 33.9496 12.0647C33.0802 11.7272 32.087 11.4957 30.6339 11.4306C29.1774 11.3644 28.7118 11.3479 25.0021 11.3479C21.2924 11.3479 20.8264 11.3633 19.3692 11.4306Z" fill="url(#paint0_radial_392_1727)"/>
<path d="M20.4483 24.9999C20.4483 22.4867 22.4863 20.4489 25.001 20.4489C27.5157 20.4489 29.5547 22.4867 29.5547 24.9999C29.5547 27.513 27.5157 29.5509 25.001 29.5509C22.4863 29.5509 20.4483 27.513 20.4483 24.9999ZM17.9867 24.9999C17.9867 28.8716 21.127 32.01 25.001 32.01C28.875 32.01 32.0153 28.8716 32.0153 24.9999C32.0153 21.1282 28.875 17.9898 25.001 17.9898C21.127 17.9898 17.9867 21.1282 17.9867 24.9999ZM30.6538 17.7118C30.6537 18.0358 30.7497 18.3526 30.9297 18.6221C31.1097 18.8915 31.3656 19.1016 31.6651 19.2257C31.9646 19.3499 32.2942 19.3824 32.6122 19.3193C32.9302 19.2563 33.2223 19.1003 33.4516 18.8713C33.681 18.6423 33.8372 18.3505 33.9006 18.0327C33.964 17.7149 33.9316 17.3855 33.8077 17.0861C33.6838 16.7867 33.4738 16.5308 33.2043 16.3507C32.9348 16.1706 32.6179 16.0743 32.2937 16.0742H32.293C31.8584 16.0744 31.4417 16.247 31.1344 16.554C30.827 16.8611 30.6542 17.2775 30.6538 17.7118ZM19.4823 36.1123C18.1505 36.0517 17.4266 35.8299 16.9455 35.6426C16.3078 35.3945 15.8527 35.099 15.3743 34.6215C14.8959 34.144 14.5997 33.6896 14.3525 33.0523C14.165 32.5717 13.9431 31.848 13.8826 30.517C13.8164 29.078 13.8031 28.6457 13.8031 25C13.8031 21.3543 13.8175 20.9232 13.8826 19.483C13.9432 18.1519 14.1667 17.4297 14.3525 16.9477C14.6008 16.3103 14.8965 15.8556 15.3743 15.3774C15.8521 14.8993 16.3067 14.6033 16.9455 14.3563C17.4264 14.1688 18.1505 13.9471 19.4823 13.8866C20.9222 13.8204 21.3547 13.8072 25.001 13.8072C28.6473 13.8072 29.0802 13.8215 30.5213 13.8866C31.8531 13.9472 32.5758 14.1706 33.0581 14.3563C33.6959 14.6033 34.1509 14.8999 34.6293 15.3774C35.1078 15.8549 35.4028 16.3103 35.6511 16.9477C35.8386 17.4283 36.0605 18.1519 36.121 19.483C36.1873 20.9232 36.2005 21.3543 36.2005 25C36.2005 28.6457 36.1873 29.0768 36.121 30.517C36.0604 31.848 35.8374 32.5715 35.6511 33.0523C35.4028 33.6896 35.1071 34.1444 34.6293 34.6215C34.1516 35.0985 33.6959 35.3945 33.0581 35.6426C32.5772 35.8301 31.8531 36.0518 30.5213 36.1123C29.0814 36.1785 28.6489 36.1917 25.001 36.1917C21.3531 36.1917 20.9217 36.1785 19.4823 36.1123ZM19.3692 11.4306C17.915 11.4968 16.9213 11.7272 16.0535 12.0647C15.1547 12.4132 14.3939 12.8807 13.6337 13.6394C12.8734 14.398 12.4068 15.1595 12.058 16.0577C11.7204 16.9256 11.4898 17.9181 11.4235 19.3714C11.3562 20.8271 11.3408 21.2924 11.3408 24.9999C11.3408 28.7073 11.3562 29.1727 11.4235 30.6283C11.4898 32.0818 11.7204 33.0742 12.058 33.942C12.4068 34.8397 12.8735 35.6021 13.6337 36.3604C14.3938 37.1187 15.1547 37.5856 16.0535 37.9351C16.9229 38.2726 17.915 38.503 19.3692 38.5692C20.8264 38.6354 21.2913 38.6519 25.001 38.6519C28.7107 38.6519 29.1763 38.6365 30.6328 38.5692C32.0871 38.503 33.0802 38.2726 33.9485 37.9351C34.8467 37.5856 35.6081 37.119 36.3683 36.3604C37.1286 35.6018 37.5942 34.8397 37.944 33.942C38.2816 33.0742 38.5133 32.0817 38.5784 30.6283C38.6447 29.1716 38.6601 28.7073 38.6601 24.9999C38.6601 21.2924 38.6447 20.8271 38.5784 19.3714C38.5122 17.918 38.2816 16.925 37.944 16.0577C37.5942 15.1601 37.1274 14.3992 36.3683 13.6394C35.6093 12.8795 34.8467 12.4132 33.9496 12.0647C33.0802 11.7272 32.087 11.4957 30.6339 11.4306C29.1774 11.3644 28.7117 11.3479 25.0021 11.3479C21.2924 11.3479 20.8264 11.3633 19.3692 11.4306Z" fill="#FDFEFF"/>
<defs>
<radialGradient id="paint0_radial_392_1727" cx="0" cy="0" r="1" gradientUnits="userSpaceOnUse" gradientTransform="translate(14.9705 38.7808) scale(35.6644 35.643)">
<stop offset="0.09" stop-color="#FA8F21"/>
<stop offset="0.78" stop-color="#D82D7E"/>
</radialGradient>
</defs>
</svg>
