<svg width="50" height="50" viewBox="0 0 50 50" fill="none" xmlns="http://www.w3.org/2000/svg">
<path d="M12.4678 13.4247C12.4678 12.9259 12.8948 12.4677 13.4869 12.4677H36.769C37.3614 12.4677 37.7881 12.9257 37.7881 13.4247V36.8313C37.7881 37.3302 37.3617 37.788 36.769 37.788H13.4869C12.8944 37.788 12.4678 37.33 12.4678 36.8316V13.4247Z" stroke="#FDFEFF" stroke-width="2"/>
<path d="M19.7701 34.3313V22.0316H15.6819V34.3313H19.7701ZM17.7269 20.3525C19.1522 20.3525 20.0396 19.4081 20.0396 18.2277C20.0129 17.0205 19.1522 16.1024 17.754 16.1024C16.3548 16.1024 15.4409 17.0205 15.4409 18.2276C15.4409 19.408 16.328 20.3524 17.7001 20.3524L17.7269 20.3525ZM22.033 34.3313H26.1209V27.4633C26.1209 27.0962 26.1476 26.7281 26.2556 26.4659C26.551 25.7311 27.2237 24.9705 28.3533 24.9705C29.8322 24.9705 30.4242 26.0984 30.4242 27.752V34.3313H34.512V27.279C34.512 23.5012 32.4954 21.7432 29.8058 21.7432C27.6006 21.7432 26.6321 22.9757 26.094 23.8152H26.1213V22.032H22.0332C22.0866 23.1859 22.033 34.3313 22.033 34.3313Z" fill="#FDFEFF"/>
</svg>
