<svg width="50" height="50" viewBox="0 0 50 50" fill="none" xmlns="http://www.w3.org/2000/svg">
<path d="M12.5 36.5002L14.2937 29.8368C12.8471 27.241 12.3875 24.212 12.9993 21.3055C13.611 18.3991 15.253 15.8101 17.624 14.0138C19.9949 12.2174 22.9359 11.3341 25.907 11.5261C28.8782 11.718 31.6804 12.9722 33.7993 15.0585C35.9182 17.1449 37.2117 19.9234 37.4426 22.8843C37.6734 25.8452 36.826 28.7898 35.0559 31.1778C33.2858 33.5658 30.7117 35.237 27.806 35.8847C24.9003 36.5324 21.8578 36.1132 19.2369 34.7041L12.5 36.5002ZM19.5618 32.2106L19.9784 32.4571C21.8768 33.5794 24.094 34.0439 26.2846 33.778C28.4753 33.5122 30.5162 32.531 32.0894 30.9874C33.6626 29.4438 34.6797 27.4245 34.9821 25.2441C35.2846 23.0637 34.8555 20.8448 33.7616 18.9331C32.6678 17.0214 30.9707 15.5243 28.9347 14.6751C26.8988 13.8259 24.6384 13.6723 22.5059 14.2383C20.3733 14.8043 18.4883 16.058 17.1447 17.8041C15.8011 19.5502 15.0743 21.6907 15.0776 23.8918C15.0758 25.7169 15.5818 27.5067 16.5393 29.062L16.8006 29.4916L15.7979 33.2108L19.5618 32.2106Z" fill="#FDFEFF"/>
<path fill-rule="evenodd" clip-rule="evenodd" d="M29.674 25.6027C29.4297 25.4062 29.1438 25.2679 28.8378 25.1983C28.5319 25.1287 28.214 25.1297 27.9085 25.2012C27.4495 25.3914 27.1529 26.1099 26.8563 26.4691C26.7938 26.5552 26.7019 26.6156 26.5979 26.639C26.4939 26.6623 26.3849 26.647 26.2914 26.5959C24.6109 25.9394 23.2023 24.7354 22.2944 23.1796C22.217 23.0825 22.1803 22.9593 22.1922 22.8358C22.2041 22.7123 22.2635 22.5982 22.358 22.5175C22.6888 22.1909 22.9317 21.7863 23.0642 21.3412C23.0936 20.8503 22.9808 20.3612 22.7393 19.9324C22.5526 19.3313 22.1973 18.796 21.7154 18.3898C21.4668 18.2783 21.1912 18.2409 20.9218 18.2822C20.6524 18.3234 20.4007 18.4415 20.1971 18.6223C19.8436 18.9265 19.5631 19.3059 19.3761 19.7325C19.1891 20.1592 19.1004 20.6223 19.1166 21.0876C19.1177 21.349 19.1509 21.6092 19.2155 21.8624C19.3795 22.471 19.6316 23.0523 19.964 23.5882C20.2039 23.9986 20.4655 24.396 20.7479 24.7786C21.6656 26.0352 22.8192 27.1021 24.1446 27.9201C24.8097 28.3358 25.5206 28.6738 26.2632 28.9274C27.0345 29.2762 27.8862 29.41 28.7277 29.3148C29.2072 29.2424 29.6615 29.0536 30.0506 28.7649C30.4397 28.4763 30.7517 28.0967 30.9592 27.6595C31.0811 27.3954 31.1181 27.1001 31.0652 26.8142C30.9381 26.2296 30.1542 25.8845 29.674 25.6027Z" fill="#FDFEFF"/>
</svg>
