<svg width="151" height="158" viewBox="0 0 151 158" fill="none" xmlns="http://www.w3.org/2000/svg">
<path d="M19.1266 79.6456C18.7611 79.6456 18.4091 79.7269 18.0706 79.8623C17.678 80.0383 8.445 84.208 5.56138 98.1116C2.37993 113.464 1.98732 115.4 1.94671 123.604C0.917809 125.093 0.308594 126.907 0.308594 128.87C0.308594 133.947 4.35649 138.063 9.33852 138.063H27.3307V147.025C27.3307 152.968 33.5853 157.639 41.5728 157.639C49.5603 157.639 55.8149 152.982 55.8149 147.025V138.063H94.6287V147.025C94.6287 152.968 100.883 157.639 108.871 157.639C116.858 157.639 123.113 152.982 123.113 147.025V138.063H141.971C146.954 138.063 151.001 133.934 151.001 128.87C151.001 126.19 149.851 123.766 148.05 122.088C147.955 115.088 147.427 112.462 144.449 98.0981C141.565 84.1945 132.332 80.0112 131.94 79.8487C131.601 79.6998 131.249 79.6321 130.884 79.6321H122.233L121.353 73.6753H125.685C127.513 73.6753 129.002 72.1861 129.002 70.3585C129.002 68.5308 127.526 67.0417 125.685 67.0417H120.365L114.922 30.3669C114.733 29.0672 113.609 28.106 112.296 28.106H104.065V2.45129C104.065 1.3547 103.171 0.461182 102.075 0.461182H67.8097C66.7131 0.461182 65.8196 1.3547 65.8196 2.45129V12.8215H51.6722C50.5756 12.8215 49.6821 13.715 49.6821 14.8116V28.1331H37.755C36.4418 28.1331 35.3317 29.0943 35.1286 30.394L29.578 67.7321H23.364C21.9019 67.7321 20.7105 68.9235 20.7105 70.3856C20.7105 71.8477 21.9019 73.039 23.364 73.039H28.7928L27.8045 79.6592H19.1537L19.1266 79.6456ZM53.6082 16.7882H85.1655V28.4445H53.6082V16.7882ZM100.03 4.44139V29.1214H89.1457V14.7981C89.1457 13.7015 88.2522 12.8079 87.1556 12.8079H69.7456V4.44139H100.03ZM109.954 33.4265L117.278 82.6917C117.467 83.9914 118.591 84.9526 119.891 84.9526H130.193C131.75 85.8461 137.22 89.5691 139.21 99.2082C141.714 111.311 142.432 114.75 142.635 119.746C142.405 119.732 142.161 119.705 141.917 119.705H9.32498C8.63454 119.705 7.95763 119.8 7.3078 119.949C7.49733 114.845 8.20132 111.474 10.7465 99.2082C12.7501 89.5826 18.1924 85.8461 19.7764 84.9526H30.0654C31.3786 84.9526 32.4887 83.9914 32.6918 82.6917L40.0024 33.4265H109.954ZM141.931 132.796H9.32498C7.26719 132.796 5.58846 131.05 5.58846 128.897C5.58846 126.745 7.26719 124.998 9.32498 124.998H141.931C143.989 124.998 145.667 126.745 145.667 128.897C145.667 131.05 143.989 132.796 141.931 132.796ZM108.844 152.372C103.577 152.372 99.9085 149.57 99.9085 147.065V138.103H117.792V147.065C117.792 149.584 114.124 152.372 108.857 152.372H108.844ZM41.5592 152.372C36.2929 152.372 32.6241 149.57 32.6241 147.065V138.103H50.5079V147.065C50.5079 149.584 46.8391 152.372 41.5728 152.372H41.5592Z" fill="#FDFEFF"/>
<path d="M42.3438 81.338H108.234C108.992 81.338 109.709 81.0131 110.21 80.458C110.711 79.9029 110.955 79.1448 110.874 78.4002L106.894 42.3617C106.745 41.0215 105.607 40.0061 104.267 40.0061H46.324C44.9702 40.0061 43.833 41.0215 43.6841 42.3617L39.7174 78.4002C39.6362 79.1448 39.8798 79.8894 40.3808 80.458C40.8817 81.0266 41.5992 81.338 42.3573 81.338H42.3438ZM74.2937 53.0569H85.4627V55.8186H66.9155V53.0569H74.2937ZM76.9337 50.4034H75.6205V46.0983H76.9337V50.4034ZM72.9805 45.2995V50.4034H65.6023C64.8712 50.4034 64.2755 50.9991 64.2755 51.7301V57.1318C64.2755 57.8629 64.8712 58.4586 65.6023 58.4586H86.7894C87.5205 58.4586 88.1162 57.8629 88.1162 57.1318V51.7301C88.1162 50.9991 87.5205 50.4034 86.7894 50.4034H79.5736V45.2995H101.884L105.269 76.031H45.2951L48.6796 45.2995H72.967H72.9805Z" fill="#FDFEFF"/>
<path d="M99.3679 101.808C99.3679 109.172 105.352 115.156 112.716 115.156C120.081 115.156 126.065 109.172 126.065 101.808C126.065 94.4428 120.081 88.459 112.716 88.459C105.352 88.459 99.3679 94.4428 99.3679 101.808ZM112.716 93.7524C117.157 93.7524 120.772 97.3671 120.772 101.808C120.772 106.248 117.157 109.863 112.716 109.863C108.276 109.863 104.661 106.248 104.661 101.808C104.661 97.3671 108.276 93.7524 112.716 93.7524Z" fill="#FDFEFF"/>
<path d="M40.2192 88.459C32.8545 88.459 26.8706 94.4428 26.8706 101.808C26.8706 109.172 32.8545 115.156 40.2192 115.156C47.5839 115.156 53.5678 109.172 53.5678 101.808C53.5678 94.4428 47.5839 88.459 40.2192 88.459ZM40.2192 109.863C35.7787 109.863 32.164 106.248 32.164 101.808C32.164 97.3671 35.7787 93.7524 40.2192 93.7524C44.6597 93.7524 48.2744 97.3671 48.2744 101.808C48.2744 106.248 44.6597 109.863 40.2192 109.863Z" fill="#FDFEFF"/>
</svg>
