<svg width="136" height="192" viewBox="0 0 136 192" fill="none" xmlns="http://www.w3.org/2000/svg">
<path d="M121.553 1.92804C120.428 1.03587 118.954 0.686756 117.557 0.997076L3.86405 26.2299H3.78647C3.49555 26.2881 3.24341 26.3851 2.97188 26.4821C2.9137 26.5015 2.87491 26.5403 2.81672 26.5597C2.60338 26.6566 2.39003 26.773 2.19608 26.8894C2.1185 26.9476 2.04092 27.0057 1.96334 27.0639C1.80818 27.1803 1.65302 27.2967 1.51726 27.4324C1.43968 27.51 1.3621 27.607 1.28452 27.6846C1.16815 27.8203 1.05178 27.9367 0.954805 28.0919C0.877226 28.1888 0.819041 28.2858 0.760856 28.4022C0.663881 28.5379 0.586301 28.6931 0.528116 28.8483C0.469931 28.9646 0.431141 29.0616 0.392351 29.178C0.334166 29.3331 0.275981 29.5077 0.237191 29.6823C0.217796 29.7986 0.179006 29.8956 0.159611 30.012C0.120821 30.2059 0.101426 30.4193 0.101426 30.6132C0.101426 30.6908 0.0820312 30.7684 0.0820312 30.8459V186.529C0.0820312 189.148 2.19608 191.281 4.8338 191.281H131.25C133.869 191.281 136.002 189.148 136.002 186.529V30.8847C136.002 28.2664 133.869 26.133 131.25 26.133H123.357V5.63248C123.357 4.19725 122.697 2.8396 121.592 1.92804H121.553ZM113.834 26.133H48.0652L113.834 11.5479V26.133ZM126.479 181.816H9.54678V35.6171H126.479V181.816Z" fill="#FDFEFF"/>
<path d="M33.0156 159.26H38.0971V149.058H40.1918C44.4005 149.058 47.7946 145.625 47.7946 141.417C47.7946 137.208 44.4005 133.756 40.153 133.756H33.0156V159.26ZM38.0971 138.876H40.153C41.5688 138.876 42.7131 140.02 42.7131 141.436C42.7131 142.852 41.5688 143.957 40.153 143.957H38.0971V138.876Z" fill="#FDFEFF"/>
<path d="M55.979 133.756L46.7664 159.26H52.1776L54.7571 152.123H62.5927L65.1916 159.26H70.6028L61.3902 133.756H55.979ZM56.619 147.002L58.6749 141.242L60.7695 147.002H56.6384H56.619Z" fill="#FDFEFF"/>
<path d="M88.7567 151.619C88.7567 147.313 85.5566 144.423 81.3866 144.21C80.1066 144.151 78.8071 143.977 77.9925 143.065C77.624 142.6 77.3913 142.018 77.3913 141.417C77.3913 140.001 78.5356 138.857 79.9514 138.857C81.503 138.857 82.9382 139.322 84.1213 140.098L87.787 136.432C85.6341 134.745 82.8995 133.736 79.9514 133.736C75.7427 133.736 72.3098 137.169 72.3098 141.397C72.3098 145.005 74.7924 147.992 78.1283 148.826C79.4084 149.136 81.4254 148.923 82.6279 149.64C83.3261 150.048 83.6365 150.823 83.6365 151.599C83.6365 153.015 82.4922 154.159 81.1151 154.159C79.098 154.159 77.2749 153.383 75.8979 152.103L72.2904 155.691C74.579 157.883 77.6822 159.221 81.1151 159.221C85.3238 159.221 88.7567 155.788 88.7567 151.58V151.619Z" fill="#FDFEFF"/>
<path d="M98.066 138.876C99.6176 138.876 101.053 139.341 102.236 140.117L105.902 136.452C103.749 134.764 101.014 133.756 98.066 133.756C93.8573 133.756 90.4244 137.189 90.4244 141.417C90.4244 145.024 92.907 148.011 96.2429 148.845C97.523 149.155 99.5401 148.942 100.743 149.659C101.441 150.067 101.751 150.843 101.751 151.618C101.751 153.034 100.607 154.179 99.2297 154.179C97.2127 154.179 95.3895 153.403 94.0125 152.123L90.405 155.711C92.6936 157.902 95.7968 159.241 99.2103 159.241C103.419 159.241 106.852 155.808 106.852 151.599C106.852 147.39 103.652 144.403 99.4819 144.19C98.2018 144.132 96.8829 143.957 96.0878 143.046C95.7192 142.58 95.4865 141.998 95.4865 141.397C95.4865 139.981 96.6308 138.837 98.0466 138.837L98.066 138.876Z" fill="#FDFEFF"/>
<path d="M68.0251 116.436C86.1982 116.436 100.997 101.657 100.997 83.4646C100.997 65.2721 86.1982 50.4932 68.0251 50.4932C49.852 50.4932 35.0536 65.2721 35.0536 83.4646C35.0536 101.657 49.852 116.436 68.0251 116.436ZM68.0251 59.9967C80.9615 59.9967 91.5124 70.5282 91.5124 83.4646C91.5124 96.4011 80.9809 106.952 68.0251 106.952C55.0692 106.952 44.5377 96.4205 44.5377 83.4646C44.5377 70.5088 55.0692 59.9967 68.0251 59.9967Z" fill="#FDFEFF"/>
</svg>
