<svg width="103" height="187" viewBox="0 0 103 187" fill="none" xmlns="http://www.w3.org/2000/svg">
<path d="M62.536 154.613C62.536 155.956 63.0735 157.24 64.044 158.196L77.6758 177.531C77.7952 177.755 77.9147 177.979 78.0789 178.218L78.6164 178.98C79.572 180.338 81.1397 181.145 82.797 181.145C84.4543 181.145 86.022 180.338 86.9776 178.98L102.013 157.658C102.207 157.39 102.371 157.106 102.446 156.927C102.506 156.792 102.565 156.658 102.61 156.524C102.67 156.36 102.715 156.21 102.744 156.076C102.804 155.867 102.849 155.658 102.894 155.434C102.953 155.165 102.998 154.866 102.998 154.628V43.9013C102.998 43.2593 102.879 42.6322 102.655 42.0648C102.864 41.4975 102.998 40.8853 102.998 40.2731V36.6748C103.013 35.7641 103.058 27.5522 97.2947 21.6545C93.7114 17.9816 88.8738 16.1152 82.9015 16.1152C76.9292 16.1152 71.8826 17.9816 68.2545 21.6396C62.6256 27.3282 62.536 35.0026 62.5509 35.8238V40.2731C62.5509 40.9152 62.6704 41.5124 62.8944 42.0798C62.6704 42.6471 62.5509 43.2593 62.5509 43.9013V154.598L62.536 154.613ZM86.6193 168.707H79.5122C79.3629 168.707 79.2286 168.737 79.0942 168.752L70.733 156.897H94.9655L86.6342 168.707H86.6193ZM68.7472 35.8089C68.7472 35.8089 68.7621 29.956 72.659 26.0292C75.0778 23.5806 78.5268 22.3413 82.9015 22.3413C87.2762 22.3413 90.4863 23.5657 92.8603 25.9994C93.1739 26.3279 93.4575 26.6713 93.7263 27.0147C94.2638 27.7164 94.7117 28.4331 95.0701 29.1647C95.0999 29.2244 95.1148 29.2692 95.1447 29.3289C95.7718 30.6428 96.16 31.9567 96.3989 33.1064C96.4735 33.4647 96.5333 33.7932 96.5781 34.1217C96.6079 34.3456 96.6378 34.5547 96.6676 34.7488C96.6975 35.0026 96.7274 35.2415 96.7423 35.4505C96.7871 35.9731 96.7871 36.3613 96.802 36.5255C96.802 36.5853 96.802 36.6151 96.802 36.6151V38.8995H83.2151C83.006 38.8547 82.797 38.8398 82.588 38.8398H68.7621V35.8238L68.7472 35.8089ZM68.7472 45.3645H96.7871V150.671H68.7472V45.3645Z" fill="#FDFEFF"/>
<path d="M9.20268 186.132L41.886 185.893C46.2309 185.863 49.7396 182.294 49.7097 177.95L48.4257 8.14249C48.3958 3.79765 44.8274 0.288931 40.4825 0.318793L7.81412 0.572615C3.46928 0.602476 -0.0394379 4.15599 -0.00957642 8.50083L1.27447 178.308C1.30433 182.653 4.87277 186.161 9.20268 186.132ZM7.84398 4.4546L40.5273 4.21571C42.7221 4.20078 44.5288 5.97754 44.5437 8.17235L44.7378 33.0917C40.1989 33.1216 35.6599 33.1664 31.106 33.1962C29.0157 33.1962 29.0456 36.4511 31.1359 36.4362C35.6749 36.4063 40.2138 36.3616 44.7527 36.3317L44.8274 45.6335C40.2884 45.6634 35.7495 45.7082 31.1956 45.738C29.1053 45.753 29.1352 49.0079 31.2255 48.978C35.7644 48.9482 40.3034 48.9034 44.8423 48.8735L44.917 58.1753C40.378 58.2052 35.8391 58.25 31.3001 58.2799C29.2098 58.2799 29.2397 61.5348 31.3151 61.5198C35.854 61.49 40.393 61.4452 44.9468 61.4153L45.0215 70.7171C37.3023 70.7769 29.598 70.8366 21.8789 70.8963C19.7886 70.9112 19.8184 74.1512 21.9087 74.1363C29.6279 74.0766 37.3322 74.0168 45.0513 73.9571L45.126 83.259C40.5871 83.2888 36.0481 83.3336 31.5092 83.3635C29.4189 83.3635 29.4487 86.6184 31.539 86.6034C36.078 86.5736 40.6169 86.5437 45.1559 86.4989L45.2305 95.8008C40.6916 95.8306 36.1526 95.8754 31.6137 95.9053C29.5234 95.9053 29.5383 99.1602 31.6286 99.1453C36.1676 99.1154 40.7065 99.0855 45.2454 99.0407L45.3201 108.343C40.7812 108.372 36.2422 108.417 31.6883 108.447C29.598 108.447 29.6279 111.702 31.7182 111.687C36.2571 111.657 40.7961 111.627 45.335 111.583L45.4097 120.884C37.6905 120.944 29.9862 121.004 22.2671 121.064C20.1768 121.064 20.2066 124.318 22.282 124.304C30.0012 124.244 37.7054 124.184 45.4246 124.124L45.4993 133.426C40.9603 133.456 36.4214 133.501 31.8824 133.531C29.7921 133.531 29.8071 136.786 31.8974 136.771C36.4363 136.741 40.9753 136.711 45.5142 136.666L45.5889 145.968C41.0499 145.998 36.511 146.043 31.972 146.073C29.8817 146.087 29.9116 149.327 32.0019 149.312C36.5408 149.283 41.0798 149.253 45.6187 149.208L45.8427 177.979C45.8576 180.174 44.0808 181.981 41.886 181.996L9.21761 182.235C7.02279 182.25 5.21618 180.473 5.20125 178.278L3.87241 8.47097C3.87241 6.27615 5.63424 4.46953 7.82905 4.4546H7.84398Z" fill="#FDFEFF"/>
<path d="M24.2499 22.5355C27.7885 22.5057 30.6403 19.6091 30.6104 16.0705C30.5805 12.532 27.684 9.6802 24.1454 9.69513C20.6068 9.72499 17.755 12.6215 17.7849 16.1601C17.8148 19.6987 20.7113 22.5505 24.2499 22.5206V22.5355ZM24.1753 13.592C25.5638 13.592 26.7135 14.7118 26.7284 16.1004C26.7284 17.489 25.6086 18.6386 24.22 18.6536C22.8315 18.6536 21.6818 17.5338 21.6669 16.1452C21.6669 14.7566 22.7867 13.607 24.1753 13.592Z" fill="#FDFEFF"/>
</svg>
