<svg width="167" height="185" viewBox="0 0 167 185" fill="none" xmlns="http://www.w3.org/2000/svg">
<path d="M0.000488281 145.931C0.000488281 159.211 3.13427 168.689 9.59291 174.918C17.9242 182.963 30.8797 184.645 46.3002 184.645C51.6314 184.645 57.2684 184.434 63.1156 184.243C69.6506 184.014 76.3959 183.766 83.3896 183.766C88.8164 183.766 94.1285 183.88 99.2496 183.976C123.708 184.453 144.823 184.874 156.785 173.141C163.492 166.568 166.74 156.784 166.74 143.217C166.74 110.829 146.619 67.8921 114.116 54.994C113.734 54.8411 113.332 54.7646 112.931 54.7646H53.8289C53.4276 54.7646 53.0072 54.8411 52.6442 54.994C21.1535 67.4717 0.000488281 112.09 0.000488281 145.931ZM54.4403 61.2042H112.282C138.785 72.1342 160.263 108.746 160.263 143.198C160.263 154.95 157.645 163.224 152.237 168.517C142.205 178.358 122.333 177.957 99.3451 177.498C94.1858 177.402 88.8355 177.288 83.3514 177.288C76.243 177.288 69.4404 177.536 62.848 177.765C41.6377 178.53 23.2936 179.18 14.0452 170.256C8.92412 165.307 6.44002 157.358 6.44002 145.912C6.44002 106.931 31.1472 70.8539 54.4212 61.1851L54.4403 61.2042Z" fill="#FDFEFF"/>
<path d="M57.7109 48.8793H108.329C109.227 48.8793 110.068 48.5163 110.679 47.8666C120.1 37.7964 125.718 17.274 125.718 3.22932C125.718 1.45224 124.266 0 122.488 0H43.5516C41.7745 0 40.3223 1.45224 40.3223 3.22932C40.3223 17.274 45.9592 37.7964 55.3606 47.8666C55.9721 48.5163 56.8319 48.8793 57.7109 48.8793ZM119.183 6.45864C118.457 18.3059 113.909 34.0512 106.896 42.4207H59.1632C52.1504 34.0512 47.6026 18.2867 46.8765 6.45864H119.183Z" fill="#FDFEFF"/>
<path d="M59.6381 145.854C64.5298 148.893 71.6955 150.116 75.7465 150.593V157.09C75.7465 158.867 77.1987 160.32 78.9758 160.32H88.8739C89.7338 160.32 90.5555 159.976 91.167 159.364C91.7784 158.753 92.1224 157.931 92.1033 157.071L92.0651 149.561C99.8231 147.689 107.562 141.077 108.517 130.893C109.721 118.147 101.218 112.969 99.5173 112.052C98.4855 111.517 96.9568 110.905 95.0077 110.122C91.5873 108.765 86.9249 106.912 83.5427 104.733C82.2433 103.911 81.7847 102.689 81.9758 101.886C82.2242 100.892 83.5809 100.663 84.3644 100.606C90.1733 100.204 99.1543 103.147 99.2498 103.185C100.11 103.472 101.065 103.376 101.868 102.937C102.67 102.478 103.224 101.714 103.435 100.835L105.823 90.2107C106.129 88.8923 105.556 87.5165 104.409 86.7903C101.314 84.8222 95.581 83.8285 91.9504 83.3699V77.5992C91.9504 75.8221 90.4982 74.3699 88.7211 74.3699H78.8229C77.0458 74.3699 75.5936 75.8221 75.5936 77.5992V84.975C64.0712 88.2426 58.4725 96.077 59.7909 107.217C61.2241 119.466 77.4471 124.701 80.6764 125.619C87.4026 127.529 87.1542 128.657 86.8102 130.205C86.4281 131.867 80.8102 132.956 75.3643 131.848C70.7401 130.893 66.6509 128.714 66.6126 128.695C65.7719 128.236 64.7591 128.179 63.8801 128.542C62.982 128.905 62.3133 129.631 62.0075 130.549L58.2814 142.109C57.8228 143.523 58.396 145.071 59.6572 145.835L59.6381 145.854ZM67.033 135.994C68.9057 136.759 71.3897 137.638 74.0649 138.173C80.8102 139.568 91.4536 138.975 93.116 131.638C95.0651 123.02 86.8676 120.689 82.4535 119.428C77.1796 117.918 66.9948 113.275 66.2114 106.472C65.1986 97.835 69.4216 92.8095 79.5108 90.6885C81.0013 90.3827 82.0714 89.0451 82.0714 87.5356V80.8667H85.5109V86.3126C85.5109 87.9942 86.8102 89.4082 88.4918 89.5228C91.5109 89.7713 96.0778 90.4401 98.9632 91.3955L97.9122 96.0961C94.3198 95.1407 88.5491 93.8796 83.9631 94.2044C79.7974 94.491 76.6637 96.8414 75.7656 100.338C74.8293 103.988 76.5872 107.962 80.1032 110.217C84.0013 112.701 89.0077 114.689 92.6574 116.16C94.2816 116.81 95.8103 117.421 96.5173 117.784C97.5874 118.357 102.919 121.644 102.116 130.3C101.371 138.288 94.5874 143.122 88.5682 143.619C86.8867 143.753 85.6064 145.167 85.6064 146.848L85.6446 153.842H82.2242V147.632C82.2242 145.912 80.8866 144.498 79.1669 144.402C76.6828 144.268 70.0522 143.504 65.2751 141.46L67.0521 135.956L67.033 135.994Z" fill="#FDFEFF"/>
</svg>
