<svg width="187" height="177" viewBox="0 0 187 177" fill="none" xmlns="http://www.w3.org/2000/svg">
<path d="M161.858 142.711C161.858 142.711 161.858 142.711 161.842 142.711C160.82 141.688 159.456 141.136 158.028 141.136H76.2301C74.8181 141.136 73.4224 141.705 72.4161 142.727C71.4099 143.733 70.8256 145.129 70.8256 146.557V152.936H64.2363C62.727 152.936 61.4935 154.169 61.4935 155.678V162.04H50.0028C48.4935 162.04 47.26 163.274 47.26 164.783V173.888C47.26 175.398 48.4935 176.631 50.0028 176.631H184.255C185.765 176.631 186.998 175.398 186.998 173.888V164.783C186.998 163.274 185.765 162.04 184.255 162.04H172.765V155.678C172.765 154.169 171.531 152.936 170.022 152.936H163.433V146.557C163.433 145.113 162.865 143.766 161.858 142.743V142.711ZM167.295 158.389V164.751C167.295 166.26 168.529 167.494 170.038 167.494H181.513V171.113H52.7457V167.494H64.2201C65.7295 167.494 66.9629 166.26 66.9629 164.751V158.389H73.5522C75.0616 158.389 76.295 157.155 76.295 155.646L76.2139 146.606H157.931V155.646C157.931 157.155 159.164 158.389 160.674 158.389H167.263H167.295Z" fill="#FDFEFF"/>
<path d="M97.7366 85.2087C94.3771 89.1201 94.1012 95.0115 97.3958 99.2312C99.5706 102.039 102.849 103.5 106.144 103.5C108.513 103.5 110.915 102.737 112.928 101.179L143.618 77.3048C145.955 75.4871 147.448 72.8741 147.805 69.9365C148.179 66.9989 147.367 64.0938 145.566 61.7567C142.693 58.0725 137.84 56.6768 133.507 58.0238L101.583 16.9788C103.953 13.1323 103.823 8.08486 100.95 4.40071C99.1324 2.06362 96.5194 0.570485 93.5818 0.21343C90.6442 -0.159854 87.7391 0.651634 85.402 2.46937L54.7115 26.3433C49.8913 30.0924 49.0149 37.0712 52.764 41.8915C54.9388 44.683 58.2009 46.1599 61.5118 46.1599C63.1835 46.1599 64.8551 45.7541 66.4132 44.9913L76.5081 57.9752L2.09465 112.312C1.05594 113.075 0.358064 114.244 0.179537 115.51C0.114618 115.915 0.130848 116.337 0.179537 116.743C0.276916 117.587 0.585281 118.415 1.12086 119.113L10.6802 131.399C10.9399 131.723 11.232 131.999 11.5566 132.243C12.2383 132.762 13.0497 133.119 13.9261 133.2C14.1047 133.216 14.267 133.233 14.4293 133.233C15.5329 133.233 16.6365 132.843 17.4805 132.129L88.5019 73.361L97.688 85.1762L97.7366 85.2087ZM133.88 63.8503L134.026 63.7692C134.903 63.2498 135.877 63.0064 136.85 63.0064C138.522 63.0064 140.161 63.7529 141.232 65.1325C143.115 67.5669 142.677 71.0888 140.242 72.9715L109.552 96.8454C107.117 98.7443 103.596 98.2899 101.697 95.8717C99.7978 93.4372 100.236 89.9153 102.67 88.0327L133.361 64.1587C133.523 64.0451 133.686 63.9477 133.848 63.8666L133.88 63.8503ZM65.3745 39.1973L64.9688 39.5219C62.5343 41.4046 59.0124 40.9664 57.1298 38.5481C55.2309 36.1137 55.6691 32.5918 58.1036 30.6929L88.794 6.81894C89.7841 6.03991 90.9851 5.63417 92.2185 5.63417C92.4457 5.63417 92.6892 5.63417 92.9164 5.68286C94.3933 5.86139 95.7242 6.62419 96.633 7.79273C98.3371 9.96752 98.1424 13.1161 96.1786 15.1124L96.0487 15.2422C95.9189 15.372 95.7891 15.5181 95.643 15.6317L65.3583 39.1811L65.3745 39.1973ZM70.9251 41.8265L91.1636 26.0837L97.7366 20.9713L128.736 60.8316L101.924 81.6868L70.9251 41.8428V41.8265ZM79.8028 73.507L14.5753 127.455L5.90864 116.321L74.3171 66.3822L79.9001 62.3085L85.1586 69.0601L79.8028 73.4908V73.507Z" fill="#FDFEFF"/>
</svg>
