<svg width="182" height="165" viewBox="0 0 182 165" fill="none" xmlns="http://www.w3.org/2000/svg">
<path d="M135.684 29.1004V20.8415C135.684 9.38097 124.969 0.0488281 111.781 0.0488281H70.2315C57.061 0.0488281 46.3463 9.38097 46.3463 20.8415V29.1004H20.5692C9.23606 29.1004 0.03125 38.3052 0.03125 49.6202V143.633C0.03125 154.948 9.23606 164.171 20.5692 164.171H161.461C172.776 164.171 181.999 154.966 181.999 143.633V49.6202C181.999 38.3052 172.794 29.0822 161.461 29.0822H135.684V29.1004ZM173.54 143.651C173.54 150.309 168.119 155.73 161.461 155.73H20.5692C13.9112 155.73 8.49021 150.309 8.49021 143.651V49.6202C8.49021 42.9621 13.9112 37.5411 20.5692 37.5411H161.461C168.119 37.5411 173.54 42.9621 173.54 49.6202V143.633V143.651ZM70.2315 8.50779H111.781C120.294 8.50779 127.225 14.038 127.225 20.8415V29.1004H114.873V25.5167C114.873 18.7495 108.688 13.2557 101.102 13.2557H80.928C73.3241 13.2557 67.1572 18.7495 67.1572 25.5167V29.1004H54.8053V20.8415C54.8053 14.038 61.7362 8.50779 70.2497 8.50779H70.2315ZM106.432 29.1004H75.598V25.5167C75.598 23.4429 78.0356 21.7147 80.928 21.7147H101.102C103.995 21.7147 106.432 23.4611 106.432 25.5167V29.1004Z" fill="#FDFEFF"/>
<path d="M124.656 83.3469H105.992V64.6826C105.992 63.2819 104.846 62.1541 103.463 62.1541H81.9432C80.5424 62.1541 79.4146 63.2819 79.4146 64.6826V83.3469H60.7503C59.3495 83.3469 58.2217 84.4748 58.2217 85.8755V107.396C58.2217 108.797 59.3495 109.924 60.7503 109.924H79.4146V128.589C79.4146 129.989 80.5424 131.117 81.9432 131.117H103.463C104.864 131.117 105.992 129.989 105.992 128.589V109.924H124.656C126.057 109.924 127.185 108.797 127.185 107.396V85.8755C127.185 84.4748 126.057 83.3469 124.656 83.3469ZM122.128 104.867H103.463C102.063 104.867 100.935 105.995 100.935 107.396V126.06H84.4899V107.396C84.4899 105.995 83.3621 104.867 81.9614 104.867H63.2971V88.4223H81.9614C83.3621 88.4223 84.4899 87.2945 84.4899 85.8937V67.2294H100.935V85.8937C100.935 87.2945 102.063 88.4223 103.463 88.4223H122.128V104.867Z" fill="#FDFEFF"/>
</svg>
