<svg width="102" height="191" viewBox="0 0 102 191" fill="none" xmlns="http://www.w3.org/2000/svg">
<path d="M11.6885 98.3942L6.3172 119.86L0.888378 141.556C0.543082 142.957 0.96511 144.434 2.02018 145.431L12.3599 155.138L48.6543 189.207C49.4217 189.936 50.4 190.281 51.3783 190.281C52.3567 190.281 53.2775 189.936 54.0448 189.265L100.679 147.388C101.753 146.429 102.214 144.971 101.907 143.57L100.717 138.103L94.4636 109.233L89.6679 87.0953L83.3374 57.9178L80.5175 44.9308C83.4909 42.6288 85.4092 39.0416 85.4092 35.0131V13.1444C85.4092 6.21929 79.7694 0.598633 72.8443 0.598633H32.8666C25.9415 0.598633 20.3209 6.23847 20.3209 13.1444V35.0323C20.3209 39.0032 22.1816 42.5329 25.0591 44.8349L19.9564 65.2266L11.6693 98.375L11.6885 98.3942ZM51.4743 180.901L23.7547 154.888L35.8208 152.932L92.9482 143.666L51.4743 180.92V180.901ZM92.0657 135.705L16.4075 147.983L9.21385 141.23L13.415 124.426L87.481 114.546L92.0657 135.705ZM85.7737 106.72L72.2496 108.523L15.4867 116.1L18.7862 102.883L82.6852 92.5241L85.7737 106.739V106.72ZM28.3011 13.1444C28.3011 10.6122 30.3536 8.57881 32.8666 8.57881H72.8443C75.3764 8.57881 77.429 10.6314 77.429 13.1444V35.0323C77.429 37.3343 75.7217 39.2143 73.5157 39.5404H32.2144C30.0084 39.2143 28.3011 37.3343 28.3011 35.0323V13.1444ZM74.6283 55.4048L64.5572 56.7476L29.1259 61.4667L32.6173 47.5205H72.921L74.6283 55.3856V55.4048ZM27.035 69.8113L76.3164 63.2315L80.9779 84.6974L20.8772 94.4425L27.035 69.7921V69.8113Z" fill="#FDFEFF"/>
</svg>
