<svg width="100" height="112" viewBox="0 0 100 112" fill="none" xmlns="http://www.w3.org/2000/svg">
<g clip-path="url(#clip0_388_1264)">
<path d="M8.14774 48.5938H8.92072C6.49873 65.4712 12.8772 85.0704 25.4337 96.6205C25.4853 96.667 26.619 97.2021 26.6762 97.2486C26.7335 97.2951 26.9682 97.8302 27.6038 98.3536C40.3493 108.729 55.8202 111.933 70.856 104.338C78.414 100.523 83.0347 94.9979 83.7218 94.5734C83.8706 94.4803 84.0138 94.7362 84.0309 94.7304C84.2829 94.6024 84.781 93.9685 85.1188 94.1023C85.2906 94.1721 84.6779 95.1956 85.972 94.2593C74.2628 107.764 58.8491 113.056 41.3227 110.637C21.5345 107.903 5.85172 89.7579 1.63758 70.56C1.29403 68.9956 1.09363 67.3439 0.864602 65.7562C-0.0457901 59.5216 -0.286271 54.7236 0.400817 48.4368C2.98503 48.491 5.56925 48.5434 8.15347 48.5938H8.14774Z" fill="#111828"/>
<path d="M9.39015 40.5623C8.79468 43.255 8.50839 45.8721 8.14767 48.5939C5.56345 48.5396 2.97924 48.4873 0.39502 48.4369C2.08411 32.9902 8.94927 19.0148 21.3226 9.69797C21.4657 10.3959 22.3532 8.68602 23.2579 9.38391C23.7217 8.40105 23.6186 9.03497 23.8763 8.91284C25.0901 8.34289 26.2124 7.42981 27.4434 6.86568C28.7031 6.28992 31.7205 5.09768 33.026 4.6615C34.3544 4.2195 37.681 3.30061 38.9178 3.39947C39.3071 4.38234 36.4672 4.87668 34.5777 5.91771C22.5135 12.5651 12.3675 27.0464 9.38443 40.5623H9.39015Z" fill="#111828"/>
<path d="M8.92068 48.5939H8.14771C8.5027 45.8721 8.79471 43.255 9.39019 40.5623C11.4572 39.8295 9.37301 46.9073 8.92641 48.5939H8.92068Z" fill="#111828"/>
<path d="M85.972 94.2535C84.678 95.1899 85.2906 94.1663 85.1189 94.0965C84.781 93.9628 84.2829 94.5967 84.031 94.7246C84.0138 94.7304 83.8706 94.4745 83.7218 94.5676C83.029 94.9921 78.414 100.511 70.856 104.332C55.8203 111.928 40.3493 108.723 27.6038 98.3479C26.9625 97.8303 26.7278 97.2952 26.6763 97.2429C26.6247 97.1963 25.4853 96.6613 25.4338 96.6148C12.883 85.0646 6.49876 65.4712 8.92074 48.588C9.36735 46.9015 11.4515 39.8237 9.38453 40.5564C12.3676 27.0406 22.5136 12.5651 34.5778 5.91184C36.4673 4.87081 39.3072 4.37647 38.9179 3.39361C37.6811 3.29474 34.3545 4.20782 33.0261 4.65563C31.7206 5.09181 28.7032 6.28405 27.4435 6.85981C26.2182 7.42394 25.0902 8.33702 23.8764 8.90697C23.6187 9.0291 23.7218 8.39518 23.258 9.37804C22.3476 8.68015 21.4601 10.39 21.3227 9.6921C39.4733 -3.97499 65.1704 -2.73041 82.1701 12.3674C102.227 30.1811 105.365 64.3953 91.5489 86.9257C90.6213 88.4378 87.1744 93.3754 85.9663 94.2477L85.972 94.2535Z" fill="#111828"/>
<path d="M95.2705 45.4417C96.2668 56.5498 95.637 68.1697 91.7034 78.6672C90.8102 80.0572 89.728 82.872 88.6001 84.7272C81.065 97.1672 67.266 105.577 52.7913 105.274V98.0338C61.1394 97.9465 70.5983 93.6835 76.5875 87.798C91.1079 73.5319 93.1921 48.7101 83.487 31.1872C74.9041 15.6998 58.5514 7.56347 41.6318 14.5773V6.85976C67.5408 -2.7828 92.9516 19.5091 95.2705 45.4358V45.4417Z" fill="#F8FCFE"/>
<path d="M41.6319 14.5774C29.6709 19.5325 21.088 32.9611 18.6889 45.5174C14.0167 69.9553 29.4762 98.2724 52.7971 98.0339V105.275C36.6792 104.943 22.2617 92.7939 16.055 78.1149C4.62648 51.0715 14.8927 16.8107 41.6319 6.86572V14.5833V14.5774Z" fill="#2E3C53"/>
<path d="M91.7034 78.6672C95.637 68.1697 96.2611 56.5498 95.2705 45.4416C95.929 43.7667 94.1712 39.3176 95.2705 40.1667C95.8259 40.5971 97.0169 48.0064 97.1314 49.1405C97.7956 55.7472 97.3948 62.6447 96.0435 69.1409C95.8374 70.1296 93.799 77.7192 93.5642 78.1147C92.4191 80.0455 93.3581 76.085 91.7034 78.6672Z" fill="#111828"/>
<path d="M52.797 98.0338C29.4818 98.2722 14.0166 69.9552 18.6888 45.5173C21.0936 32.9552 29.6707 19.5323 41.6318 14.5773C58.5513 7.56928 74.9041 15.6997 83.4869 31.1872C93.1978 48.7043 91.1079 73.5319 76.5874 87.798C70.5983 93.6836 61.1394 97.9465 52.7913 98.0338H52.797Z" fill="#111828"/>
<path d="M51.9439 15.5252C74.1598 14.0131 88.3768 38.7825 85.6628 61.2663C83.7561 77.0736 71.4057 93.2647 54.8927 94.0964C30.6213 95.3235 16.9883 66.8145 22.7255 43.313C26.0292 29.7738 37.6353 16.4964 51.9496 15.5194L51.9439 15.5252Z" fill="#F8FCFE"/>
<path d="M49.6193 28.2794C49.9915 28.1979 56.8452 28.2038 57.2174 28.2794C59.4389 28.7446 58.2308 32.5133 58.5343 34.1824C62.6912 35.7585 66.6076 38.6256 68.457 42.8421C68.4799 43.7203 64.5578 48.9486 63.7275 49.379C61.4945 50.5305 59.3244 44.4007 52.8773 44.9707C50.9191 45.1451 48.1306 46.7328 49.3903 49.1406C51.2397 52.6824 61.3685 48.7102 67.3748 57.0151C73.9766 66.1401 67.9989 75.9455 58.54 79.2198C58.9752 86.3558 58.0705 84.1516 50.2434 84.4947C48.0505 83.5816 48.9437 81.5403 48.7719 79.5338C45.9262 78.4347 36.662 73.8286 37.2975 70.246C37.3662 69.8506 41.3685 63.7731 41.6376 63.4765C44.1741 60.7023 44.7009 63.4532 46.5217 64.9711C53.8277 71.0602 61.2368 68.3675 58.2251 64.2616C55.7344 60.8594 45.6056 64.3372 40.3951 55.4449C35.5397 47.1516 39.731 38.1546 48.1478 34.8163C48.394 33.1297 47.2947 28.8028 49.6193 28.2794Z" fill="#111828"/>
<path d="M52.5622 31.4258H55.5053L55.74 37.0147C59.3415 37.7475 62.9659 39.6726 64.884 42.9992L62.6338 44.9649C55.6541 37.7999 44.008 42.1617 45.9662 49.7688C47.7755 56.771 60.7386 51.6298 65.4967 60.3186C69.8196 68.2048 63.4125 75.2361 55.7286 76.2247L55.4938 81.1856L52.6252 80.9472L52.545 76.1433C48.1362 75.806 43.9851 73.4913 41.3054 69.9263C44.8668 63.6743 43.2693 68.228 48.6687 70.6358C57.7784 74.6952 66.178 68.1466 61.7692 61.8947C58.1276 56.7302 48.8977 60.8246 43.9393 53.8631C38.7346 46.5584 44.3343 37.9395 52.4649 37.1718C52.4916 35.2564 52.5183 33.3411 52.545 31.4258H52.5622Z" fill="#F8FCFE"/>
</g>
<defs>
<clipPath id="clip0_388_1264">
<rect width="100" height="111" fill="white" transform="translate(0 0.200684)"/>
</clipPath>
</defs>
</svg>
