<svg width="130" height="86" viewBox="0 0 130 86" fill="none" xmlns="http://www.w3.org/2000/svg">
<g clip-path="url(#clip0_515_1340)">
<path d="M61.7248 0.074273C92.0286 -1.3969 116.947 18.7428 130 44.9473C97.5229 99.0162 32.5644 100.167 0 45.4567C11.3814 21.1626 34.2358 1.40931 61.7248 0.074273Z" fill="#111828"/>
<path d="M61.223 2.10346C90.9726 0.588374 114.831 19.1691 127.818 44.952C96.336 96.364 33.8257 97.5805 2.35229 45.457C12.8871 22.331 35.292 3.42532 61.223 2.10346Z" fill="#111828"/>
<path d="M62.5671 7.3427C87.7082 6.35899 109.821 23.0118 121.102 44.7808C105.697 66.9626 85.1291 81.0858 57.1949 78.1611C36.9284 76.0399 19.9742 61.719 8.90698 45.2858C18.9442 24.808 39.2937 8.25175 62.5671 7.3427Z" fill="#111828"/>
<path d="M63.7411 9.20462C87.3941 8.80499 108.04 24.2106 118.915 44.6138C90.8373 86.8036 39.4203 87.9805 11.0847 45.2901C20.5983 25.225 41.1921 9.5823 63.7411 9.20462Z" fill="#F8FCFE"/>
<path d="M84.4833 29.8231C83.8767 30.3149 83.3225 30.9385 82.6373 31.3425C82.5718 31.2679 82.3973 31.5226 82.3842 31.5094C81.1797 30.1261 80.1062 28.6505 78.6879 27.4516C60.8826 12.4149 36.2695 33.2397 47.3629 52.7207C49.4882 56.4535 54.1577 60.4981 58.1944 61.9342C74.3806 67.6827 92.3167 49.4929 83.4708 33.4549C83.4534 33.2792 83.7327 33.1782 84.1429 32.6951C84.5793 32.1813 86.4951 30.7628 87.1672 30.3281C87.5163 32.6512 89.0568 35.4003 89.5194 37.6796C93.0455 55.0745 78.3431 70.9105 59.3683 67.3446C36.3481 63.0189 33.1711 28.9228 54.4981 19.6829C62.6151 16.1653 72.4298 16.8723 79.6916 22.05C81.7601 23.5255 85.4172 27.8732 85.487 28.387C85.5612 28.9403 84.4266 29.1863 84.4789 29.8231H84.4833Z" fill="#111828"/>
<path d="M84.4832 29.8232C84.4309 29.1864 85.5655 28.9405 85.4913 28.3872C85.4215 27.8734 81.7645 23.5213 79.6959 22.0501C72.4342 16.8769 62.6195 16.1654 54.5024 19.6831C33.1754 28.9229 36.3524 63.019 59.3726 67.3447C78.3474 70.9107 93.0498 55.0791 89.5237 37.6797C89.0611 35.4005 87.5206 32.6514 87.1715 30.3282C87.5599 30.0779 87.9614 29.8452 88.2625 29.4851C98.5703 46.678 85.9539 69.0618 66.0932 69.8831C42.7719 70.8492 29.0208 43.2438 44.1727 25.1769C55.7549 11.3699 77.3393 12.5644 87.3373 27.544C87.3199 27.7284 84.8324 29.5421 84.4832 29.8276V29.8232Z" fill="#111828"/>
<path d="M82.6371 31.3426C83.1303 31.9179 83.0779 33.5076 84.1471 32.6952C83.7369 33.1783 83.4576 33.2793 83.475 33.4549C92.3165 49.4929 74.3848 67.6828 58.1986 61.9342C54.1575 60.4982 49.4923 56.458 47.3671 52.7207C36.2737 33.2398 60.8868 12.4193 78.6921 27.4517C80.106 28.6462 81.1795 30.1217 82.3884 31.5095C82.3971 31.5226 82.576 31.2635 82.6415 31.3426H82.6371Z" fill="#111828"/>
<path d="M79.9489 32.0189C86.9532 41.4739 83.5536 53.7747 73.3985 58.8952C74.0051 57.9686 73.5295 58.5088 73.0625 57.7139C82.1135 53.094 85.3821 40.8371 79.2769 32.5283C79.7176 32.1814 79.4863 31.6588 79.9489 32.0233V32.0189Z" fill="#F8FCFE"/>
<path d="M73.0623 57.7095C73.5293 58.5088 74.005 57.9686 73.3984 58.8908C66.7912 62.224 60.3412 61.842 54.249 57.5382L54.9211 57.0332C60.4721 60.6562 67.2276 60.687 73.0623 57.7095Z" fill="#F8FCFE"/>
<path d="M79.949 32.0189C79.4864 31.6544 79.7177 32.177 79.2769 32.5239C77.7451 30.4379 72.9403 26.7666 70.4572 26.4372C66.8962 25.9717 72.4254 27.8337 73.8175 28.633C84.601 34.8251 84.0599 50.8938 73.3157 56.8576C62.1787 63.0365 54.5503 55.3512 53.4942 55.3381C52.233 55.3205 54.6114 56.8224 54.9213 57.0288L54.2492 57.5338C45.9488 51.6711 44.0679 40.2179 50.051 31.9266C57.387 21.7558 72.5956 22.0851 79.949 32.0101V32.0189Z" fill="#2E3C53"/>
<path d="M79.277 32.5282C85.3779 40.837 82.1136 53.0939 73.0626 57.7138C67.2323 60.6913 60.4724 60.6606 54.9214 57.0375C54.6072 56.8355 52.2331 55.3292 53.4944 55.3468C54.5461 55.3643 62.1788 63.0496 73.3158 56.8663C84.0644 50.9025 84.6011 34.8294 73.8176 28.6417C72.4255 27.8424 66.8963 25.976 70.4573 26.4459C72.9405 26.7709 77.7453 30.4466 79.277 32.5326V32.5282Z" fill="#111828"/>
<path d="M63.741 29.4849C75.3624 28.7383 82.4888 41.3026 75.0787 50.358C70.3656 56.1197 61.0876 56.9541 55.5104 51.9653C46.8042 44.1703 52.412 30.2139 63.741 29.4849Z" fill="#121315"/>
<path d="M52.5733 44.8643C54.0833 53.7572 67.3456 56.862 73.5687 49.1724C81.6683 39.164 69.9902 26.3495 57.7796 32.524C67.2277 25.6073 80.9482 35.0887 76.5929 46.4672C73.6734 54.0954 63.2914 57.0948 56.8588 52.1279C55.1438 50.8061 52.2722 47.0205 52.5777 44.8599L52.5733 44.8643Z" fill="#DCDFE5"/>
<path d="M52.5735 44.8642C51.6657 39.5197 53.5205 35.6463 57.7797 32.5239C69.9903 26.3494 81.6684 39.164 73.5688 49.1723C67.3457 56.8576 54.0834 53.7571 52.5735 44.8642Z" fill="#111828"/>
<path d="M63.405 31.6808C70.7365 31.2284 75.2795 37.6401 74.7427 39.0322C73.2677 42.8661 60.5989 40.9162 59.7959 34.2981C59.5908 32.6074 60.0141 31.8872 63.405 31.6764V31.6808Z" fill="#DCDFE5"/>
<path d="M69.5365 51.289C65.7921 53.3091 62.4711 53.4101 58.6177 51.4558C61.6332 52.501 60.5684 51.5261 61.3888 51.289C62.0653 51.0913 68.0134 51.1923 69.5365 51.289Z" fill="#DCDFE5"/>
<path d="M72.5608 48.9221C74.3893 46.656 73.9136 43.7093 73.9049 40.9778C74.3675 40.7362 75.0745 39.691 75.249 39.8799C75.8818 43.4853 74.9435 46.252 72.5608 48.9221Z" fill="#DCDFE5"/>
<path d="M73.9048 40.9778C73.9135 43.7093 74.3892 46.6561 72.5606 48.9221C71.3169 50.3143 71.1554 50.4153 69.5364 51.2892C68.0133 51.1926 62.0695 51.0916 61.3887 51.2892C60.5683 51.5263 61.6331 52.5012 58.6176 51.4561C51.046 47.6178 51.4867 36.9288 58.7005 33.0334C59.198 39.9194 68.0613 44.0387 73.9004 40.9778H73.9048Z" fill="#FAFDFC"/>
<path d="M58.0283 41.9924C63.1473 41.461 63.4703 48.5314 59.5383 49.2604C54.1705 50.2529 53.7341 42.4403 58.0283 41.9924Z" fill="#111828"/>
</g>
<defs>
<clipPath id="clip0_515_1340">
<rect width="130" height="86" fill="white"/>
</clipPath>
</defs>
</svg>
