<svg width="113" height="113" viewBox="0 0 113 113" fill="none" xmlns="http://www.w3.org/2000/svg">
<g clip-path="url(#clip0_388_1309)">
<path d="M38.2181 0.364666C41.0139 -0.151004 87.231 0.757279 95.1183 0.364666C101.316 5.96086 107.208 11.9907 112.806 18.126C112.353 26.7166 113.394 78.6879 112.806 81.8171C112.553 83.1473 110.969 84.2606 109.722 84.4423C105.13 85.1045 59.0605 83.9384 49.5075 84.4423C47.7024 86.1925 45.8954 87.9407 44.0864 89.6869C52.2562 90.0737 98.0083 89.1771 100.987 89.6869C103.541 90.1264 103.471 93.4314 100.987 93.8826C97.9083 94.4451 46.8941 93.4489 38.3652 93.8826C35.846 96.08 21.9903 111.099 20.9014 111.714C19.4357 112.546 17.8583 112.265 16.5339 111.263C15.6216 110.572 1.06543 95.9921 0.500373 95.0018C-0.523796 93.1911 0.129554 91.9781 1.25379 90.5073C2.82536 88.4505 13.7086 78.2132 16.6104 74.7735C16.6399 74.2695 16.3279 74.1055 16.6104 73.5722C19.6064 67.9936 30.9547 53.5197 35.5752 47.9469C35.999 40.3349 35.0161 7.26175 35.5752 3.43525C35.7636 2.15193 36.876 0.610781 38.2122 0.364666H38.2181Z" fill="#111828"/>
<path d="M18.0467 79.7896C22.6888 84.411 27.3309 89.0325 31.973 93.654L18.9531 107.366C14.26 102.647 9.56884 97.9259 4.87964 93.2028C9.27062 88.7337 13.6616 84.2626 18.0526 79.7896H18.0467Z" fill="#2E3C53"/>
<path d="M94.3708 5.3103L106.113 17.5985C102.174 17.575 98.234 17.5497 94.2943 17.5223L94.3708 5.3103Z" fill="#F8FCFE"/>
<path d="M40.702 61.9579C40.6785 61.8817 40.3547 61.8642 40.1016 61.8056C40.9551 60.0886 41.7144 58.3072 42.6621 56.6371C42.9858 56.0629 45.3343 52.8341 45.3696 52.588C45.3755 52.5352 45.0753 52.3887 45.0695 52.2129C45.7405 51.8672 46.4586 51.6738 47.1767 51.4629C48.3362 51.123 49.584 50.789 50.7907 50.7128C55.2817 50.4374 72.9751 51.246 76.1536 50.7128C77.1542 50.5487 80.468 48.4919 78.1843 48.1637C79.491 47.191 78.8082 44.8822 77.3543 44.5658C74.8881 44.0267 45.4932 45.0346 39.9486 44.4896C39.9722 31.1251 39.9977 17.7627 40.0251 4.40211L89.8504 4.24976C90.5214 4.54861 89.7738 17.1474 90.074 18.8643C90.2624 19.9191 91.6279 21.4309 92.711 21.636C94.5651 21.9876 108.268 21.1379 108.591 21.8587L108.745 77.1585L108.368 80.229H53.4217C52.6624 80.3228 53.9868 78.2191 54.852 76.7072C58.4661 70.3786 58.5308 72.4823 63.2043 71.9842C76.5656 70.5661 74.223 58.6764 64.5581 57.2993C60.6321 56.7368 43.4743 59.4968 40.6961 61.9462L40.702 61.9579Z" fill="#F8FCFE"/>
<path d="M46.1995 22.0932C51.703 22.4155 83.7112 21.6713 85.6418 22.0932C87.5842 22.5151 87.802 25.6794 85.3417 26.1424C83.2109 26.5408 52.527 25.8435 46.5056 26.1424C44.0041 25.3337 43.6686 23.189 46.2054 22.0932H46.1995Z" fill="#111828"/>
<path d="M50.567 33.4846C51.3851 33.3088 66.4593 33.3088 67.2774 33.4846C69.0432 33.8714 69.5671 36.9244 67.1244 37.3815C65.9472 37.6041 50.72 37.4928 49.9607 37.0826C48.5363 36.3032 49.0131 33.8245 50.5611 33.4846H50.567Z" fill="#111828"/>
<path d="M76.6068 33.4848C77.4132 33.2855 92.3578 33.309 93.1642 33.4848C95.2302 33.9243 95.2066 36.9714 92.864 37.3816C91.6044 37.6043 76.7304 37.5105 76.0064 37.0827C74.5585 36.2331 75.3001 33.8071 76.6068 33.4848Z" fill="#111828"/>
<path d="M66.2945 62.5558C67.7425 63.5286 68.3723 64.9877 66.9714 66.3003C64.9643 68.193 60.02 67.4137 57.336 68.0993C52.586 69.3064 51.3675 74.844 48.9837 77.9146C47.1296 80.2995 38.5595 87.2728 35.6636 90.2789C35.2104 90.1442 34.4688 89.2828 34.3864 89.23C37.9062 85.2922 42.1795 82.0634 45.3756 77.8384C45.4168 77.7974 45.7111 77.9204 45.8288 77.7622C47.8065 73.9885 50.3905 70.6718 53.204 67.4957C54.3635 66.5112 56.7179 64.8353 58.0188 64.1966C60.5321 62.966 63.4751 62.0108 66.3004 62.55L66.2945 62.5558Z" fill="#ACBCD4"/>
<path d="M78.1902 48.1697C80.4681 48.4978 77.1543 50.5488 76.1596 50.7187C72.9811 51.252 55.2877 50.4433 50.7966 50.7187C51.4677 50.0331 50.4435 49.0662 50.7201 48.9197C52.0209 48.8494 53.204 49.1424 53.051 48.6209C57.3596 48.5388 75.7593 48.8436 77.0601 48.6209C77.119 48.6092 78.1431 48.2048 78.1902 48.1697Z" fill="#C5D0D9"/>
<path d="M47.1767 51.4687C46.4586 51.6796 45.7405 51.873 45.0695 52.2187C40.8786 54.3693 39.6955 60.2761 38.8951 61.5125C37.5001 63.6807 32.6794 60.8679 30.6134 61.5125C33.3681 57.8852 35.6989 54.1877 39.1952 51.1698C41.0434 51.9961 46.1937 49.4353 47.5475 49.9685L47.1708 51.4687H47.1767Z" fill="#F8FCFE"/>
<path d="M53.051 48.6208C53.204 49.1424 52.015 48.8494 50.7201 48.9197C50.4435 49.0662 51.4676 50.0331 50.7966 50.7187C49.59 50.7949 48.3422 51.1289 47.1826 51.4688L47.5593 49.9686C46.2055 49.4354 41.0552 51.9961 39.207 51.1699C39.7662 50.6835 40.4961 49.7284 41.2377 49.3709C42.9741 48.533 50.4199 48.6677 53.0569 48.6208H53.051Z" fill="#C5D0D9"/>
<path d="M40.1017 61.8055C39.7014 61.7235 39.2776 61.6649 38.895 61.5067C39.6896 60.2702 40.8786 54.3693 45.0695 52.2129C45.0753 52.3887 45.3755 52.5352 45.3697 52.5879C45.3343 52.8282 42.9858 56.0628 42.6621 56.6371C41.7203 58.3072 40.9551 60.0886 40.1017 61.8055Z" fill="#C5D0D9"/>
<path d="M38.9009 61.5067C39.2835 61.6649 39.7014 61.7235 40.1076 61.8056C40.3607 61.8583 40.6844 61.8817 40.7079 61.9579C39.0657 63.4112 38.9833 66.0598 39.878 66.1536C40.8021 66.2532 50.1197 62.8779 58.0188 61.9579V64.2081C56.7179 64.8468 54.3635 66.5228 53.204 67.5072C49.8843 70.3141 47.2826 73.9707 45.3756 77.8499C42.05 81.2076 37.041 84.9228 33.786 88.7903C33.7095 88.7317 33.5682 88.9486 33.5623 88.9427C31.2962 87.1437 24.0976 79.1743 20.9897 76.426C22.9145 70.8122 27.0818 66.1829 30.6252 61.5126C32.6912 60.868 37.5059 63.6807 38.9068 61.5126L38.9009 61.5067Z" fill="#F8FCFE"/>
<path d="M34.3804 89.2356C34.298 89.1829 34.1685 89.3938 34.1567 89.388C34.0979 89.347 33.9095 88.884 33.78 88.7903C37.0409 84.9227 42.044 81.2076 45.3696 77.8499C42.1735 82.0748 37.9003 85.2978 34.3804 89.2415V89.2356Z" fill="#111828"/>
<path d="M66.2945 62.5556C63.4692 62.0164 60.532 62.9775 58.0128 64.2022V61.952C60.691 61.6414 63.9342 60.9675 66.2945 62.5497V62.5556Z" fill="#C5D0D9"/>
<path d="M45.3696 77.8442C47.2767 73.9708 49.8783 70.3142 53.198 67.5015C50.3845 70.6775 47.8006 73.9942 45.8229 77.768C45.7051 77.9203 45.4108 77.8031 45.3696 77.8442Z" fill="#111828"/>
</g>
<defs>
<clipPath id="clip0_388_1309">
<rect width="113" height="112" fill="white" transform="translate(0 0.200684)"/>
</clipPath>
</defs>
</svg>
