<svg width="100" height="102" viewBox="0 0 100 102" fill="none" xmlns="http://www.w3.org/2000/svg">
<g clip-path="url(#clip0_388_1334)">
<path d="M9.53161 0.19999H80.601C85.2291 0.914115 89.3218 5.31248 89.8625 9.90019C90.2247 12.9569 89.7922 25.1024 90.0085 29.5819C86.851 29.6793 83.6918 29.7749 80.5307 29.8686C80.5776 35.5203 80.6263 41.172 80.6767 46.8237C81.4931 47.9706 93.4957 42.5065 98.048 58.4607C100.238 66.1267 100.535 84.2666 99.1942 92.0787C98.3616 96.9531 96.7288 100.507 91.3709 101.2H8.81253C4.27101 100.654 2.42196 98.0189 1.41634 93.799C-0.540839 85.5758 -0.584091 65.207 1.98944 57.1623C6.56881 42.8419 18.593 47.9057 19.3608 46.8183V29.7226C17.8307 30.4854 14.6084 37.8809 13.4027 37.9837C13.2946 37.9945 12.7756 37.8809 12.6836 37.8376C12.0024 37.5563 4.38455 26.6497 3.99528 25.9842C0.491817 19.9466 2.38412 14.0172 9.45051 12.9082L9.5208 0.19458L9.53161 0.19999Z" fill="#111828"/>
<path d="M72.6319 29.653C72.6787 34.3705 72.7274 39.0881 72.7779 43.8056C68.4238 43.9247 64.0679 44.0437 59.7102 44.1627C59.694 43.6866 59.694 43.1997 59.7102 42.7236C67.5173 39.5047 63.6624 33.1208 59.0614 32.5257C58.1152 32.4013 40.9115 32.3959 39.9654 32.5257C36.7593 32.9585 34.5642 36.6644 36.0186 39.6399C37.0296 41.7065 39.9059 42.4369 40.0411 42.6587C40.0735 42.7128 40.0735 43.8056 39.9708 43.8814C39.4517 44.2493 28.7089 43.8381 27.195 44.0274L27.1248 29.6584C42.0739 29.4312 57.6881 29.4366 72.6373 29.6584L72.6319 29.653Z" fill="#F7F7F8"/>
<path d="M59.7103 44.1626C64.0644 44.0436 68.4203 43.9246 72.778 43.8055C72.7311 39.088 72.6824 34.3704 72.632 29.6529C74.0647 29.6745 75.5083 29.5771 76.941 29.7232V46.8189C71.2209 46.8442 65.5025 46.8676 59.786 46.8893C59.64 46.7865 59.7265 44.5629 59.7157 44.1572L59.7103 44.1626Z" fill="#D3D3D8"/>
<path d="M27.1194 29.653L27.1897 44.0221C28.7089 43.8327 39.4464 44.2493 39.9654 43.876C40.0681 43.8057 40.0681 42.7074 40.0357 42.6533C39.9059 42.4315 37.0242 41.7012 36.0132 39.6345C34.5588 36.6644 36.7539 32.9531 39.96 32.5203C40.9061 32.3905 58.1099 32.3959 59.056 32.5203C63.6516 33.1154 67.5065 39.4993 59.7048 42.7182C59.84 38.493 59.867 40.6732 60.851 39.3424C61.6025 38.3253 61.2673 36.2695 60.0616 35.8204C59.1371 35.4796 41.3603 35.5067 40.3925 35.6744C38.019 36.0855 37.8839 39.3857 40.1763 40.0565C40.151 42.3323 40.1276 44.6063 40.106 46.8786H22.8752L22.8049 29.8532C22.9671 29.4799 26.4868 29.6476 27.114 29.6368L27.1194 29.653Z" fill="#D3D3D8"/>
<path d="M43.8474 39.1367L56.196 39.2828C56.2213 41.8435 56.2447 44.4061 56.2663 46.9705C52.1249 46.9957 47.9852 47.0191 43.8474 47.0408V39.1367Z" fill="#2E3C53"/>
<path d="M90.8682 53.5003C93.8527 58.2179 95.6476 73.5013 95.8909 79.3603C96.0964 84.278 96.7614 98.5227 89.3598 97.4623C89.2408 97.3812 89.349 96.4885 89.1435 95.7365C90.0518 88.5087 88.1109 85.0896 80.3849 85.8253C80.5254 85.0896 80.1308 83.1582 80.6011 82.9526C84.2127 83.2177 87.6297 82.8769 89.003 79.0033C92.3334 69.5898 81.3473 61.61 74.1403 68.8757C70.6206 64.8722 64.6517 65.2672 60.932 68.8757C57.2177 65.067 52.0652 65.3105 48.1563 68.7296C44.6258 65.159 39.1057 65.2077 35.5211 68.7296C32.1853 65.0616 26.4759 65.1752 23.1725 68.8757C20.3287 65.3646 14.8031 65.159 11.397 68.0155C7.19609 71.5374 7.9422 78.235 8.30984 83.0987C8.32066 83.2231 8.04492 83.7966 8.30984 85.6143C8.69371 88.2382 10.3265 92.3444 12.1864 94.3083C11.3267 96.2613 11.5322 97.3757 11.397 97.4677C4.53605 97.3379 4.26573 89.2877 4.43333 84.1049C4.4928 82.3629 5.59034 69.9577 5.87148 67.653C6.56352 61.9129 7.34747 54.8745 12.3323 51.2011C12.5973 51.1524 12.9 51.0821 13.1217 50.9143C23.3023 51.3688 83.5099 50.1082 87.3485 50.7683C88.5812 50.9793 90.2032 52.4508 90.8682 53.5003Z" fill="#F8FCFE"/>
<path d="M26.5462 92.0037C27.4058 91.9874 28.2709 92.0145 29.1305 92.0037C32.4339 91.9658 35.7373 92.0199 39.0354 92.0037C39.3219 92.0037 39.6085 92.0037 39.895 92.0037C43.339 91.9874 46.7884 92.0037 50.2324 92.0037C50.4703 92.0037 50.7136 92.0037 50.9514 92.0037C55.2821 92.0091 79.9145 91.7873 81.4607 92.1497C83.499 92.6204 85.6995 95.3254 85.4832 97.4678H15.56L15.3438 97.2514C16.7603 91.0028 21.5235 92.101 26.5408 92.0091L26.5462 92.0037Z" fill="#2E3C53"/>
<path d="M12.3323 51.2011C7.34748 54.8745 6.56353 61.9076 5.87148 67.653C5.59575 69.9577 4.49281 82.3575 4.43334 84.1049C4.08191 83.5694 4.03866 82.628 4.00081 82.0221C3.59532 74.87 3.3358 56.2324 10.1048 51.926C11.8241 50.8332 12.208 51.2281 12.3323 51.2065V51.2011Z" fill="#2E3C53"/>
<path d="M89.1436 95.7418C87.792 90.7267 84.4669 88.1516 79.2388 88.2003C79.4713 87.7296 80.3633 85.9605 80.385 85.8307C88.111 85.1003 90.0519 88.514 89.1436 95.7418Z" fill="#2E3C53"/>
<path d="M81.104 70.3093C82.6665 71.3481 83.2018 73.9665 82.9693 75.6977C82.4719 79.3657 78.671 77.7103 76.0759 78.0673C75.8434 74.3182 76.2002 69.8224 81.0986 70.3093H81.104Z" fill="#F8FCFE"/>
<path d="M76.0758 78.0673C78.671 77.7103 82.4718 79.3657 82.9692 75.6977C83.2017 73.9665 82.661 71.3481 81.1039 70.3093C83.4612 70.542 85.5373 72.8953 85.6995 75.411C86.0726 81.1727 79.8874 79.1656 76.2975 79.5064C75.9352 79.2575 76.1191 78.657 76.0812 78.0673H76.0758Z" fill="#2E3C53"/>
<path d="M18.3606 70.4554C19.4743 72.1433 19.8852 73.6744 19.5068 75.6977C18.6958 80.0474 15.7168 78.7598 12.3268 78.9329C12.1646 75.0756 12.6783 68.405 18.3552 70.4554H18.3606Z" fill="#F8FCFE"/>
<path d="M12.3323 78.9328C15.7168 78.7651 18.7013 80.0473 19.5122 75.6976C19.8907 73.6743 19.4798 72.1433 18.3661 70.4553C22.1236 71.8132 21.3126 76.2495 21.3829 79.436L12.2674 79.6524C12.0133 79.1709 12.3431 78.9707 12.3377 78.9328H12.3323Z" fill="#2E3C53"/>
<path d="M95.8909 79.3602C95.6476 73.5012 93.8472 58.2178 90.8682 53.5002C95.9395 58.6668 96.3504 73.6743 96.3234 81.0103C95.8963 80.6045 96.5343 79.344 95.8909 79.3602Z" fill="#294A62"/>
<path d="M12.1865 94.3029C10.3266 92.339 8.69382 88.2382 8.30996 85.6089C8.04503 83.7912 8.32077 83.2177 8.30996 83.0933C10.2347 82.4928 9.05066 83.5369 9.74811 86.3285C10.3158 88.6007 12.1703 90.5483 14.3437 91.3544C13.5597 92.2146 12.6622 93.2263 12.1919 94.2975L12.1865 94.3029Z" fill="#2E3C53"/>
<path d="M70.3341 71.0289C71.6695 74.5292 70.9883 77.8456 67.3172 79.3604C66.7333 79.3387 63.1326 79.4631 63.0082 79.29C63.1434 76.6337 62.3594 73.1064 64.6572 71.175C66.3927 69.7143 68.5229 69.6331 70.3287 71.0289H70.3341Z" fill="#F8FCFE"/>
<path d="M43.4852 70.5961C45.5559 73.3823 45.3829 77.8402 41.9064 79.3604C41.3279 79.3388 37.7218 79.4632 37.5974 79.2901C37.7542 76.3795 36.6459 71.5808 40.252 70.3094C41.6469 69.8225 42.2362 70.0335 43.4852 70.5961Z" fill="#F8FCFE"/>
<path d="M41.9065 79.3605C45.3829 77.8402 45.5613 73.3824 43.4852 70.5962C46.8265 72.1002 46.3453 76.2389 46.3561 79.2901C46.129 79.8041 42.5174 79.3821 41.9065 79.3605Z" fill="#2E3C53"/>
<path d="M67.3228 79.3603C70.9938 77.8455 71.6696 74.5237 70.3396 71.0288C72.9023 73.0143 72.2752 76.4226 72.3509 79.2899C72.1238 79.7985 68.0148 79.3873 67.3282 79.3603H67.3228Z" fill="#2E3C53"/>
<path d="M56.9853 71.0288C58.7694 74.3614 58.2071 77.2991 55.12 79.5064C53.498 79.5334 51.8598 79.5442 50.2379 79.436C50.4001 76.4443 49.2701 71.6997 53.0385 70.4554C54.7253 69.8981 55.5687 70.0767 56.9853 71.0288Z" fill="#F8FCFE"/>
<path d="M55.1145 79.5063C58.2017 77.3045 58.7639 74.3614 56.9798 71.0288C59.8615 72.9602 59.2343 76.4064 59.2776 79.436C59.1586 79.6037 55.6714 79.5009 55.1145 79.5063Z" fill="#2E3C53"/>
<path d="M31.569 71.0289C32.8612 74.1883 33.045 77.3965 30.1309 79.6471C28.4602 79.6849 26.7734 79.6795 25.1082 79.5767C25.2974 77.1909 24.6162 73.6636 26.2543 71.6727C27.6817 69.9415 29.8119 69.6547 31.569 71.0235V71.0289Z" fill="#F8FCFE"/>
<path d="M30.1362 79.647C33.0504 77.391 32.8611 74.1883 31.5744 71.0288C34.229 73.1009 33.4829 76.6011 33.5856 79.5767C33.4829 79.7227 30.612 79.6362 30.1416 79.647H30.1362Z" fill="#2E3C53"/>
<path d="M22.0912 84.1049C21.3397 85.3167 20.8801 86.5665 20.653 87.9839C19.1284 88.157 16.636 88.1462 15.3384 87.4104C15.8844 86.1174 15.4898 84.6297 15.7709 83.2447C17.6902 82.5468 20.5557 82.5847 22.0858 84.1049H22.0912Z" fill="#2E3C53"/>
<path d="M15.7764 83.2393C15.4953 84.6242 15.89 86.112 15.3439 87.405C13.1218 86.139 13.457 84.0832 15.7764 83.2393Z" fill="#F8FCFE"/>
<path d="M20.6584 87.984C20.8855 86.5665 21.3451 85.3168 22.0966 84.105C23.6915 85.6847 23.1455 87.7027 20.6584 87.984Z" fill="#F8FCFE"/>
<path d="M74.6432 83.526C74.8811 83.9534 74.3729 84.3916 74.3567 84.6026C74.308 85.2897 74.8109 86.8424 74.5027 87.6917C73.7728 88.0109 69.1015 88.157 68.3284 87.9785C68.9231 87.0371 68.4798 85.0516 68.6149 83.6667C70.3234 82.7253 72.9077 82.4927 74.6432 83.5206V83.526Z" fill="#2E3C53"/>
<path d="M68.6148 83.6721C68.4797 85.0571 68.923 87.0426 68.3283 87.9839C67.2794 87.7405 65.7656 85.2519 68.6148 83.6721Z" fill="#F8FCFE"/>
<path d="M74.4973 87.6919C74.8108 86.8425 74.308 85.2898 74.3513 84.6027C74.3675 84.3917 74.8757 83.9535 74.6378 83.5261C76.6112 84.6947 76.1463 86.9777 74.4919 87.6919H74.4973Z" fill="#F8FCFE"/>
<path d="M55.2606 87.6919C55.9905 87.7081 55.731 84.83 55.4768 84.6731C55.239 84.527 54.7902 84.976 54.5415 84.527C56.2013 81.73 63.9814 82.6281 62.5811 86.3231C62.4513 86.664 61.4187 87.5512 61.0726 87.6865C59.9805 88.1139 56.2229 88.1571 55.2552 87.6865L55.2606 87.6919Z" fill="#2E3C53"/>
<path d="M55.2606 87.6919C54.0009 87.0752 53.8711 85.6632 54.5416 84.5325C54.7849 84.9761 55.239 84.5325 55.4769 84.6785C55.731 84.8354 55.9905 87.7136 55.2606 87.6973V87.6919Z" fill="#F8FCFE"/>
<path d="M29.1306 92.0036C28.271 92.0145 27.4059 91.9874 26.5463 92.0036C22.8266 88.314 27.8385 90.9325 29.1306 92.0036Z" fill="#111828"/>
<path d="M48.3671 83.9589C47.7454 85.3115 47.6697 86.5125 47.221 87.984C45.6152 88.2058 42.0144 88.2329 41.1926 86.5449C42.3118 85.8416 42.6416 84.3322 43.0579 83.0987C44.7339 82.6713 46.9993 82.8012 48.3726 83.9589H48.3671Z" fill="#2E3C53"/>
<path d="M47.2209 87.984C47.6697 86.5125 47.7508 85.3115 48.3671 83.959C50.2054 85.5117 49.4971 87.6649 47.2209 87.984Z" fill="#F8FCFE"/>
<path d="M41.1873 86.5448C40.4196 84.9705 41.4576 83.5044 43.0526 83.0986C42.6363 84.3375 42.3065 85.8469 41.1873 86.5448Z" fill="#F8FCFE"/>
<path d="M34.7266 83.5261C33.9805 84.4134 34.8293 86.4638 34.44 87.9786C32.8018 88.2383 28.3793 88.3032 27.6926 86.3988C28.7685 85.517 28.7902 84.8894 28.8388 83.5261C30.3635 82.7092 33.1911 82.72 34.7266 83.5261Z" fill="#2E3C53"/>
<path d="M34.4398 87.984C34.8291 86.4637 33.9803 84.4133 34.7264 83.5315C37.0782 84.765 36.7755 87.6161 34.4398 87.984Z" fill="#F8FCFE"/>
<path d="M27.6925 86.3989C27.2222 85.095 27.6493 84.1645 28.8387 83.5261C28.7847 84.8895 28.763 85.517 27.6925 86.3989Z" fill="#F8FCFE"/>
<path d="M39.8952 92.0036C39.6086 92.0036 39.3221 92.0036 39.0355 92.0036C38.603 90.2453 39.5005 90.5266 39.8952 92.0036Z" fill="#111828"/>
<path d="M50.9515 92.0036C50.7136 92.0036 50.4703 92.0036 50.2324 92.0036C50.7839 91.477 51.3336 90.9504 51.8814 90.4238L50.9461 92.0036H50.9515Z" fill="#111828"/>
<path d="M83.7585 6.23295C84.4181 6.86592 85.2237 8.06695 85.5535 8.88928C86.8673 12.1678 86.2077 21.9924 86.0563 26.0553L83.6882 25.8389C83.7135 19.3036 83.7369 12.7665 83.7585 6.22754V6.23295Z" fill="#2E3C53"/>
<path d="M8.95853 16.723C9.16398 16.7176 9.37484 16.6797 9.46134 16.7933C9.16398 18.5462 10.6021 24.4053 7.23383 23.6154C5.78487 23.2746 5.33613 19.8067 7.01757 17.9403C7.42847 17.4858 8.83959 16.723 8.95853 16.7176V16.723Z" fill="#2E3C53"/>
<path d="M16.2089 25.2005C14.7869 26.8993 13.7975 29.231 12.1864 30.6593C11.8782 30.2535 9.42362 26.7803 9.60204 26.5639L12.5432 26.4935L12.9 26.1365V4.29614H16.344C15.9926 11.0857 16.8793 18.4759 16.1981 25.2005H16.2089Z" fill="#2E3C53"/>
<path d="M12.1863 30.6592C13.7974 29.2309 14.7814 26.8992 16.2088 25.2004C16.198 25.2816 16.4791 25.6819 16.0628 26.8505C15.7925 27.6187 13.6406 30.6646 12.9756 31.8061C12.8675 31.8061 12.3052 30.8161 12.1863 30.6592Z" fill="#2E3C53"/>
<path d="M19.9392 21.6082C39.8949 20.3098 59.8938 20.2774 79.8819 20.0285C79.9071 14.6185 79.9306 9.20661 79.9522 3.79297L80.2387 4.00937C80.2135 11.3129 80.1901 18.6165 80.1685 25.92C60.1101 26.1094 39.9219 26.2554 19.9392 25.8497C19.923 24.4377 19.9609 23.0257 19.9392 21.6136V21.6082Z" fill="#2E3C53"/>
<path d="M79.9523 3.79297C79.927 9.20301 79.9036 14.6148 79.882 20.0285C59.8939 20.2774 39.8896 20.3098 19.9393 21.6082C19.8474 15.6788 19.8258 9.71696 20.1556 3.79297H79.9523Z" fill="#F7F7F8"/>
<path d="M24.3186 10.2581H31.3526C31.9094 10.4745 31.9094 16.7934 31.3526 17.0098H24.3186V10.2581Z" fill="#131D28"/>
</g>
<defs>
<clipPath id="clip0_388_1334">
<rect width="100" height="101" fill="white" transform="translate(0 0.200684)"/>
</clipPath>
</defs>
</svg>
