<svg width="88" height="106" viewBox="0 0 88 106" fill="none" xmlns="http://www.w3.org/2000/svg">
<g clip-path="url(#clip0_388_1404)">
<path d="M40.9618 0.276943C85.3644 -2.10719 105.051 51.2984 70.098 78.1622C71.2355 80.6827 79.9077 95.4785 80.0541 96.5042C81.0058 103.078 70.2669 108.223 65.1988 103.144C63.9824 101.927 57.681 87.6387 55.8115 84.7199C24.3044 92.5597 -3.67738 67.8019 0.394036 36.5736C2.95064 17.015 20.7736 1.36262 40.9618 0.276943Z" fill="#111828"/>
<path d="M79.401 35.2262C81.9238 47.1577 78.7422 59.5203 69.9348 68.3585C54.9613 83.3725 30.1048 82.145 16.2293 66.0671C15.7507 63.1974 19.8502 67.622 21.2074 68.5985C26.0446 72.0684 31.3606 74.9435 37.3691 75.871C63.7404 79.9518 84.1651 54.2337 75.9716 30.2451C77.2499 27.059 77.492 31.0362 78.4212 32.3019C78.4775 33.0766 78.9618 35.548 79.401 35.2262Z" fill="#2E3C53"/>
<path d="M79.4011 35.226C78.9618 35.5425 78.4775 33.0765 78.4212 32.3018C77.4921 31.0361 77.2499 27.0589 75.9716 30.245C84.1595 54.2336 63.7405 79.9517 37.3692 75.8708C31.3606 74.9434 26.0447 72.0682 21.2074 68.5984C19.8503 67.6273 15.7507 63.2028 16.2294 66.067C3.24929 51.0202 4.98936 28.1828 20.7175 15.6183C41.5701 -1.04331 73.95 9.46432 79.4011 35.226Z" fill="#F8FCFE"/>
<path d="M42.0995 10.872C70.6219 9.14255 86.7668 41.0146 69.276 61.2388C56.0876 76.4874 31.1185 75.9473 18.6734 60.1313C3.4126 40.7418 17.2599 12.3778 42.0995 10.872Z" fill="#111828"/>
<path d="M49.1217 17.3588C59.7817 16.7696 56.3579 21.5269 55.1584 22.1052C53.5817 22.8636 46.1202 21.5378 38.6701 25.7442C32.2054 29.3885 27.7679 36.4809 27.323 43.6933C27.1259 46.934 28.5507 50.6821 25.9377 51.5222C20.0136 53.4263 22.1254 38.9524 23.7359 34.6806C27.5145 24.6421 38.3603 17.9589 49.1161 17.3642L49.1217 17.3588Z" fill="#F8FCFE"/>
</g>
<defs>
<clipPath id="clip0_388_1404">
<rect width="88" height="105" fill="white" transform="translate(0 0.200684)"/>
</clipPath>
</defs>
</svg>
