<svg width="55" height="55" viewBox="0 0 55 55" fill="none" xmlns="http://www.w3.org/2000/svg">
<g clip-path="url(#clip0_383_1049)">
<path d="M55 27.4999C55 24.1361 54.395 20.9137 53.2895 17.9347L27.5 16.739L1.71048 17.9346C0.605107 20.9137 0 24.1361 0 27.4999C0 30.8637 0.605107 34.086 1.71048 37.0651L27.5 38.2608L53.2895 37.0652C54.395 34.086 55 30.8637 55 27.4999Z" fill="#496E2D"/>
<path d="M27.5 55C39.324 55 49.4039 47.5372 53.2895 37.0652H1.71045C5.59601 47.5372 15.6759 55 27.5 55Z" fill="#D80027"/>
<path d="M1.71045 17.9348H53.2896C49.4039 7.46281 39.324 0 27.5 0C15.6759 0 5.59601 7.46281 1.71045 17.9348Z" fill="#F0F0F0"/>
</g>
<defs>
<clipPath id="clip0_383_1049">
<rect width="55" height="55" fill="white"/>
</clipPath>
</defs>
</svg>
