<svg width="55" height="55" viewBox="0 0 55 55" fill="none" xmlns="http://www.w3.org/2000/svg">
<g clip-path="url(#clip0_383_1051)">
<path d="M27.5 55C42.6878 55 55 42.6878 55 27.5C55 12.3122 42.6878 0 27.5 0C12.3122 0 0 12.3122 0 27.5C0 42.6878 12.3122 55 27.5 55Z" fill="#D80027"/>
<path d="M15.0498 16.7363L17.4238 24.041H25.1045L18.8955 28.5635L21.2695 35.8682L15.0498 31.3564L8.83008 35.8682L11.2148 28.5635L4.99512 24.041H12.6758L15.0498 16.7363Z" fill="#FFDA44"/>
<path d="M32.6025 42.5928L30.7871 40.3584L28.1016 41.4004L29.6592 38.9834L27.8438 36.7383L30.626 37.4795L32.1943 35.0625L32.3447 37.9414L35.1377 38.6826L32.4414 39.7139L32.6025 42.5928Z" fill="#FFDA44"/>
<path d="M36.2119 36.04L37.0713 33.29L34.7188 31.625L37.5977 31.582L38.4463 28.832L39.3809 31.5605L42.2598 31.5283L39.9502 33.2471L40.874 35.9756L38.5215 34.3105L36.2119 36.04Z" fill="#FFDA44"/>
<path d="M41.0781 20.1846L39.8105 22.7734L41.873 24.7822L39.0264 24.374L37.7588 26.9521L37.2646 24.1162L34.4072 23.708L36.9639 22.3652L36.4697 19.5186L38.5322 21.5273L41.0781 20.1846Z" fill="#FFDA44"/>
<path d="M32.6777 12.3428L32.4629 15.2109L35.1377 16.2959L32.334 16.9834L32.1299 19.8623L30.6152 17.4131L27.8115 18.1006L29.6699 15.8984L28.1445 13.46L30.8193 14.5449L32.6777 12.3428Z" fill="#FFDA44"/>
</g>
<defs>
<clipPath id="clip0_383_1051">
<rect width="55" height="55" fill="white"/>
</clipPath>
</defs>
</svg>
