<svg width="55" height="55" viewBox="0 0 55 55" fill="none" xmlns="http://www.w3.org/2000/svg">
<g clip-path="url(#clip0_383_1052)">
<path d="M27.5 55C42.6878 55 55 42.6878 55 27.5C55 12.3122 42.6878 0 27.5 0C12.3122 0 0 12.3122 0 27.5C0 42.6878 12.3122 55 27.5 55Z" fill="#F0F0F0"/>
<path d="M27.5 20.3261H54.0526C53.3631 17.7679 52.3151 15.3573 50.9637 13.1521H27.5V20.3261Z" fill="#338AF3"/>
<path d="M10.3817 49.0219H44.6184C47.1281 47.0229 49.2804 44.595 50.9637 41.8479H4.03638C5.71979 44.5949 7.87209 47.0229 10.3817 49.0219Z" fill="#338AF3"/>
<path d="M9.56527 6.65356C7.4033 8.51529 5.53427 10.7077 4.03638 13.1522H9.56527V6.65356Z" fill="#338AF3"/>
<path d="M27.5 27.4999C27.5 24.6988 27.5 22.3545 27.5 20.3259H16.7391V27.4999H9.56517V20.3259H0.947354C0.330859 22.6134 0 25.0177 0 27.4999C0 29.9821 0.330859 32.3864 0.947354 34.6738H54.0528C54.6691 32.3864 55 29.9821 55 27.4999H27.5Z" fill="#338AF3"/>
<path d="M27.4999 0C23.6812 0 20.0444 0.779131 16.739 2.18582V13.1522H27.4999C27.4999 10.648 27.4999 8.51812 27.4999 5.97824H44.6183C39.9207 2.23695 33.972 0 27.4999 0Z" fill="#338AF3"/>
</g>
<defs>
<clipPath id="clip0_383_1052">
<rect width="55" height="55" fill="white"/>
</clipPath>
</defs>
</svg>
