<svg width="55" height="55" viewBox="0 0 55 55" fill="none" xmlns="http://www.w3.org/2000/svg">
<g clip-path="url(#clip0_383_1060)">
<path d="M1.71048 17.9348C0.605107 20.914 0 24.1361 0 27.4999C0 30.8638 0.605107 34.0861 1.71048 37.0651L27.5 39.4564L53.2895 37.0651C54.3949 34.0861 55 30.8638 55 27.4999C55 24.1361 54.3949 20.914 53.2895 17.9348L27.5 15.5435L1.71048 17.9348Z" fill="#F0F0F0"/>
<path d="M27.5001 0C15.6762 0 5.59614 7.46281 1.71069 17.9348H53.2898C49.4041 7.46281 39.3242 0 27.5001 0Z" fill="#D80027"/>
<path d="M27.5001 55C39.3242 55 49.4041 47.5372 53.2897 37.0652H1.71069C5.59614 47.5372 15.6762 55 27.5001 55Z" fill="#6DA544"/>
</g>
<defs>
<clipPath id="clip0_383_1060">
<rect width="55" height="55" fill="white"/>
</clipPath>
</defs>
</svg>
