<svg width="83" height="83" viewBox="0 0 83 83" fill="none" xmlns="http://www.w3.org/2000/svg">
<g clip-path="url(#clip0_383_427)">
<path d="M41.2708 82.2484C63.9481 82.2484 82.3317 63.8364 82.3317 41.1242C82.3317 18.4119 63.9481 0 41.2708 0C18.5935 0 0.209961 18.4119 0.209961 41.1242C0.209961 63.8364 18.5935 82.2484 41.2708 82.2484Z" fill="#F0F0F0"/>
<path d="M82.3316 41.1242C82.3316 23.4422 71.1887 8.36842 55.5527 2.55786V79.6906C71.1887 73.8799 82.3316 58.8061 82.3316 41.1242Z" fill="#D80027"/>
<path d="M0.209961 41.1241C0.209961 58.8061 11.3528 73.8799 26.9889 79.6904V2.55786C11.3528 8.36842 0.209961 23.4422 0.209961 41.1241Z" fill="#6DA544"/>
</g>
<defs>
<clipPath id="clip0_383_427">
<rect width="82.1217" height="82.2484" fill="white" transform="translate(0.209961)"/>
</clipPath>
</defs>
</svg>
