<svg width="55" height="55" viewBox="0 0 55 55" fill="none" xmlns="http://www.w3.org/2000/svg">
<g clip-path="url(#clip0_383_1061)">
<path d="M27.5 55C42.6878 55 55 42.6878 55 27.5C55 12.3122 42.6878 0 27.5 0C12.3122 0 0 12.3122 0 27.5C0 42.6878 12.3122 55 27.5 55Z" fill="#F0F0F0"/>
<path d="M27.5 0C15.6759 0 5.59601 7.46281 1.71045 17.9348H53.2896C49.4039 7.46281 39.324 0 27.5 0Z" fill="#A2001D"/>
<path d="M27.5 55C39.324 55 49.4039 47.5372 53.2895 37.0652H1.71045C5.59601 47.5372 15.6759 55 27.5 55Z" fill="#0052B4"/>
</g>
<defs>
<clipPath id="clip0_383_1061">
<rect width="55" height="55" fill="white"/>
</clipPath>
</defs>
</svg>
