<svg width="55" height="55" viewBox="0 0 55 55" fill="none" xmlns="http://www.w3.org/2000/svg">
<g clip-path="url(#clip0_383_1050)">
<path d="M55 27.5C55 39.3239 47.5372 49.4038 37.0654 53.2894L34.674 27.4999L37.0654 1.71045C47.5372 5.59611 55 15.6759 55 27.5Z" fill="#6DA544"/>
<path d="M4.95911e-05 27.5C4.95911e-05 12.3123 12.3123 0 27.5 0C30.8639 0 34.0862 0.605107 37.0654 1.71048V53.2895C34.0862 54.395 30.8639 55 27.5 55C12.3123 55 4.95911e-05 42.6877 4.95911e-05 27.5Z" fill="#D80027"/>
<path d="M37.0652 37.0651C31.7825 37.0651 27.5 32.7827 27.5 27.5C27.5 22.2173 31.7825 17.9348 37.0652 17.9348C42.3479 17.9348 46.6304 22.2173 46.6304 27.5C46.6304 32.7827 42.3479 37.0651 37.0652 37.0651Z" fill="#FFDA44"/>
<path d="M42.4456 22.7173V28.6955C42.4456 31.667 40.0367 34.076 37.0651 34.076C34.0935 34.076 31.6847 31.6671 31.6847 28.6955V22.7173H42.4456Z" fill="#D80027"/>
<path d="M37.0651 30.4892C38.0541 30.4892 38.8586 29.6846 38.8586 28.6957V26.3044H35.2717V28.6958C35.2717 29.6846 36.0763 30.4892 37.0651 30.4892Z" fill="#F0F0F0"/>
</g>
<defs>
<clipPath id="clip0_383_1050">
<rect width="55" height="55" fill="white" transform="matrix(-1 0 0 1 55 0)"/>
</clipPath>
</defs>
</svg>
