<svg width="55" height="55" viewBox="0 0 55 55" fill="none" xmlns="http://www.w3.org/2000/svg">
<g clip-path="url(#clip0_383_1058)">
<path d="M27.5 55C42.6878 55 55 42.6878 55 27.5C55 12.3122 42.6878 0 27.5 0C12.3122 0 0 12.3122 0 27.5C0 42.6878 12.3122 55 27.5 55Z" fill="#F0F0F0"/>
<path d="M53.2895 37.0651C54.395 34.086 55 30.8638 55 27.5C55 24.1362 54.395 20.9139 53.2895 17.9348H1.71048C0.605107 20.9139 0 24.1362 0 27.5C0 30.8638 0.605107 34.086 1.71048 37.0651L27.5 39.4565L53.2895 37.0651Z" fill="#0052B4"/>
<path d="M27.5 55C39.324 55 49.4039 47.5372 53.2895 37.0652H1.71045C5.59601 47.5372 15.6759 55 27.5 55Z" fill="#D80027"/>
</g>
<defs>
<clipPath id="clip0_383_1058">
<rect width="55" height="55" fill="white"/>
</clipPath>
</defs>
</svg>
