<svg width="55" height="55" viewBox="0 0 55 55" fill="none" xmlns="http://www.w3.org/2000/svg">
<g clip-path="url(#clip0_383_1053)">
<path d="M27.5 55C42.6878 55 55 42.6878 55 27.5C55 12.3122 42.6878 0 27.5 0C12.3122 0 0 12.3122 0 27.5C0 42.6878 12.3122 55 27.5 55Z" fill="#FFDA44"/>
<path d="M21.5218 23.9131H54.7672C53.0094 10.4201 41.472 0 27.5 0C25.4467 0 23.4466 0.226982 21.5217 0.653662V23.9131H21.5218Z" fill="#0052B4"/>
<path d="M14.3477 23.913V3.34375C6.79657 7.46381 1.391 15.021 0.232666 23.9131H14.3477V23.913Z" fill="#0052B4"/>
<path d="M14.3476 31.0869H0.232666C1.391 39.979 6.79657 47.5362 14.3477 51.6562L14.3476 31.0869Z" fill="#0052B4"/>
<path d="M21.5217 31.087V54.3463C23.4466 54.773 25.4467 55 27.5 55C41.472 55 53.0094 44.5799 54.7672 31.0869H21.5217V31.087Z" fill="#0052B4"/>
</g>
<defs>
<clipPath id="clip0_383_1053">
<rect width="55" height="55" fill="white"/>
</clipPath>
</defs>
</svg>
