<svg width="55" height="55" viewBox="0 0 55 55" fill="none" xmlns="http://www.w3.org/2000/svg">
<rect width="55" height="55" rx="27.5" fill="#F93939"/>
<path fill-rule="evenodd" clip-rule="evenodd" d="M40.3408 31.7242L36.0802 33.9609L36.8942 29.2199L33.4475 25.8575L38.2142 25.1609L40.3408 20.8489L42.4675 25.1645L47.2342 25.8612L43.7875 29.2162L44.6015 33.9572" fill="white"/>
<path fill-rule="evenodd" clip-rule="evenodd" d="M23.8333 40.3334C30.921 40.3334 36.6667 34.5877 36.6667 27.5001C36.6667 20.4124 30.921 14.6667 23.8333 14.6667C16.7457 14.6667 11 20.4124 11 27.5001C11 34.5877 16.7457 40.3334 23.8333 40.3334ZM27.5 36.6667C32.56 36.6667 36.6667 32.5601 36.6667 27.5001C36.6667 22.4401 32.56 18.3334 27.5 18.3334C22.44 18.3334 18.3333 22.4401 18.3333 27.5001C18.3333 32.5601 22.44 36.6667 27.5 36.6667Z" fill="white"/>
</svg>
