<svg width="55" height="55" viewBox="0 0 55 55" fill="none" xmlns="http://www.w3.org/2000/svg">
<g clip-path="url(#clip0_383_1059)">
<path d="M27.5 55C42.6878 55 55 42.6878 55 27.5C55 12.3122 42.6878 0 27.5 0C12.3122 0 0 12.3122 0 27.5C0 42.6878 12.3122 55 27.5 55Z" fill="#F0F0F0"/>
<path d="M15.5435 37.0652L17.9348 53.2898C20.9138 54.3952 24.1361 55 27.4999 55C39.3239 55 49.4039 47.5372 53.2894 37.0652H15.5435Z" fill="black"/>
<path d="M15.5435 17.9348L17.9348 1.71026C20.9138 0.604785 24.1361 0 27.4999 0C39.3239 0 49.4039 7.46281 53.2894 17.9348H15.5435Z" fill="#6DA544"/>
<path d="M0 27.5C0 39.324 7.46292 49.4039 17.9348 53.2895V1.71045C7.46292 5.59601 0 15.6759 0 27.5Z" fill="#A2001D"/>
</g>
<defs>
<clipPath id="clip0_383_1059">
<rect width="55" height="55" fill="white"/>
</clipPath>
</defs>
</svg>
