<svg width="163" height="27" viewBox="0 0 163 27" fill="none" xmlns="http://www.w3.org/2000/svg">
<path d="M8.32227 15.231L10.8537 13.2798V20.9427H8.32227V15.231Z" fill="white"/>
<path d="M19.1757 0.781442L17.0371 2.82266C16.6799 2.73268 16.3004 2.68532 15.9165 2.68532C14.1217 2.68532 12.4296 3.7225 11.5322 5.3659C10.9563 6.42677 10.8536 7.53026 10.8536 8.72847V9.01737L8.32211 11.4327V8.72847C8.32211 7.69602 8.26407 6.72987 7.84439 5.77793C7.47383 4.93492 6.89342 4.20084 6.17461 3.66567C5.32633 3.02631 4.29946 2.68532 3.2592 2.68532C2.87524 2.68532 2.49574 2.73268 2.13857 2.82266L0 0.781442C0.986688 0.279425 2.09392 0 3.2592 0C5.20578 0 6.97825 0.77197 8.32211 2.05069C8.80429 2.50535 9.22844 3.03105 9.58561 3.6041C9.94278 3.03105 10.3714 2.50535 10.8536 2.05069C12.1974 0.77197 13.9699 0 15.9165 0C17.0818 0 18.189 0.279425 19.1757 0.781442Z" fill="white"/>
<path d="M17.2337 7.24609L5.23716 16.3771H4.40674L14.1174 7.24609H17.2337Z" fill="#FDBF4E"/>
<path d="M28.0468 6.64942L26.8682 8.91797C26.6405 8.79957 26.3771 8.70011 26.0645 8.6196C25.7565 8.53909 25.4618 8.5012 25.1805 8.5012C24.7296 8.5012 24.2831 8.59118 23.8456 8.76642C23.4036 8.94638 23.0062 9.22581 22.6491 9.60469C22.2919 9.98357 22.0196 10.4903 21.832 11.1249C21.7561 11.4044 21.6981 11.769 21.649 12.2142C21.6043 12.6642 21.582 13.2751 21.582 14.0518V20.9427H19.189V6.23265H21.582V8.51541C21.6802 8.34965 21.7874 8.18862 21.9035 8.03707C22.3991 7.39297 22.9795 6.89096 23.6492 6.53102C24.3144 6.17108 24.9662 5.99585 25.6002 5.99585C26.0333 5.99585 26.444 6.04321 26.8414 6.14267C27.2343 6.24212 27.6361 6.41262 28.0468 6.64942Z" fill="white"/>
<path d="M40.2576 7.48769C39.262 6.49313 37.8556 5.99585 36.0385 5.99585C34.8554 5.99585 33.766 6.21844 32.7749 6.66363C31.7793 7.11355 30.8997 7.81448 30.1318 8.76642L31.8462 10.3198C32.4668 9.54312 33.1008 8.99375 33.7571 8.66222C34.4134 8.33544 35.1188 8.16968 35.8689 8.16968C37.0297 8.16968 37.9092 8.48226 38.4986 9.09794C39.0879 9.71362 39.3826 10.5898 39.3826 11.7217V12.2616H35.1099C34.4134 12.2616 33.7526 12.3232 33.1276 12.4558C32.4981 12.5836 31.94 12.8157 31.4533 13.1567C30.9667 13.474 30.5649 13.9145 30.2568 14.4828C29.9487 15.0511 29.7925 15.7426 29.7925 16.5572C29.7925 17.4712 30.0023 18.2763 30.4265 18.9725C30.8461 19.6687 31.4489 20.2134 32.2257 20.597C33.0026 20.9853 33.9178 21.1795 34.967 21.1795C36.0162 21.1795 36.8377 20.9569 37.5967 20.5117C38.3378 20.076 38.945 19.4698 39.4227 18.6836L39.5522 20.9427H41.7488V11.7217C41.7488 9.89359 41.2488 8.48226 40.2576 7.48769ZM39.3826 14.7338C39.3826 15.5721 39.1906 16.3204 38.8066 16.9881C38.4227 17.6559 37.9181 18.1769 37.2886 18.5558C36.6591 18.9346 35.9626 19.1241 35.1947 19.1241C34.275 19.1241 33.5428 18.892 32.9981 18.4374C32.4534 17.978 32.1855 17.3623 32.1855 16.5856C32.1855 16.1877 32.2525 15.842 32.3954 15.5436C32.5338 15.2453 32.7258 14.9943 32.9713 14.7954C33.3106 14.5349 33.7035 14.3691 34.1544 14.2886C34.6009 14.2081 35.034 14.1702 35.4447 14.1702H39.3826V14.7338Z" fill="white"/>
<path d="M57.2993 11.6033V20.9427H54.9107V12.5268C54.9107 11.035 54.6517 9.93621 54.1383 9.23055C53.6204 8.52488 52.8391 8.16968 51.7899 8.16968C51.0175 8.16968 50.3701 8.35912 49.8344 8.738C49.2986 9.11688 48.8923 9.70888 48.6111 10.514C48.3298 11.3191 48.1869 12.3468 48.1869 13.6019V20.9427H45.7983V6.23265H48.1869V8.36386C48.3387 8.10811 48.5084 7.86657 48.6959 7.64872C49.1468 7.12302 49.6871 6.71572 50.3255 6.42683C50.9639 6.13793 51.6649 5.99585 52.4373 5.99585C53.9553 5.99585 55.1429 6.46471 56.009 7.41192C56.8707 8.35438 57.2993 9.75151 57.2993 11.6033Z" fill="white"/>
<path d="M70.7334 14.5396C70.4253 14.0139 70.0145 13.5924 69.51 13.2751C69.0011 12.9578 68.4475 12.6973 67.8492 12.4984C67.2509 12.2995 66.6571 12.129 66.0767 11.9916C65.4383 11.8306 64.9025 11.6649 64.4605 11.4849C64.0185 11.3049 63.6881 11.0871 63.4604 10.8266C63.2372 10.5708 63.1256 10.2298 63.1256 9.81307C63.1256 9.25423 63.3667 8.81851 63.8533 8.5012C64.3444 8.18389 64.9516 8.02286 65.6838 8.02286C66.416 8.02286 67.0857 8.17915 67.6929 8.48699C68.3046 8.79483 68.7957 9.29685 69.1707 9.99304L70.6887 8.79957C70.2021 7.86184 69.5234 7.16091 68.6528 6.69678C67.7778 6.22791 66.8179 5.99585 65.7687 5.99585C64.3221 5.99585 63.1568 6.36526 62.2684 7.11355C61.3754 7.8571 60.929 8.83746 60.929 10.0499C60.929 10.7461 61.0629 11.3333 61.3219 11.8117C61.5853 12.29 61.9335 12.6784 62.3666 12.9767C62.7952 13.2751 63.2774 13.5214 63.8131 13.7203C64.3489 13.9192 64.8757 14.0897 65.4026 14.227C66.0231 14.3881 66.5946 14.568 67.117 14.7669C67.6438 14.9659 68.0635 15.2216 68.3849 15.5436C68.7019 15.861 68.8627 16.2967 68.8627 16.8555C68.8627 17.5328 68.5993 18.0679 68.0724 18.4658C67.5501 18.8636 66.8446 19.0625 65.9651 19.0625C64.9918 19.0625 64.1525 18.821 63.447 18.3332C62.7461 17.8453 62.2148 17.2202 61.8576 16.4672L60.1968 17.959C60.5182 18.5179 60.9424 19.0436 61.4781 19.5408C62.0139 20.0381 62.6568 20.4359 63.4069 20.7343C64.1569 21.0327 65.0007 21.1795 65.9383 21.1795C67.0054 21.1795 67.934 20.9901 68.7198 20.6159C69.51 20.237 70.1172 19.6971 70.5503 19.0009C70.9789 18.3047 71.1977 17.4996 71.1977 16.5856C71.1977 15.752 71.0414 15.07 70.7334 14.5396Z" fill="white"/>
<path d="M79.493 18.6126V20.7627C79.176 20.9048 78.8367 21.0042 78.4795 21.0753C78.1224 21.1463 77.8054 21.1795 77.5241 21.1795C76.6803 21.1795 75.9972 20.9048 75.4703 20.3459C74.948 19.7871 74.6846 18.9015 74.6846 17.689V0.146851H77.0464V17.2107C77.0464 17.7885 77.158 18.2053 77.3857 18.4657C77.6089 18.7262 77.908 18.8541 78.2831 18.8541C78.4527 18.8541 78.6403 18.8352 78.8456 18.7925C79.051 18.7546 79.2698 18.6931 79.493 18.6126Z" fill="white"/>
<path d="M92.1815 7.48769C91.1858 6.49313 89.7795 5.99585 87.9579 5.99585C86.7792 5.99585 85.6899 6.21844 84.6987 6.66363C83.7031 7.11355 82.8235 7.81448 82.0512 8.76642L83.7701 10.3198C84.3862 9.54312 85.0246 8.99375 85.6809 8.66222C86.3372 8.33544 87.0426 8.16968 87.7927 8.16968C88.9535 8.16968 89.8286 8.48226 90.4224 9.09794C91.0117 9.71362 91.3064 10.5898 91.3064 11.7217V12.2616H87.0337C86.3372 12.2616 85.6765 12.3232 85.0469 12.4558C84.4219 12.5836 83.8638 12.8157 83.3772 13.1567C82.886 13.474 82.4887 13.9145 82.1806 14.4828C81.8726 15.0511 81.7163 15.7426 81.7163 16.5572C81.7163 17.4712 81.9261 18.2763 82.3503 18.9725C82.77 19.6687 83.3682 20.2134 84.1495 20.597C84.9264 20.9853 85.8416 21.1795 86.8908 21.1795C87.94 21.1795 88.7615 20.9569 89.5205 20.5117C90.2572 20.076 90.8688 19.4698 91.3466 18.6836L91.476 20.9427H93.6682V11.7217C93.6682 9.89359 93.1726 8.48226 92.1815 7.48769ZM91.3064 14.7338C91.3064 15.5721 91.1144 16.3204 90.7304 16.9881C90.3465 17.6559 89.8375 18.1769 89.2125 18.5558C88.5829 18.9346 87.8865 19.1241 87.1141 19.1241C86.1988 19.1241 85.4666 18.892 84.9219 18.4374C84.3772 17.978 84.1049 17.3623 84.1049 16.5856C84.1049 16.1877 84.1763 15.842 84.3192 15.5436C84.4576 15.2453 84.6496 14.9943 84.8951 14.7954C85.23 14.5349 85.6273 14.3691 86.0738 14.2886C86.5247 14.2081 86.9578 14.1702 87.3686 14.1702H91.3064V14.7338Z" fill="white"/>
<path d="M102.446 8.20276C101.79 8.20276 101.263 8.76634 101.263 9.4578V16.5239C101.263 17.3433 101.388 17.9731 101.629 18.4183C101.874 18.8683 102.312 19.0908 102.95 19.0908C103.138 19.0908 103.366 19.0672 103.625 19.0151C103.888 18.9677 104.169 18.9014 104.473 18.8256V20.7911C104.116 20.9332 103.754 21.0326 103.388 21.0894C103.022 21.151 102.669 21.1794 102.334 21.1794C101.678 21.1794 101.08 21.0468 100.548 20.7769C100.013 20.5116 99.5929 20.0759 99.2938 19.4792C98.9947 18.8825 98.8429 18.12 98.8429 17.1822V9.4578C98.8429 8.76161 98.3116 8.20276 97.6597 8.20276H95.9766V6.23258H98.8429V2.29221L101.263 0.861938V6.23258H104.473V8.20276H102.446Z" fill="white"/>
<path d="M118.76 10.4382C118.514 9.60469 118.144 8.84693 117.648 8.16968C117.153 7.49717 116.514 6.962 115.737 6.57364C114.956 6.19003 114.036 5.99585 112.965 5.99585C111.893 5.99585 110.996 6.20423 110.21 6.621C109.42 7.03777 108.768 7.60609 108.255 8.32123C107.737 9.03637 107.348 9.8557 107.085 10.784C106.821 11.7075 106.692 12.6784 106.692 13.6919C106.692 14.7054 106.83 15.6668 107.103 16.5714C107.371 17.4759 107.777 18.2763 108.308 18.9725C108.844 19.6687 109.518 20.2134 110.335 20.597C111.152 20.9853 112.103 21.1795 113.188 21.1795C113.96 21.1795 114.657 21.0895 115.286 20.9143C115.916 20.7343 116.51 20.4596 117.072 20.0902C117.635 19.7255 118.171 19.2519 118.675 18.6742L117.014 17.1207C116.492 17.7412 115.929 18.1863 115.327 18.4658C114.728 18.7452 114.023 18.8825 113.219 18.8825C111.96 18.8825 110.969 18.4847 110.237 17.6891C109.505 16.8934 109.112 15.7804 109.054 14.3502H119.041C119.077 14.1276 119.099 13.8766 119.113 13.5877C119.121 13.2988 119.126 13.1141 119.126 13.0336C119.126 12.1385 119.001 11.2765 118.76 10.4382ZM116.836 12.47H109.027C109.085 11.6743 109.272 10.945 109.589 10.2914C109.906 9.63311 110.357 9.10741 110.938 8.70958C111.523 8.31176 112.215 8.11285 113.023 8.11285C113.679 8.11285 114.246 8.22651 114.724 8.45384C115.202 8.6859 115.594 8.99374 115.902 9.3821C116.215 9.77045 116.447 10.2014 116.608 10.6798C116.769 11.1534 116.845 11.6317 116.845 12.11C116.845 12.2332 116.84 12.3516 116.836 12.47Z" fill="white"/>
<path d="M134.645 9.64731C134.064 8.50594 133.274 7.61083 132.269 6.962C131.265 6.3179 130.109 5.99585 128.796 5.99585C127.483 5.99585 126.318 6.3179 125.296 6.962C124.273 7.61083 123.474 8.50594 122.903 9.64731C122.331 10.7934 122.045 12.1006 122.045 13.5735C122.045 15.0464 122.336 16.3582 122.916 17.5091C123.496 18.6647 124.3 19.5645 125.322 20.2134C126.345 20.8575 127.501 21.1795 128.796 21.1795C130.091 21.1795 131.243 20.8527 132.256 20.1944C133.27 19.5408 134.064 18.641 134.645 17.4949C135.23 16.3535 135.52 15.0464 135.52 13.5735C135.52 12.1006 135.23 10.7934 134.645 9.64731ZM132.595 16.3914C132.238 17.1965 131.734 17.8264 131.086 18.2716C130.443 18.7168 129.676 18.9441 128.796 18.9441C127.916 18.9441 127.117 18.7168 126.461 18.2716C125.805 17.8264 125.3 17.1965 124.943 16.3914C124.586 15.5863 124.407 14.6485 124.407 13.5735C124.407 12.4984 124.586 11.5322 124.943 10.7366C125.3 9.94095 125.805 9.32053 126.461 8.87534C127.117 8.42542 127.894 8.20283 128.796 8.20283C129.698 8.20283 130.443 8.42069 131.086 8.8564C131.734 9.29685 132.238 9.91727 132.595 10.7224C132.948 11.5275 133.127 12.4794 133.127 13.5735C133.127 14.6675 132.948 15.5863 132.595 16.3914Z" fill="white"/>
<path d="M147.954 6.64942L146.775 8.91797C146.548 8.79957 146.28 8.70011 145.972 8.6196C145.664 8.53909 145.369 8.5012 145.088 8.5012C144.637 8.5012 144.19 8.59118 143.748 8.76642C143.311 8.94638 142.909 9.22581 142.556 9.60469C142.199 9.98357 141.927 10.4903 141.739 11.1249C141.663 11.4044 141.601 11.769 141.556 12.2142C141.507 12.6642 141.485 13.2751 141.485 14.0518V20.9427H139.096V6.23265H141.485V8.52014C141.583 8.35438 141.69 8.19336 141.811 8.03707C142.306 7.39297 142.887 6.89096 143.552 6.53102C144.217 6.17108 144.869 5.99585 145.507 5.99585C145.941 5.99585 146.351 6.04321 146.744 6.14267C147.137 6.24212 147.543 6.41262 147.954 6.64942Z" fill="white"/>
<path d="M163 6.23267L155.013 27.0001H152.428L155.066 20.2276L149.673 6.23267H152.285L156.334 17.6891L160.41 6.23267H163Z" fill="white"/>
</svg>
