<svg width="87" height="60" viewBox="0 0 87 60" fill="none" xmlns="http://www.w3.org/2000/svg">
<path d="M8.01712 21.3793C7.5911 21.1248 7.17547 20.9793 6.75985 20.6832C5.74156 19.9558 4.79082 19.1609 4.32324 17.9608C4.85836 17.5972 4.65574 16.9425 4.78563 16.3243C5.07656 14.9527 6.41176 10.2666 6.34422 9.30542C8.45352 11.9602 11.7006 13.3474 14.7243 14.7189C13.9917 17.8309 12.8851 21.078 13.7735 24.2835C11.8772 23.2808 9.85107 22.4911 8.01192 21.3742L8.01712 21.3793Z" fill="#A02842"/>
<path d="M6.34426 9.30537C6.417 10.2665 5.07661 14.9527 4.78567 16.3243C4.65579 16.9425 4.8584 17.5971 4.32328 17.9608C3.55438 15.9917 5.25844 10.5263 5.83512 8.30267C6.18321 8.40658 6.32348 8.96248 6.34946 9.30537H6.34426Z" fill="#8B1833"/>
<path d="M11.3418 10.9887C12.8173 11.742 14.1681 12.272 15.6851 12.9058C15.9137 12.9993 16.1319 13.1188 16.3553 13.2175C16.0644 14.6202 17.4359 14.4436 18.6101 14.8177C17.758 16.688 15.9085 22.2885 15.5033 24.3303C15.2435 25.6395 14.6409 31.5518 14.6461 32.7675C13.4823 32.6948 12.2926 32.5649 11.16 32.2843C10.8067 32.196 10.5054 32.035 10.1781 31.9362C10.3755 31.9051 10.4223 31.9311 10.4015 31.6869C10.2092 29.0736 9.31046 23.6237 8.01163 21.3794C9.85077 22.4912 11.8769 23.286 13.7732 24.2887C12.8796 21.0832 13.9862 17.8361 14.724 14.7241C11.7003 13.3526 8.45323 11.9654 6.34393 9.31062C6.31795 8.96773 6.17768 8.41183 5.82959 8.30792C6.73358 4.78549 5.9283 6.85323 7.55444 8.70277C8.48959 9.76261 10.1365 10.3757 11.3418 10.9887Z" fill="#511529"/>
<path d="M8.01713 21.3794C9.31596 23.6238 10.2148 29.0685 10.407 31.6869C10.4226 31.9311 10.381 31.9051 10.1836 31.9363C8.37042 31.3856 6.71311 30.6323 4.99865 29.8426L5.17529 29.349C4.65576 28.9646 1.31517 26.6578 1.18529 26.45C1.12814 26.3565 1.46583 26.263 1.34114 26.1123C3.15951 24.3251 5.18568 22.6159 6.76506 20.6832C7.18069 20.9794 7.59631 21.1248 8.02233 21.3794H8.01713Z" fill="#A02842"/>
<path d="M1.33057 26.1124C1.45006 26.2631 1.11237 26.3514 1.17471 26.4501C1.30459 26.6579 4.64518 28.9646 5.16472 29.3491L4.98808 29.8426C3.32557 29.0737 1.70463 28.2321 0.0265435 27.4995C-0.186465 27.1255 0.94092 26.4969 1.32537 26.1176L1.33057 26.1124Z" fill="#8B1833"/>
<path d="M32.4351 2.01649C32.2429 3.08672 35.3653 1.95414 36.607 1.67359C36.7317 1.64242 36.7005 1.4502 36.7109 1.4502C38.5292 1.03976 40.6593 0.598162 42.5244 0.509842C43.3297 0.473475 45.9793 0.64492 46.821 0.769608C50.0577 1.24238 53.8347 2.83735 54.2139 2.80617L54.349 2.97762C54.0373 2.94125 52.9359 2.97762 53.2268 3.51793C53.3255 3.69457 54.5516 3.59067 54.6036 4.18813C53.497 3.71536 52.1358 3.30492 50.9668 2.98282C47.8444 2.12039 44.4155 1.56969 41.184 1.85023C32.2117 2.63992 24.2057 8.19372 19.9871 16.1166C17.2544 21.2444 16.5894 26.8086 16.7141 32.5338C16.7816 35.6198 16.9375 37.4746 18.1636 40.4099C18.7922 41.9166 19.6858 43.6102 20.6314 44.9402C22.4913 47.5795 24.824 49.9329 27.4684 51.7877C29.9673 53.5385 32.9183 54.7594 35.8381 55.5855C36.4719 55.7673 37.1836 55.9907 37.8227 56.131L37.3551 56.7856C35.3705 56.4063 33.5989 55.9439 31.7182 55.1906C27.7697 53.6008 23.9979 51.1694 21.1873 47.9535C19.93 46.5144 19.1039 44.774 17.7376 43.4232C15.9036 40.1709 14.6619 36.5186 14.6411 32.7624C14.636 31.5467 15.2386 25.6344 15.4984 24.3252C15.9036 22.2834 17.7531 16.6777 18.6052 14.8126C21.3119 8.86911 26.4813 4.51024 32.4351 2.01649Z" fill="#DCC070"/>
<path d="M49.2106 56.9727C48.769 57.4558 49.8808 56.9987 49.6366 57.6896L50.0522 57.5026C51.8914 59.0456 58.9414 55.4764 60.8118 54.2607C61.191 54.0113 61.5235 53.6684 61.8924 53.4035C63.5549 52.2034 65.0927 50.8474 66.4902 49.3355C67.6748 48.0523 68.8437 45.9066 69.1347 46.5353C69.0463 46.6755 69.1191 46.6859 69.1191 46.6911C63.7575 54.8166 53.0915 60.6614 43.2256 59.747C43.7139 59.7002 44.9089 59.6535 44.8517 58.9521C44.8154 58.5157 43.8334 57.6117 43.4074 57.487C45.3401 57.3779 47.3039 57.3623 49.2106 56.9779V56.9727Z" fill="#7C452A"/>
<path d="M31.7182 55.1906C33.5989 55.9439 35.3705 56.4063 37.3551 56.7855C39.7709 57.2479 43.0076 57.3726 43.4077 57.4869C43.8337 57.6064 44.8156 58.5156 44.852 58.952C44.9091 59.6534 43.7142 59.7053 43.2258 59.7469C40.0307 60.0378 33.6041 58.2143 30.7778 56.4998C33.6145 57.6012 31.687 56.3336 31.4896 55.44C31.4636 55.3309 31.6455 55.2581 31.713 55.1906H31.7182Z" fill="#92592F"/>
<path d="M31.7181 55.1906C31.6454 55.2582 31.4687 55.3309 31.4947 55.44C31.6869 56.3336 33.6196 57.5961 30.7829 56.4999C25.1512 54.3178 20.6261 48.5406 17.7427 43.4284C19.1039 44.7792 19.9351 46.5197 21.1924 47.9588C24.003 51.1695 27.7748 53.6061 31.7233 55.1958L31.7181 55.1906Z" fill="#AF712B"/>
<path d="M77.5716 28.71C78.5587 29.0373 79.5562 29.4789 80.5017 29.9153C82.5539 30.8609 84.4969 32.1285 86.5439 33.0897L79.7796 38.524C80.8031 40.2488 80.5381 53.0865 80.2835 53.9229C80.2835 53.9333 80.1329 53.871 80.0861 53.9385C77.743 52.0786 75.1609 50.5771 72.636 48.9874C72.2048 48.7172 71.7424 48.4834 71.3112 48.2029C71.0203 47.6314 72.2671 46.6806 73.0724 45.5377C74.4803 43.5323 75.7636 41.2619 76.813 39.0487C77.8313 36.8979 76.8598 36.1653 79.3795 37.9317L79.6964 37.8902C79.7328 37.7811 79.5614 37.7187 79.6913 37.6148C81.5044 36.1082 83.4423 34.7522 85.1983 33.178C83.7436 32.3883 82.185 31.7337 80.7407 30.9336C79.8835 30.4608 78.7041 29.5205 77.9664 29.3958C77.8417 29.1256 77.7742 28.8555 77.4313 28.9023L77.5716 28.7204V28.71Z" fill="#511529"/>
<path d="M73.7065 28.1074C74.7351 28.1178 75.9041 28.1282 76.8964 28.3983C76.9327 28.4087 77.1925 28.5854 77.5666 28.7101L77.4263 28.8919C77.764 28.8451 77.8367 29.1153 77.9614 29.3855C79.042 31.7597 79.1044 35.0691 79.6863 37.6096C79.5616 37.7136 79.7278 37.7759 79.6915 37.885L79.3745 37.9266C76.8496 36.1602 77.8211 36.8979 76.8081 39.0436C75.7638 41.2568 74.4754 43.5323 73.0674 45.5325C72.2622 46.6755 71.0101 47.6314 71.3062 48.1977C70.5633 47.7145 69.8827 47.1431 69.119 46.6859C69.119 46.6807 69.0462 46.6703 69.1346 46.53C72.153 41.8854 73.6285 37.433 73.7376 31.8792C73.7636 30.6167 73.5246 29.3543 73.7013 28.097L73.7065 28.1074Z" fill="#391622"/>
<path d="M79.6863 37.6044C79.1044 35.0691 79.0421 31.7545 77.9614 29.3802C78.694 29.5101 79.8785 30.4453 80.7357 30.9181C82.1852 31.7181 83.7386 32.3728 85.1933 33.1624C83.4373 34.7366 81.4994 36.0926 79.6863 37.5992V37.6044Z" fill="#751832"/>
<path d="M73.7429 31.8844C73.6338 37.4382 72.1583 41.8906 69.1398 46.5353C68.8489 45.9118 67.6852 48.0575 66.4954 49.3355C65.0927 50.8474 63.5601 52.2034 61.8976 53.4035C60.9832 52.1514 61.0299 53.1645 59.7935 52.5307C65.7837 48.2757 68.9892 42.3063 70.2932 35.1783C70.4335 34.4146 70.6465 33.6457 70.7192 32.8664C71.7895 32.804 70.5114 31.765 72.1375 31.8117C73.9039 33.3911 72.9584 32.7209 73.7429 31.8793V31.8844Z" fill="#5D2D25"/>
<path d="M70.3402 16.3868C70.3558 16.4179 70.3922 16.4439 70.4078 16.4751C72.4339 20.1949 73.1561 23.9719 73.7068 28.1022C73.5302 29.3543 73.7691 30.622 73.7432 31.8844C72.9587 32.7261 73.9042 33.3963 72.1378 31.8169C70.5117 31.7701 71.7897 32.8092 70.7195 32.8715C71.1715 27.9516 70.122 20.7924 67.8257 16.4127C68.7608 16.2205 68.818 17.9713 69.4155 17.9713C71.0416 17.9713 68.9687 15.3217 70.3454 16.3868H70.3402Z" fill="#5D2D25"/>
<path d="M41.1838 1.85031C39.0589 2.29191 36.9652 2.7543 34.9026 3.44528C35.4533 6.16762 35.3546 4.54668 37.0639 4.83762C26.1122 7.71583 18.7036 18.2935 18.6465 29.4531C18.0906 29.718 18.6984 32.2585 18.688 33.5106L16.7138 32.5339C16.5891 26.8086 17.2593 21.2444 19.9869 16.1167C24.2055 8.1938 32.2115 2.64 41.1838 1.85031Z" fill="#391622"/>
<path d="M41.184 1.8503C44.4155 1.56456 47.8392 2.12046 50.9668 2.98288C50.8992 4.28171 51.6318 4.65578 51.6681 4.75449C51.798 5.09738 51.3149 4.69734 51.3876 5.47144C46.6962 3.82453 41.8957 3.56995 37.0641 4.83761C35.3548 4.54668 35.4535 6.16762 34.9028 3.44527C36.9654 2.75429 39.0539 2.29191 41.184 1.8503Z" fill="#5D2D25"/>
<path d="M70.3401 16.3867C68.9633 15.3217 71.0362 17.9713 69.4101 17.9713C68.8126 17.9713 68.7555 16.2205 67.8203 16.4127C67.0878 15.0151 66.2773 13.7215 65.3681 12.4331C63.0926 9.19119 60.5884 6.09478 57.0868 4.12056C56.5569 3.82442 54.8788 3.03993 54.3489 2.97759L54.2138 2.80614C54.2813 2.80095 54.4372 2.49962 55.4087 2.35415C54.0891 2.02165 52.811 1.37743 51.5122 0.998169C59.5026 2.31259 66.5838 9.61201 70.3401 16.3919V16.3867Z" fill="#7C452A"/>
<path d="M38.7523 56.2401C39.2927 56.344 39.8278 56.4271 40.3733 56.505C43.6048 56.9674 45.314 56.9778 48.5767 56.6297L52.1719 55.4712C57.7776 52.9462 62.2456 50.6863 65.7109 45.1584C66.2408 44.3168 66.5993 43.3401 67.0097 42.4361C67.0201 42.4101 67.15 42.2906 67.3058 41.9218C67.4149 42.0361 67.9345 41.9841 67.9708 41.9581C68.1527 41.8282 69.4099 38.2487 69.5606 37.7343C69.7996 36.9239 69.9866 35.1678 70.2879 35.1834C68.9839 42.3062 65.7784 48.2808 59.7882 52.5358C56.8788 54.6035 52.7122 56.2712 49.2053 56.9778C47.2986 57.3623 45.3348 57.3778 43.4022 57.4869C43.0021 57.3726 39.7654 57.248 37.3496 56.7856L37.8172 56.131C37.9419 56.1569 38.3627 56.1621 38.7472 56.2401H38.7523Z" fill="#E7D69B"/>
<path d="M50.9668 2.98294C52.1357 3.30505 53.4969 3.71548 54.6035 4.18826C59.0559 6.10013 60.2768 7.70029 63.0251 11.6124C63.0459 11.6435 63.0875 11.7994 63.42 12.2878C63.0615 12.5423 63.8304 12.693 63.1758 13.0463C62.5264 12.2878 61.8042 11.5812 61.0613 10.9162C58.7546 8.83287 56.0946 7.44572 53.2631 6.24041C52.6345 5.97025 52.037 5.70009 51.3876 5.4715C51.3097 4.6974 51.7981 5.09744 51.6682 4.75455C51.6318 4.65583 50.8993 4.28177 50.9668 2.98294Z" fill="#5D2D25"/>
<path d="M28.549 49.2366C29.4218 49.8549 30.3362 50.3744 31.2662 50.8887C32.2273 51.4186 33.3183 51.9693 34.3158 52.4213C34.1912 53.3929 35.7757 52.3486 35.8381 55.5853C32.9131 54.7592 29.9622 53.5383 27.4684 51.7875C26.8034 50.8835 27.4684 51.0913 27.4684 50.8056C27.4684 50.5978 27.1982 50.4419 27.2034 50.3796C27.3177 49.2418 27.3905 48.7846 28.5542 49.2366H28.549Z" fill="#92592F"/>
<path d="M21.904 42.0985C22.6366 43.309 23.4107 44.4572 24.3406 45.5274C25.5667 46.9405 27.037 48.1614 28.5541 49.2369C27.3903 48.7849 27.3176 49.2369 27.2033 50.3798C27.1981 50.4422 27.463 50.598 27.4682 50.8058C27.4734 51.0916 26.8084 50.889 27.4682 51.7878C24.8238 49.933 22.4911 47.5795 20.6312 44.9403C21.0312 44.7533 19.9974 44.1039 20.3351 43.7662C20.3766 43.7246 20.9897 43.8649 21.4572 43.5791C22.5587 42.9141 21.6754 42.3323 21.904 42.0985Z" fill="#7C452A"/>
<path d="M18.6467 29.4529C18.6467 30.0088 18.6571 30.5543 18.6935 31.1102C18.8805 34.0664 19.4935 36.9653 20.6937 39.6773C19.7169 40.1813 18.761 39.3552 18.1687 40.4098C16.9426 37.4745 16.7868 35.6198 16.7192 32.5337L18.6935 33.5105C18.7039 32.2584 18.0908 29.7231 18.6519 29.4529H18.6467Z" fill="#5D2D25"/>
<path d="M54.3487 2.97767C54.8786 3.04001 56.5567 3.8245 57.0866 4.12064C60.5935 6.09486 63.0924 9.19127 65.368 12.4332L63.8717 10.7291C63.586 11.3525 63.4976 11.2382 63.0197 11.6123C60.2714 7.70022 59.0453 6.10006 54.5981 4.18818C54.5461 3.59072 53.3148 3.69462 53.2213 3.51798C52.9304 2.98286 54.0318 2.9413 54.3435 2.97767H54.3487Z" fill="#D1AB5E"/>
<path d="M20.6885 39.6775C21.073 40.5399 21.4107 41.2828 21.9042 42.0985C21.6756 42.3323 22.5588 42.9141 21.4574 43.5791C20.9898 43.8649 20.3768 43.7246 20.3352 43.7662C19.9975 44.1039 21.0314 44.7533 20.6314 44.9403C19.691 43.6051 18.7974 41.9166 18.1636 40.41C18.7558 39.3553 19.7118 40.1814 20.6885 39.6775Z" fill="#5D2D25"/>
<path d="M42.0204 0.0579224C42.4257 0.151438 42.3685 0.141048 42.5192 0.509915C40.6593 0.598236 38.524 1.03984 36.7056 1.45027C36.6952 1.45027 36.7264 1.64769 36.6017 1.67367C35.36 1.95941 32.2377 3.0868 32.4299 2.01656C35.9263 0.551478 38.3006 0.224173 42.0152 0.0579224H42.0204Z" fill="#D1AB5E"/>
<path d="M51.512 0.998133C52.8056 1.3722 54.0889 2.01642 55.4085 2.35411C54.437 2.49958 54.2811 2.80091 54.2136 2.8061C53.8291 2.83728 50.0573 1.24231 46.8206 0.769539L46.4258 0.0941467C48.1714 0.250006 49.8235 0.504577 51.512 0.998133Z" fill="#92592F"/>
<path d="M37.3187 53.7099C36.9862 54.2918 38.7422 55.1698 38.7578 56.2349C38.3733 56.1621 37.9525 56.1569 37.8278 56.1257C37.1888 55.9855 36.4822 55.7621 35.8432 55.5802C35.7808 52.3384 34.1963 53.3826 34.321 52.4163C34.9236 52.6864 36.8926 53.5593 37.3187 53.7047V53.7099Z" fill="#AF712B"/>
<path d="M46.4209 0.0942082L46.8158 0.7696C45.9741 0.644912 43.3245 0.473467 42.5193 0.509834C42.3686 0.140966 42.4257 0.151357 42.0205 0.057841C43.5427 -0.00969819 44.8987 -0.0408701 46.4209 0.0942082Z" fill="#AF712B"/>
<path d="M49.2107 56.9727C52.7176 56.2661 56.879 54.5984 59.7936 52.5307C61.0249 53.1645 60.9833 52.1514 61.8977 53.4035C61.5288 53.6685 61.1963 54.0166 60.8171 54.2607C58.952 55.4764 51.8967 59.0456 50.0576 57.5026L49.6419 57.6897C49.8809 56.9987 48.7691 57.4559 49.2159 56.9727H49.2107Z" fill="#5D2D25"/>
<path d="M65.3683 12.4329C66.2723 13.7214 67.088 15.015 67.8205 16.4126C70.1168 20.7922 71.1663 27.9566 70.7143 32.8713C70.6416 33.6506 70.4285 34.4144 70.2883 35.1833C69.9869 35.1677 69.7999 36.9237 69.5609 37.7342C69.4103 38.2485 68.153 41.8229 67.9712 41.958C67.9348 41.9839 67.4153 42.0307 67.3062 41.9216C69.5246 36.638 69.3531 31.3387 68.6206 25.7901C68.34 23.686 68.1946 21.8053 67.5088 19.7635C66.5632 16.9477 65.0774 14.7293 63.4149 12.2875C63.0824 11.7991 63.0408 11.6433 63.02 11.6121C63.498 11.2328 63.5811 11.3471 63.8721 10.7289L65.3683 12.4329Z" fill="#DCC070"/>
<path d="M37.0642 4.83239C41.8907 3.56473 46.6963 3.8141 51.3877 5.46621C52.0371 5.69481 52.6346 5.96497 53.2632 6.23512L53.1229 6.41696C53.2788 6.41696 54.0789 6.71829 54.1049 6.76504C54.1672 6.87934 53.6944 6.82739 53.7568 7.39368C51.289 6.32344 48.5822 5.51817 45.8807 5.46102C42.0621 4.75446 35.703 6.17278 32.3313 8.02231C25.3695 11.8409 20.5223 19.4105 19.7586 27.297C18.9793 29.1101 20.2314 31.1415 18.6884 31.1051C18.652 30.5492 18.6416 30.0037 18.6416 29.4478C18.6988 18.2883 26.1125 7.71059 37.059 4.83239H37.0642Z" fill="#DCC070"/>
<path d="M51.8134 53.502C51.8966 53.476 51.855 53.0916 53.3928 53.0968C54.2241 52.7695 55.3255 51.7148 56.2295 51.694C57.9075 50.1926 59.9233 49.0288 61.2637 47.2832C61.6222 47.0858 61.4611 46.8572 61.4715 46.8364C62.682 46.4987 62.2456 46 62.3288 45.8753C63.3938 44.3427 64.6095 42.9036 65.4979 41.2462C66.5474 42.6438 66.6409 41.132 67.0098 42.4412C66.5993 43.3452 66.2408 44.3219 65.7109 45.1635C62.2404 50.6913 57.7725 52.9513 52.1719 55.4762L48.5767 56.6348C45.3141 56.9881 43.5996 56.9777 40.3733 56.5101L40.2954 54.458C41.0747 54.5826 45.3089 54.7489 46.0518 54.6917C47.3299 54.593 50.5042 53.9176 51.8134 53.5072V53.502Z" fill="#D8A630"/>
<path d="M68.6258 25.785C69.3583 31.3336 69.5298 36.6329 67.3114 41.9165C67.1555 42.2854 67.0256 42.4049 67.0153 42.4308C66.6464 41.1164 66.5477 42.6283 65.5034 41.2359C67.8465 36.8563 68.5946 30.892 68.2102 25.9721C68.3245 26.2422 68.5271 25.9461 68.6258 25.785Z" fill="#BF9649"/>
<path d="M37.3187 53.7099C38.2071 54.0165 39.3761 54.297 40.3009 54.4477L40.3788 56.4998C39.8333 56.4219 39.2982 56.3388 38.7578 56.2349C38.7423 55.1698 36.9862 54.2918 37.3187 53.7099Z" fill="#CA902B"/>
<path d="M53.263 6.23508C56.0945 7.44039 58.7545 8.82754 61.0612 10.9109C60.7858 11.394 61.482 11.3836 61.5755 11.5603C61.7626 11.9084 61.3261 12.0538 61.3469 12.1629C61.4768 12.7968 65.3629 14.5892 67.1137 23.5251C68.584 31.0272 66.6617 40.0306 61.4404 45.7195C61.2119 45.9689 60.8638 46.2858 60.7547 46.5456C60.6663 46.5716 60.5728 46.4573 60.6196 46.3741C60.8014 46.0364 63.3367 43.2881 64.0381 41.9685L63.5134 41.397C66.9007 36.3368 67.2124 27.0423 65.1551 21.4106C65.0564 21.1405 64.6044 20.0702 64.3342 20.0183C63.3679 17.7427 62.7393 16.5997 61.0976 14.6879C61.0716 14.1579 61.8509 13.8462 61.9496 13.4514C62.2249 12.3136 57.9856 9.60165 57.0348 9.03016C56.0009 8.41192 54.8684 7.8716 53.7618 7.39363C53.6994 6.82734 54.1722 6.8793 54.1098 6.765C54.0839 6.71824 53.2838 6.41691 53.1279 6.41691L53.2682 6.23508H53.263Z" fill="#D1AB5E"/>
<path d="M63.1758 13.0461C65.0928 15.2852 66.1475 17.1348 67.1866 19.8831C67.2593 20.9741 68.0802 24.2576 68.21 25.9824C68.5945 30.9024 67.8464 36.8614 65.5033 41.2463C64.6149 42.9036 63.3992 44.3427 62.3341 45.8753C62.2458 46 62.6822 46.4987 61.4769 46.8364C61.8094 46.3273 62.5679 46.1922 61.4457 45.7298C66.667 40.041 68.5841 31.0323 67.119 23.5354C65.3682 14.5943 61.4821 12.8071 61.3522 12.1732C61.3314 12.0589 61.7626 11.9187 61.5808 11.5706C61.4873 11.3939 60.7911 11.4043 61.0665 10.9212C61.8094 11.5914 62.5315 12.2927 63.181 13.0513L63.1758 13.0461Z" fill="#DCC070"/>
<path d="M63.42 12.2877C65.0825 14.7295 66.5631 16.9479 67.5139 19.7637C67.2801 19.8728 67.3165 19.2494 67.1294 19.3637C67.1086 19.3793 67.171 19.6702 67.1866 19.8832C66.1475 17.1349 65.0981 15.2854 63.1758 13.0462C63.8304 12.6929 63.0615 12.5422 63.42 12.2877Z" fill="#7C452A"/>
<path d="M34.0454 51.3668C36.6327 52.3071 39.4745 52.6864 42.2177 52.7851C41.4332 53.2735 44.3114 53.5228 44.8465 53.5228C46.2129 53.5125 47.6624 53.1124 48.982 52.7799C50.2704 54.3177 50.6705 53.0553 51.8082 53.5021C50.5042 53.9125 47.3247 54.5827 46.0466 54.6866C45.3089 54.7437 41.0695 54.5775 40.2902 54.4528C39.3654 54.3021 38.1965 54.0164 37.3081 53.7151C36.8821 53.5696 34.9131 52.6968 34.3104 52.4266C33.3129 51.9746 32.2219 51.4239 31.2607 50.894C31.6296 50.6239 31.5621 50.5303 31.4166 50.203C32.279 50.6914 33.1051 51.0343 34.035 51.372L34.0454 51.3668Z" fill="#D1AB5E"/>
<path d="M23.6239 42.8466C25.6345 46.1092 28.0815 48.2965 31.4272 50.1979C31.5675 50.5252 31.6351 50.6136 31.2714 50.8889C30.3362 50.3746 29.4218 49.855 28.5542 49.2368C27.0372 48.1614 25.5669 46.9353 24.3408 45.5273C25.0526 44.8468 24.2317 44.5298 23.3018 42.966L23.6291 42.8466H23.6239Z" fill="#BA8237"/>
<path d="M19.7585 27.2969C19.5715 29.214 19.7222 31.1674 19.956 33.0637C20.2365 35.3445 20.6573 37.5681 21.5509 39.6981C22.0445 40.8723 22.6471 41.8802 23.2966 42.966C24.2317 44.5298 25.0474 44.8415 24.3356 45.5273C23.4057 44.4571 22.6315 43.3141 21.899 42.0984C21.4055 41.2827 21.0678 40.5398 20.6833 39.6774C19.4832 36.9654 18.8753 34.0612 18.6831 31.1103C20.2261 31.1466 18.974 29.1153 19.7533 27.3021L19.7585 27.2969Z" fill="#D1AB5E"/>
<path d="M67.5137 19.7585C68.1994 21.8003 68.3449 23.681 68.6255 25.7851C68.5267 25.9462 68.3293 26.2423 68.2098 25.9721C68.0747 24.2525 67.2591 20.969 67.1863 19.8728C67.1708 19.665 67.1084 19.3689 67.1292 19.3533C67.3162 19.239 67.2851 19.8624 67.5137 19.7533V19.7585Z" fill="#AF712B"/>
<path d="M45.8803 5.4609C46.2543 5.52844 46.618 5.60637 47.0025 5.63235L46.9765 5.86614C45.2309 5.85055 43.5268 5.94926 41.7915 6.17266C34.2116 7.1338 29.2241 9.72626 24.86 16.21C22.4182 19.8416 21.1349 24.0238 20.896 28.3775C20.8128 29.8685 20.8128 31.3128 21.0155 32.7987C20.4544 33.0221 19.9816 32.7883 19.9608 33.0688C19.727 31.1777 19.5763 29.2191 19.7634 27.302C20.5271 19.4155 25.3743 11.846 32.3361 8.02739C35.713 6.17786 42.0669 4.75434 45.8855 5.4661L45.8803 5.4609Z" fill="#432224"/>
<path d="M45.8804 5.46082C48.5871 5.51796 51.2939 6.32324 53.7565 7.39347C54.8631 7.87144 55.9957 8.41176 57.0295 9.03L56.5464 9.13391C55.419 8.39098 51.8654 6.59859 50.6704 6.52586C49.8028 6.4739 50.9926 6.88953 50.9042 8.24551C48.2286 7.43504 44.0412 7.01422 41.2617 7.28957L41.7864 6.17257C43.5217 5.95437 45.2257 5.85046 46.9714 5.86605L46.9974 5.63226C46.6181 5.61148 46.2492 5.53355 45.8752 5.46082H45.8804Z" fill="#7C452A"/>
<path d="M42.2231 52.7852C42.2595 52.7852 42.4258 52.7332 42.4673 52.7332C44.9247 52.7904 47.1275 53.2631 47.1847 51.3928C50.624 50.9356 53.7723 49.5745 56.5882 47.6002C56.635 47.6574 56.6817 47.7717 56.77 47.7405C57.5961 47.4548 61.3315 44.2233 62.0693 43.3972C62.355 43.0803 63.207 41.8646 63.5188 41.4022L64.0435 41.9737C63.3421 43.2933 60.8068 46.0364 60.625 46.3793C60.5782 46.4677 60.6717 46.582 60.76 46.5508C60.864 46.291 61.2172 45.9741 61.4458 45.7247C62.568 46.1871 61.8043 46.317 61.477 46.8313C61.4614 46.8521 61.6277 47.0807 61.2692 47.2781C60.3081 47.647 60.0379 49.0809 59.0144 48.0782C62.6304 44.7584 58.2819 48.5198 57.3 49.2939C55.5699 50.52 51.8397 52.3747 49.7979 52.2812C49.7823 52.5981 49.242 52.7176 48.9926 52.78C47.673 53.1125 46.2235 53.5125 44.8572 53.5229C44.3221 53.5229 41.4438 53.2735 42.2283 52.7852H42.2231Z" fill="#DCC070"/>
<path d="M61.2639 47.2782C59.9235 49.0238 57.9077 50.1928 56.2296 51.689C55.3256 51.7098 54.2242 52.7645 53.3929 53.0918C51.8499 53.0918 51.8915 53.471 51.8136 53.497C50.6758 53.0502 50.2757 54.3127 48.9873 52.7749C49.2367 52.7125 49.777 52.5982 49.7926 52.2761C51.8343 52.3696 55.5646 50.5149 57.2946 49.2888C58.2765 48.5147 62.625 44.7481 59.0091 48.0731C60.0326 49.0758 60.3027 47.6419 61.2639 47.273V47.2782Z" fill="#D1AB5E"/>
<path d="M41.2671 7.28456C44.0466 7.0144 48.2392 7.43003 50.9096 8.2405C54.1411 9.22241 57.2998 11.02 59.7572 13.3527C60.2404 13.8099 60.656 14.1787 61.0976 14.6879C62.7445 16.5998 63.3732 17.7427 64.3343 20.0183C65.9604 23.8576 66.2046 27.1878 65.7838 31.2766C65.602 31.6922 65.3214 33.1469 64.62 32.8352C64.2616 32.6741 64.9214 31.4376 64.1057 32.1857C64.7499 26.1592 63.3888 19.6079 59.1598 15.0931C58.7026 14.61 58.1727 14.1684 57.6635 13.7423C56.0634 12.3968 53.3462 10.833 51.294 10.3342C50.8992 10.0381 49.5744 9.74194 49.0185 9.60167C35.9627 6.22991 24.4706 14.5788 23.2237 27.936C22.6107 29.9829 23.4887 33.2923 21.8366 29.0322C21.7275 28.4347 21.8574 27.7645 21.8989 27.1515C22.5743 16.8284 30.9596 8.29245 41.2619 7.28456H41.2671Z" fill="#2E1C23"/>
<path d="M63.5184 41.4022C63.2067 41.8646 62.3547 43.0803 62.069 43.3972C61.3312 44.2232 57.5958 47.4547 56.7697 47.7405C56.6814 47.7717 56.6346 47.6574 56.5879 47.6002C62.5833 43.4024 65.0615 38.4201 65.7888 31.2817C66.2044 27.193 65.9603 23.8628 64.3393 20.0234C64.6095 20.0754 65.0615 21.1456 65.1602 21.4158C67.2175 27.0475 66.9058 36.3419 63.5184 41.4022Z" fill="#DCC070"/>
<path d="M57.0296 9.02997C57.9803 9.60145 62.2197 12.3186 61.9443 13.4512C61.456 13.046 60.9105 12.6667 60.4325 12.2563C59.1337 11.1341 57.9959 10.0898 56.5464 9.13388L57.0296 9.02997Z" fill="#92592F"/>
<path d="M60.4325 12.2564C60.9105 12.6669 61.456 13.0513 61.9444 13.4514C61.8509 13.8462 61.0664 14.1631 61.0923 14.6878C60.6507 14.1787 60.2351 13.8098 59.752 13.3526C60.2819 13.0357 59.7416 12.0123 60.4273 12.2512L60.4325 12.2564Z" fill="#BA8237"/>
<path d="M26.2835 42.9971C30.0501 47.7561 35.3442 50.4109 41.298 51.2629C41.0902 51.5746 42.0721 51.5071 42.867 51.6422C43.0333 51.7824 42.4618 51.8967 42.467 52.7384C42.4306 52.7384 42.2592 52.7903 42.2228 52.7903C39.4797 52.6916 36.6326 52.3175 34.0505 51.372C33.079 50.4784 31.51 49.8654 30.3515 49.0185C29.3228 48.26 28.3461 47.3664 27.4629 46.4416C28.3097 45.5688 24.247 42.6283 25.5926 42.5659C25.8212 42.5555 26.0134 43.3348 26.2887 43.0023L26.2835 42.9971Z" fill="#BA8237"/>
<path d="M21.0102 32.7935C21.0622 33.1727 21.1245 33.5416 21.1972 33.9156C22.1012 38.607 24.1482 42.9763 27.4576 46.4364C28.3408 47.3611 29.3175 48.2547 30.3462 49.0133C31.5048 49.8601 33.0789 50.4783 34.0453 51.3667C33.1153 51.029 32.2893 50.6913 31.4268 50.1978C28.081 48.2963 25.6341 46.1091 23.6235 42.8464C22.4701 40.9761 22.0701 39.3707 21.5505 39.698C20.6569 37.568 20.2413 35.3444 19.9556 33.0636C19.9763 32.7779 20.4491 33.0169 21.0102 32.7935Z" fill="#7C452A"/>
<path d="M23.6237 42.8464L23.2964 42.9659C22.647 41.8749 22.0443 40.8722 21.5508 39.6981C22.0755 39.3708 22.4755 40.9813 23.6237 42.8464Z" fill="#7C452A"/>
<path d="M41.7867 6.16745L41.262 7.28444C30.9596 8.29234 22.5692 16.8282 21.899 27.1514C21.4314 28.0605 22.1276 28.1177 20.8911 28.3723C21.1301 24.0186 22.4081 19.8363 24.8551 16.2048C29.2192 9.72105 34.2067 7.12339 41.7867 6.16745Z" fill="#5D2D25"/>
<path d="M21.899 27.1513C21.8574 27.7644 21.7276 28.4346 21.8367 29.032C21.6756 30.4503 21.8626 32.0609 22.112 33.4688L21.1976 33.9156C21.1249 33.5416 21.0626 33.1675 21.0106 32.7934C20.808 31.3076 20.808 29.8685 20.8911 28.3722C22.1276 28.1176 21.4314 28.0605 21.899 27.1513Z" fill="#7C452A"/>
<path d="M56.5466 9.13414C57.9961 10.0901 59.1339 11.1343 60.4327 12.2565C59.7417 12.0175 60.2821 13.041 59.7573 13.3579C57.2999 11.0252 54.1412 9.22766 50.9097 8.24574C50.998 6.89496 49.8083 6.47414 50.6759 6.52609C51.8708 6.59882 55.4192 8.38601 56.5518 9.13414H56.5466Z" fill="#92592F"/>
<path d="M23.2236 27.9359C23.021 30.1024 23.2184 32.8871 23.7431 34.9964C25.0783 40.3475 27.8162 43.6933 32.4764 46.5456C33.0583 46.8988 33.6402 47.2365 34.248 47.5379C35.1936 48.0054 36.1755 48.4055 37.1782 48.7432C39.2304 49.4342 41.2617 49.7978 43.423 49.8602C45.2362 49.9121 47.0545 49.7926 48.8261 49.3822C57.3153 47.4288 63.1808 40.8411 64.1056 32.1909C64.9212 31.4428 64.2614 32.6792 64.6199 32.8403C65.3213 33.1572 65.6018 31.7025 65.7837 31.2817C65.0563 38.4201 62.5781 43.4024 56.5827 47.6002C53.7669 49.5744 50.6185 50.9356 47.1792 51.3928C45.4855 51.6162 43.0022 51.5071 41.2929 51.2629C35.3443 50.4109 30.045 47.7561 26.2784 42.9972C23.9977 40.1137 22.7404 37.0641 22.1118 33.4689C21.8624 32.061 21.6754 30.4504 21.8364 29.0321C23.4885 33.2871 22.6105 29.9829 23.2236 27.9359Z" fill="#432224"/>
<path d="M47.1792 51.3928C47.122 53.2631 44.9192 52.7955 42.4618 52.7332C42.4566 51.8915 43.0333 51.7824 42.8619 51.6369C42.067 51.5019 41.0851 51.5694 41.2929 51.2577C42.9969 51.5019 45.4803 51.611 47.1792 51.3876V51.3928Z" fill="#D1AB5E"/>
<path d="M49.0237 9.60171L48.8834 9.78354C50.8628 10.5421 46.239 10.1472 46.478 10.8434C46.5455 11.0356 48.2755 11.3006 50.2861 12.2669C52.0162 13.0982 53.928 14.2931 55.3308 15.6023C55.8243 16.0647 56.375 16.5946 56.8063 17.1089C64.594 26.2839 61.6483 42.4829 48.2392 46.3222C46.7169 46.7586 44.9401 47.0911 43.3504 47.0963C42.7737 47.0963 41.3762 46.8937 40.7112 46.7898C41.9113 46.1768 39.6617 45.8547 39.1629 45.9014C39.2357 45.8495 39.35 45.7715 39.3032 45.7196C39.1318 45.5274 37.1368 45.3507 34.617 43.7246C30.9751 41.3711 28.4814 37.8279 27.4475 33.6145C27.089 32.1598 27.167 30.6947 26.9332 29.2296C27.7021 21.6133 32.2324 15.1399 39.8799 13.1865C40.7215 12.9683 41.6203 12.9631 42.4516 12.6981C43.3608 12.828 45.0389 12.2305 48.8003 12.88C48.8314 12.8903 48.8834 13.0722 49.4445 13.0722C49.4133 12.7657 48.9509 12.9059 48.8003 12.88C46.3481 11.976 44.5557 11.6487 41.9165 11.8513C41.106 11.9136 40.3059 12.0123 39.5162 12.2046C31.8064 14.0749 26.3513 20.9535 25.8785 28.7984C25.7538 30.9077 25.9409 32.7417 26.5227 34.773C26.7669 35.6199 26.9539 36.4252 27.3384 37.2252C27.4163 37.3863 27.5098 37.5629 27.593 37.7292C27.3124 37.2045 24.1693 34.3938 23.9251 34.4353C23.6913 34.4769 23.9926 34.9341 23.7432 35.0016C23.2185 32.8871 23.0211 30.1076 23.2237 27.9412C24.4706 14.584 35.9626 6.23514 49.0185 9.6069L49.0237 9.60171Z" fill="url(#paint0_linear_383_470)"/>
<path d="M59.165 15.0984C63.3992 19.6079 64.7552 26.1644 64.111 32.191C63.1862 40.8412 57.3207 47.4289 48.8315 49.3823C49.4342 46.7015 48.3484 47.699 48.1665 47.299C48.0574 47.0548 48.7276 46.7794 48.2393 46.3223C61.6536 42.4829 64.5941 26.2839 56.8063 17.1089C57.2324 16.0491 58.3234 15.7789 59.1598 15.0984H59.165Z" fill="#7C452A"/>
<path d="M57.6685 13.7422L55.3306 15.5969C53.9279 14.2877 52.0212 13.0928 50.286 12.2615C49.9742 11.2485 51.4237 11.342 51.5952 10.8017C51.6783 10.6146 51.3874 10.4016 51.2939 10.3341C53.346 10.838 56.0684 12.3966 57.6633 13.7422H57.6685Z" fill="#9B6838"/>
<path d="M49.0235 9.60175C49.5794 9.74722 50.9042 10.0434 51.2991 10.3343C51.3874 10.4018 51.6783 10.6148 51.6004 10.8019C51.429 11.3422 49.9795 11.2487 50.2912 12.2618C48.2806 11.2954 46.5505 11.0305 46.483 10.8382C46.2388 10.1421 50.8627 10.5421 48.8884 9.77839L49.0287 9.59656L49.0235 9.60175Z" fill="#BA8237"/>
<path d="M57.6686 13.7424C58.1778 14.1684 58.7077 14.61 59.1649 15.0932C58.3284 15.7685 57.2374 16.0439 56.8114 17.1037C56.375 16.5894 55.8295 16.0543 55.3359 15.5971L57.6738 13.7424H57.6686Z" fill="#92592F"/>
<path d="M22.112 33.4689C22.7406 37.0641 24.0031 40.1137 26.2786 42.9971C25.9981 43.3296 25.811 42.5503 25.5824 42.5607C24.242 42.6179 28.3048 45.5584 27.4527 46.4364C24.1433 42.9763 22.0964 38.6019 21.1924 33.9157L22.1068 33.4689H22.112Z" fill="#92592F"/>
<path d="M27.6035 37.7239C28.2373 38.924 28.788 39.7189 29.6089 40.7892C30.2219 41.584 30.8142 42.3685 31.5467 43.0595C30.9389 43.1426 32.804 44.7376 32.4819 46.5508C27.8217 43.6985 25.0837 40.3527 23.7485 35.0016C24.0031 34.9288 23.6966 34.4716 23.9304 34.4353C24.1746 34.3937 27.3177 37.2044 27.5983 37.7291L27.6035 37.7239Z" fill="#D1AB5E"/>
<path d="M36.4351 45.6677C37.0586 45.9066 37.6353 46.0106 38.2639 46.1924C39.1419 46.447 39.7913 46.6496 40.7109 46.7899C41.3759 46.8938 42.7734 47.0964 43.3501 47.0964C43.7709 48.7381 44.0931 48.8524 44.119 48.9563C44.2905 49.6525 43.3865 49.3096 43.4229 49.8603C41.2668 49.7979 39.2302 49.4343 37.1781 48.7433C37.0846 47.3561 36.0143 46.0002 36.43 45.6677H36.4351Z" fill="#92592F"/>
<path d="M48.2391 46.3221C48.7274 46.774 48.0572 47.0546 48.1663 47.2988C48.3482 47.6988 49.434 46.7013 48.8313 49.3821C47.0597 49.7873 45.2414 49.912 43.4282 49.8601C43.3918 49.3094 44.2958 49.6574 44.1244 48.9561C44.0984 48.8574 43.7763 48.7379 43.3555 47.0962C44.9452 47.0962 46.722 46.7585 48.2443 46.3221H48.2391Z" fill="#7C452A"/>
<path d="M34.352 44.6389C35.0534 44.9922 35.6976 45.3819 36.4353 45.6676C36.0145 46.0001 37.09 47.3561 37.1835 48.7433C36.1808 48.4056 35.2041 48.0107 34.2533 47.5379C34.7728 46.0884 33.7494 44.9714 34.352 44.6389Z" fill="#AF712B"/>
<path d="M31.5466 43.0544C32.9389 44.3689 33.552 44.2338 34.3521 44.639C33.7494 44.9767 34.7729 46.0885 34.2533 47.538C33.6455 47.2367 33.0584 46.899 32.4817 46.5457C32.809 44.7377 30.9439 43.1428 31.5466 43.0544Z" fill="#BA8237"/>
<path d="M39.5161 12.1993L39.8746 13.1864C32.2323 15.1451 27.6968 21.6132 26.9279 29.2296C26.3044 29.4686 26.372 28.4918 25.8784 28.7932C26.3512 20.9482 31.8063 14.0696 39.5161 12.1993Z" fill="#5D2D25"/>
<path d="M27.4476 33.6144C28.4814 37.833 30.9752 41.371 34.6171 43.7245C33.9833 44.1869 30.5388 41.2152 29.9517 40.5086C28.5853 38.8617 28.2632 36.7316 27.3437 37.22C26.9592 36.4147 26.7722 35.6146 26.528 34.7678C26.3617 33.9053 26.4657 33.3131 27.4476 33.6144Z" fill="#92592F"/>
<path d="M29.9518 40.5138C30.5388 41.2203 33.9833 44.192 34.6172 43.7297C37.1369 45.361 39.1319 45.5376 39.3034 45.7247C39.3501 45.7766 39.2358 45.8546 39.1631 45.9065C38.9968 45.9221 38.6903 46.2338 38.2643 46.1974C37.6357 46.0156 37.0642 45.9117 36.4355 45.6727C35.6978 45.3922 35.0536 44.9973 34.3522 44.644C33.5521 44.2388 32.9391 44.3739 31.5467 43.0595C30.8142 42.3685 30.2167 41.584 29.6089 40.7891L29.957 40.5138H29.9518Z" fill="#BA8237"/>
<path d="M26.9329 29.2295C27.1667 30.6946 27.094 32.1597 27.4473 33.6144C26.4653 33.3131 26.3614 33.9053 26.5277 34.7678C25.9458 32.7364 25.7536 30.9076 25.8835 28.7931C26.377 28.4918 26.3095 29.4685 26.9329 29.2295Z" fill="#7C452A"/>
<path d="M48.8004 12.8746C45.039 12.22 43.3557 12.8226 42.4517 12.6928C41.9893 12.6252 41.8854 12.6824 41.8647 12.6668C41.8335 12.6356 41.9841 12.0537 41.9218 11.8459C44.561 11.6485 46.3482 11.9706 48.8056 12.8746H48.8004Z" fill="#92592F"/>
<path d="M41.9163 11.8461C41.9787 12.0487 41.8332 12.6358 41.8592 12.667C41.88 12.6877 41.9839 12.6306 42.4463 12.6929C41.6098 12.9579 40.7162 12.9683 39.8746 13.1813L39.5161 12.1942C40.3058 12.002 41.1059 11.9033 41.9163 11.8409V11.8461Z" fill="#7C452A"/>
<path d="M29.9518 40.5139L29.6037 40.7892C28.7829 39.719 28.2322 38.9293 27.5983 37.724C27.5152 37.5629 27.4217 37.3863 27.3438 37.22C28.2633 36.7317 28.5854 38.8617 29.9518 40.5087V40.5139Z" fill="#9B6838"/>
<path d="M39.163 45.9013C39.6617 45.8493 41.9113 46.1767 40.7112 46.7897C39.7864 46.6494 39.1422 46.4468 38.2642 46.1922C38.6902 46.2286 38.9967 45.9221 39.163 45.9013Z" fill="#D1AB5E"/>
<path d="M48.8003 12.8748C48.9511 12.9008 49.4193 12.7604 49.4453 13.0672C48.8783 13.0672 48.8315 12.8852 48.8003 12.8748Z" fill="#92592F"/>
<defs>
<linearGradient id="paint0_linear_383_470" x1="25.6275" y1="22.8488" x2="58.5215" y2="32.0075" gradientUnits="userSpaceOnUse">
<stop offset="0.27" stop-color="#E0C776"/>
<stop offset="1" stop-color="#9E6D39"/>
</linearGradient>
</defs>
</svg>
