<svg width="171" height="206" viewBox="0 0 171 206" fill="none" xmlns="http://www.w3.org/2000/svg">
<path d="M166.683 21.2285C168.906 25.6525 169.493 30.6949 170.353 35.5119L170.877 183.063C169.205 195.612 161.463 203.836 148.731 205.209H22.1458C20.7987 204.722 18.6339 204.753 17.2973 204.423C7.56889 202.033 0.969699 192.467 0.262081 182.801L0 18.2146C1.67208 8.02491 8.67487 1.77167 18.7388 0.262081L128.813 0C142.651 1.33661 160.095 8.10354 166.683 21.2285Z" fill="#383C44"/>
<path d="M160.918 186.864L161.966 182.801C160.986 174.609 162.993 118.188 161.442 115.185C161.285 114.875 159.833 114.65 159.476 114.791C159.382 114.828 158.323 116.395 158.297 116.495C157.883 118.157 157.558 142.53 156.986 150.696C155.76 168.277 155.257 188.499 136.282 196.167C141.864 197.179 147.583 196.424 153.055 195.25C147.882 197.557 138.4 196.959 132.482 197.085C96.1732 197.871 59.7754 196.498 23.4563 197.085C15.9607 195.995 10.2788 191.094 9.17285 183.457C20.1121 197.069 28.6245 193.971 41.5398 193.94C63.3816 193.887 85.2235 193.861 107.06 194.464C128.891 192.551 143.515 186.848 147.814 163.407L158.559 66.1754L159.607 41.2777C159.749 40.7012 159.146 40.4915 158.69 40.0984C157.301 38.9033 142.787 32.1678 140.213 27.5185C150.372 34.3116 161.248 32.9016 161.704 33.9395L162.49 182.015C162.092 183.719 161.589 185.244 160.918 186.864Z" fill="#818B9A"/>
<path d="M160.918 186.864C160.21 188.562 159.487 189.663 158.297 191.057C157.379 190.019 158.962 187.162 159.083 184.898C159.408 178.786 156.902 160.126 158.297 150.827L156.986 150.696C157.558 142.53 157.883 118.156 158.297 116.495C158.323 116.395 159.382 114.828 159.476 114.791C159.833 114.65 161.284 114.875 161.442 115.184C162.993 118.188 160.986 174.609 161.966 182.801L160.918 186.864Z" fill="#818B9A"/>
<path d="M158.297 191.057C156.735 192.886 155.299 194.249 153.055 195.25C147.583 196.424 141.865 197.179 136.282 196.167C155.257 188.499 155.76 168.277 156.987 150.696L158.297 150.828C156.903 160.126 159.408 178.786 159.083 184.898C158.963 187.162 157.38 190.019 158.297 191.057Z" fill="#586478"/>
<path d="M135.365 9.69702C144.401 12.1344 153.543 16.4692 158.559 24.7667L158.166 25.1598C147.861 23.1575 141.062 18.4977 135.365 9.69702Z" fill="#818B9A"/>
<path d="M140.213 27.5185C142.787 32.1678 157.301 38.9033 158.69 40.0984C159.146 40.4915 159.749 40.7012 159.607 41.2778L158.559 66.1754L147.814 163.407C143.516 186.848 128.891 192.551 107.06 194.464C85.2236 193.861 63.3818 193.887 41.5399 193.94C28.6246 193.971 20.1122 197.069 9.17296 183.457L8.38672 21.8838C9.01047 14.6137 13.665 9.50832 20.8356 8.12453C37.2208 9.01036 113.586 6.96089 121.737 8.12453C126.507 8.80594 129.206 16.2648 132.351 20.0492C134.044 22.0882 138.085 26.0928 140.213 27.5185Z" fill="#F1F2F2"/>
<path d="M29.2219 85.7004C35.4123 84.6993 120.321 86.4657 135.889 85.7004C141.125 86.4867 140.805 92.6194 135.365 93.3008H32.3669C24.6932 93.3113 23.582 86.6125 29.2219 85.7004Z" fill="#383C44"/>
<path d="M27.6498 107.453C32.8285 106.483 118.655 108.197 133.006 107.453C138.625 108.328 139.128 114.178 134.055 115.053C128.582 115.997 45.5446 114.304 30.7947 115.053C22.5811 114.398 23.142 108.297 27.6498 107.453Z" fill="#383C44"/>
<path d="M30.2701 41.933L137.199 42.195C142.729 43.605 142.724 48.9043 136.937 49.7954H31.5805C25.4478 49.0616 23.325 43.5002 30.2701 41.933Z" fill="#383C44"/>
<path d="M28.9599 63.6856C43.5473 64.6867 126.396 63.0042 131.433 63.9477C135.7 64.7496 136.497 70.6622 131.696 71.548C115.787 70.7146 36.1671 72.6383 28.9599 71.548C23.0316 70.6517 22.4079 64.4351 28.9599 63.6856Z" fill="#383C44"/>
<path d="M31.5806 128.944C43.1751 129.609 89.5005 128.068 95.5283 128.944C100.628 129.688 103.249 135.27 97.1008 136.806C86.691 136.067 34.301 137.152 31.0565 136.544C27.0781 135.8 26.3076 130.679 31.5806 128.944Z" fill="#383C44"/>
<path d="M42.5883 174.546C47.0227 173.597 121.123 175.274 133.268 174.546C138.609 175.851 138.835 181.266 133.006 182.146C126.265 183.163 59.4821 180.951 44.947 181.884C38.4999 180.998 39.2809 175.253 42.5883 174.546Z" fill="#383C44"/>
<path d="M30.5325 153.579C33.1847 153.071 81.8636 153.092 84.5211 153.579C89.1023 154.418 90.0405 160.304 83.7349 161.18C80.2702 161.662 41.0786 160.283 32.105 160.918C25.9146 159.722 26.7323 154.308 30.5325 153.579Z" fill="#383C44"/>
</svg>
