<svg width="100" height="90" viewBox="0 0 100 90" fill="none" xmlns="http://www.w3.org/2000/svg">
<path d="M45.0865 81.3015C45.401 81.6422 45.6211 82.1349 45.3171 82.7849C44.7825 83.9171 33.8589 87.2822 32.3336 87.6019C30.4204 88.0055 28.3814 88.058 26.5626 88.493C24.9272 88.3987 23.36 88.2519 21.756 87.9584C18.8574 87.4342 16.0217 86.5484 13.165 85.8512L22.8253 84.4517C19.932 84.2176 17.0368 83.9852 14.14 83.7546C14.6956 83.5869 15.2564 83.4244 15.8068 83.2462C15.7649 83.4191 16.483 83.4453 16.5878 83.4296C17.6676 83.2829 25.2784 80.7669 28.2819 80.1851C32.7058 79.3254 37.0983 79.0581 41.2968 79.9544C42.2717 80.1641 44.4208 80.5729 45.0865 81.3015Z" fill="#BEBCD3"/>
<path d="M21.7563 87.9584C21.5414 88.3987 22.3172 88.86 22.5268 89.1902C22.3329 89.1902 22.1389 89.2007 21.945 89.2007L21.6934 88.839C20.1279 88.9194 18.5624 88.9997 16.9969 89.0801C15.9643 87.1722 12.9976 88.1419 11.032 88.1209C10.3401 88.1157 8.48977 88.0161 8.43211 87.6596C7.97085 88.7866 7.76119 87.0201 7.4729 88.0318C7.03784 87.5653 6.72858 88.2781 5.40245 87.3923C4.13398 87.4867 1.69139 88.4668 1.33496 87.6334C1.93775 87.4185 2.52481 87.2036 3.12759 87.0044C3.06993 87.1826 3.36871 87.2613 3.50499 87.2455C6.26208 86.9415 9.15546 85.7045 11.9125 85.6259C14.1402 84.5356 13.0867 84.3731 11.5509 84.4884C12.4105 84.132 13.2806 84.0115 14.1455 83.7494C17.0388 83.9835 19.934 84.2159 22.8308 84.4465L13.1705 85.846C16.0272 86.5432 18.8682 87.4238 21.7615 87.9532L21.7563 87.9584Z" fill="#535882"/>
<path d="M47.1517 82.3918C47.136 82.5595 46.9526 83.3196 46.8844 83.5292C44.8035 89.8139 31.3902 89.3893 27.894 89.4103C28.0408 88.7761 28.8218 89.7982 28.8637 88.5874C30.7507 88.5664 34.509 88.2257 36.3488 87.8011C37.0616 87.6386 42.125 85.8984 42.5601 85.6626C42.796 85.5368 42.7593 85.1594 43.0004 85.0178C43.7657 84.5618 44.337 84.5775 45.3329 83.5397C45.4954 83.3667 46.9316 81.6108 46.4599 81.6265C46.4756 81.6213 46.4232 81.4483 46.7429 81.2439C47.0784 81.5741 47.2094 81.7209 47.1465 82.3918H47.1517Z" fill="#7A7D9E"/>
<path d="M46.743 81.2439C46.4233 81.4483 46.4757 81.6213 46.46 81.6265C45.5322 82.0406 45.6633 80.3476 45.0867 81.3015C44.421 80.573 42.2667 80.1641 41.297 79.9544C37.0985 79.0581 32.7112 79.3254 28.2821 80.1851C25.2786 80.7669 17.6678 83.2829 16.588 83.4296C16.4832 83.4454 15.7703 83.4191 15.807 83.2462C24.1412 80.5992 32.9733 77.0978 40.9458 78.969C41.9994 79.2154 46.0459 80.552 46.743 81.2386V81.2439Z" fill="#BEBCD3"/>
<path d="M21.945 89.2059C13.5899 89.2163 8.37444 89.7405 0.0297852 88.2362C0.0769597 88.1575 0.297112 87.8588 0.312837 87.8535C0.365253 87.8273 1.00473 87.7592 1.32971 87.6439C1.68614 88.4773 4.13397 87.4971 5.3972 87.4027C6.72857 88.2886 7.03259 87.5757 7.46764 88.0422C7.75593 87.0253 7.96559 88.797 8.42686 87.6701C8.48451 88.0317 10.3296 88.1261 11.0267 88.1313C12.9923 88.1523 15.9538 87.1826 16.9917 89.0905C18.5571 89.0102 20.1227 88.9298 21.6881 88.8494L21.9397 89.2111L21.945 89.2059Z" fill="#404871"/>
<path d="M3.12218 87.0096C5.00392 86.3964 10.2088 84.5933 11.5507 84.4937C13.0865 84.3784 14.1348 84.5408 11.9124 85.6311C9.15528 85.7097 6.2619 86.9467 3.50481 87.2508C3.36853 87.2665 3.06976 87.1931 3.12741 87.0096H3.12218Z" fill="#535882"/>
<path d="M27.8943 89.4103C26.1016 89.4208 24.3247 89.1902 22.5321 89.1954C22.3172 88.8652 21.5414 88.3987 21.7616 87.9636C23.3655 88.2519 24.9328 88.4039 26.5681 88.4983C27.3229 88.5402 28.0725 88.7708 28.8692 88.5926C28.8273 89.8034 28.0463 88.7813 27.8995 89.4156L27.8943 89.4103Z" fill="#6F708F"/>
<path d="M46.4602 81.6265C46.9319 81.6108 45.4957 83.3667 45.3332 83.5397C44.3373 84.5775 43.766 84.5618 43.0007 85.0178C42.7596 85.1646 42.791 85.5367 42.5604 85.6625C42.1253 85.8984 37.0672 87.6334 36.3491 87.8011C34.504 88.2257 30.7458 88.5664 28.8641 88.5874C28.0673 88.7656 27.323 88.5402 26.563 88.493C28.3818 88.058 30.4208 88.0055 32.334 87.6019C33.8593 87.2822 44.7828 83.9171 45.3175 82.7849C45.6215 82.1349 45.4014 81.6422 45.0869 81.3015C45.6634 80.3475 45.5324 82.0406 46.4602 81.6265Z" fill="#7A7D9E"/>
<path d="M13.7157 74.1887C14.1927 72.5009 9.48048 76.972 10.8014 75.0798C10.8852 74.9645 12.7355 73.4916 13.0291 73.2767C13.0657 73.2505 13.3436 73.392 13.3855 73.3606C14.7798 72.3227 17.93 69.6547 19.1198 68.4806C19.4133 68.1923 19.1722 67.9931 19.2561 67.9093C20.2835 66.8872 21.5572 66.0432 22.3906 64.8167C22.574 64.8849 23.4337 65.4772 23.376 65.7235C23.2397 66.3525 14.8741 73.1666 13.7157 74.1835V74.1887Z" fill="#2D3544"/>
<path d="M13.0289 73.2767C12.7354 73.4916 10.8851 74.9592 10.8013 75.0798C9.47513 76.972 14.1873 72.5009 13.7156 74.1887C12.8507 74.9487 12.0855 75.8608 11.1944 76.5999C11.1734 76.5684 10.9637 76.4216 10.9428 76.3902C10.6178 75.9027 10.3138 75.3943 9.93115 74.9487C10.7751 73.9895 12.8717 71.7409 13.0289 73.2767Z" fill="#0D0D0F"/>
<path d="M5.77983 82.9789C5.94756 83.3353 6.50317 83.6079 6.25682 84.1425C5.675 84.4623 1.04665 87.4395 0.800293 87.2089L2.41996 85.1122C3.12758 85.3009 6.15723 83.1361 3.7985 83.4087C3.67794 83.2619 4.09727 83.0523 4.113 83.0313L5.77983 82.9737V82.9789Z" fill="#454953"/>
<path d="M5.5179 82.1665C5.86909 82.8793 5.75902 82.9422 5.77474 82.9789L4.10791 83.0366C4.44862 82.6068 4.95705 82.2923 5.29775 81.8153C5.40258 81.8729 5.455 82.0459 5.51266 82.1665H5.5179Z" fill="#272827"/>
<path d="M83.7697 12.9247C82.0976 14.2876 80.4203 15.6346 78.7535 16.9975L78.1821 16.5624C74.6598 19.7441 70.608 22.5483 67.1119 25.5885L67.4211 26.186C66.1631 27.2343 64.9156 28.2931 63.6681 29.3572C63.2593 29.3939 63.1335 28.9221 63.0968 28.9221C62.7246 28.8907 58.1592 33.0945 57.4149 33.5872C57.1895 33.409 56.6863 32.9791 56.5186 32.9267C62.7037 27.5436 68.9674 22.0451 75.5194 17.3591C78.0354 15.1367 80.6772 13.0715 83.3294 11.0168C85.0225 12.432 82.7371 12.4844 83.7802 12.9247H83.7697Z" fill="#454953"/>
<path d="M93.0163 3.69409C92.1777 4.1868 91.5277 4.98877 90.7729 5.56534C88.3251 7.43136 85.7777 9.11916 83.3246 11.0166C80.6723 13.0713 78.0306 15.1365 75.5146 17.359C68.9626 22.045 62.6988 27.5434 56.5137 32.9266C56.4666 32.9109 56.4194 32.9056 56.3722 32.8951C56.4299 32.6855 56.2254 32.7379 56.1206 32.6855C62.1275 27.5592 68.0033 22.2861 74.1675 17.3433C74.2618 17.2699 75.8448 16.4994 76.2432 16.1796C77.564 15.1365 78.5652 13.9781 79.1156 13.5536C82.0823 11.263 87.3606 7.01203 90.1072 5.18271C90.4742 4.93635 92.5393 3.50539 92.6914 3.46346C92.8643 3.41628 92.8801 3.66788 93.0111 3.68885L93.0163 3.69409Z" fill="#7D7C8C"/>
<path d="M88.0525 9.43381C86.632 10.6394 85.2116 11.7558 83.7701 12.93C82.727 12.4897 85.0124 12.4373 83.3193 11.022C85.7724 9.12455 88.3198 7.43675 90.7677 5.57074C90.883 6.73438 86.8784 8.93585 88.0525 9.43381Z" fill="#525666"/>
<path d="M78.7534 16.9975C74.9795 20.069 71.1583 23.0673 67.4211 26.186L67.1118 25.5885C70.608 22.5483 74.6597 19.7441 78.1821 16.5624L78.7534 16.9975Z" fill="#2D3544"/>
<path d="M88.0522 9.43376C86.8781 8.93581 90.8827 6.72909 90.7674 5.57069C91.5274 4.99412 92.1774 4.19214 93.0108 3.69943C93.3253 3.74661 94.1011 3.92482 94.0644 4.32319C94.0277 4.71631 88.7756 8.81525 88.047 9.439L88.0522 9.43376Z" fill="#2D3544"/>
<path d="M63.6633 29.3571C62.6831 30.1853 58.6418 33.8335 58.3535 34.0379C58.212 34.1375 58.06 34.0327 57.908 34.0065C57.887 33.9802 57.4991 33.6605 57.4048 33.5871C58.1543 33.0892 62.7145 28.8906 63.0867 28.9221C63.1234 28.9221 63.2492 29.3938 63.658 29.3571H63.6633Z" fill="#2D3544"/>
<path d="M97.3771 9.38139C97.8908 6.97025 97.5291 3.45837 95.0132 2.21086C92.906 1.16778 91.8472 2.20562 93.0371 2.94469C94.3789 3.78335 97.592 3.86721 96.4284 10.2043C89.782 15.8391 83.6389 22.0189 77.2231 27.9C76.7042 28.377 76.1958 28.8697 75.6821 29.3362C75.116 29.8551 74.5342 30.3636 73.9628 30.8825C73.8318 31.0031 73.706 31.1236 73.5749 31.2442C73.1399 31.6425 72.6839 32.0304 72.2436 32.434C68.6164 35.7153 64.9053 38.9179 61.2362 42.152C61.1314 41.7012 60.6334 40.9359 60.5443 40.6371C60.4342 40.2598 60.1197 40.0973 60.0673 38.1946C59.1972 36.9313 59.4436 36.4386 58.4477 34.8819C58.3166 34.6827 58.0598 34.1638 57.9025 34.0013C58.0545 34.0275 58.2013 34.1323 58.3481 34.0327C58.6363 33.8283 62.6829 30.1854 63.6578 29.352C64.9053 28.2931 66.1528 27.2343 67.4108 26.1808C71.1533 23.062 74.9692 20.0638 78.7432 16.9922C80.4153 15.6294 82.0926 14.2823 83.7594 12.9195C85.2009 11.7454 86.6161 10.6341 88.0418 9.42332C88.7704 8.80481 94.0225 4.70063 94.0592 4.30751C94.0959 3.90915 93.3149 3.72569 93.0056 3.68376C92.8693 3.66279 92.8536 3.4112 92.6859 3.45837C92.5339 3.49506 90.4687 4.93127 90.1018 5.17762C87.3552 7.0017 82.0768 11.2579 79.1101 13.5485C78.5597 13.9731 77.5586 15.1314 76.2377 16.1745C75.8393 16.489 74.2511 17.2595 74.162 17.3382C68.0031 22.281 62.122 27.5541 56.1151 32.6804C55.5176 32.3711 55.5386 32.4812 54.9777 32.4131C54.8205 32.3921 54.9253 31.978 54.0552 32.4969C56.2671 31.3647 58.0283 29.6402 59.9205 28.0258C60.1826 27.8057 60.3451 27.5646 60.5181 27.4178C61.5716 26.4691 62.9083 25.6199 63.8885 24.6083C64.0405 24.451 64.3287 24.3305 64.4493 24.1418C64.7743 23.6281 65.3142 20.9916 65.0049 20.5198C65.3351 19.9328 65.6077 20.2577 65.6758 20.2263L66.2105 20.5041L66.0061 22.6322C68.1079 20.3888 80.9342 11.0115 81.5527 10.2305C81.7571 9.9737 82.0349 9.82693 82.0402 9.4443C81.8934 8.72619 82.0192 7.9714 81.9563 7.24806C81.9091 6.69245 81.8095 6.64527 81.8043 6.61382C81.7781 6.44609 81.9825 6.30456 81.8305 5.86951C81.8095 5.81185 81.3745 5.70178 81.2854 4.98892C81.9982 4.44904 82.7373 4.05591 83.4292 3.54223C83.859 4.7216 84.4932 4.75305 85.0436 4.9732C85.4787 5.14617 85.6831 5.29293 86.181 5.24052C86.1234 5.54977 86.4221 6.64003 86.5165 6.67148C86.8048 6.77107 91.3807 3.40071 91.4908 3.11242C91.5589 2.92897 90.8985 0.994812 93.7814 0.722248C97.744 0.350093 101.188 4.51193 97.3666 9.38139H97.3771Z" fill="#0D0D0F"/>
<path d="M97.3772 9.38138C97.1256 9.70112 96.8582 10.1257 96.4284 10.2096C97.5921 3.87245 94.379 3.78334 93.0371 2.94993C93.4512 2.13748 94.2741 2.25279 95.0132 2.21609C97.5292 3.4636 97.8908 6.97024 97.3772 9.38663V9.38138Z" fill="#D2972B"/>
<path d="M85.7667 5.4344C86.4324 5.84848 84.2886 7.38952 83.8797 6.11581C83.6229 5.3086 85.6671 5.3715 85.7667 5.4344Z" fill="#191835"/>
<path d="M95.0133 2.21606C94.2742 2.25275 93.4513 2.13744 93.0372 2.94989C91.8474 2.20558 92.9062 1.17298 95.0133 2.21606Z" fill="#FFFBE7"/>
<path d="M10.9428 76.3902C9.14497 77.3022 10.0465 77.7268 10.0046 77.8211C9.95218 77.9417 9.31795 78.9481 9.27601 79.0005C9.12925 79.1787 6.52416 81.4483 5.84275 82.0931C5.83227 82.1035 5.58591 82.1664 5.52301 82.1664C5.46536 82.0459 5.41294 81.8729 5.30811 81.8153C5.85848 81.05 6.39312 80.1432 6.94349 79.3464C6.86486 79.5876 7.17936 79.4513 7.24226 79.3464C8.54218 77.145 10.2667 75.693 9.40705 75.2737C9.66913 74.9487 9.91549 74.9697 9.93645 74.9487C10.3191 75.3943 10.6231 75.9027 10.9481 76.3902H10.9428Z" fill="#E8D97A"/>
<path d="M6.93824 79.3464C7.74021 78.1827 9.1502 75.5829 9.4018 75.2737C10.2614 75.693 8.53693 77.1449 7.23701 79.3464C7.17411 79.4565 6.85438 79.5927 6.93824 79.3464Z" fill="#908F35"/>
<path d="M11.1893 76.5998C11.572 77.1606 11.876 77.7896 12.2743 78.3609C11.9232 78.5706 12.1066 78.9218 11.7554 79.2887C11.5038 78.7069 11.0426 78.4238 10.5341 78.0989C10.3035 77.9521 10.1987 77.9783 9.99948 77.8211C10.0414 77.7319 9.13986 77.3021 10.9377 76.3901C10.9587 76.4216 11.1684 76.5683 11.1893 76.5998Z" fill="#7B5321"/>
<path d="M5.83727 82.093C6.52392 81.4483 9.12376 79.1786 9.27053 79.0004L10.7906 80.185C8.66251 81.3067 6.52917 83.8961 5.83203 82.093H5.83727Z" fill="#221C10"/>
<path d="M10.5392 78.0989C10.1723 78.4606 11.3411 79.7238 11.7605 79.2888C12.1117 78.9219 11.9282 78.5707 12.2794 78.361C12.835 79.1525 13.5007 79.8706 13.9777 80.7145C13.8728 80.7669 13.768 80.8665 13.6265 80.9294C13.1705 80.3214 10.3295 82.3289 8.64695 82.6067C8.41108 82.8583 7.91312 83.2672 7.63007 83.4192C7.17929 83.6603 6.69707 83.9014 6.25677 84.1477C6.50313 83.6131 5.94751 83.3405 5.77978 82.9841C5.76406 82.9474 5.87414 82.8845 5.52295 82.1717C5.58585 82.1717 5.82696 82.1088 5.84269 82.0983C6.53982 83.9014 8.67316 81.3068 10.8013 80.1903L9.28119 79.0057C9.32312 78.9533 9.95736 77.9469 10.0098 77.8264C10.209 77.9784 10.3138 77.9574 10.5444 78.1042L10.5392 78.0989Z" fill="#D2972B"/>
<path d="M13.6214 80.9294C11.682 81.8677 9.63254 82.6434 7.625 83.4192C7.90805 83.2672 8.406 82.8583 8.64187 82.6067C10.3244 82.3289 13.1654 80.3214 13.6214 80.9294Z" fill="#604C1E"/>
<path d="M12.5731 79.3307C13.4695 79.273 11.5458 81.3906 11.2051 80.662C11.4672 80.3633 12.2691 79.3516 12.5731 79.3307Z" fill="#8F6B29"/>
<path d="M11.7607 79.2888C11.3414 79.7238 10.1777 78.4606 10.5394 78.0989C11.0479 78.4239 11.5091 78.7069 11.7607 79.2888Z" fill="#341B0D"/>
<path d="M86.1912 5.23534C85.6932 5.28776 85.4888 5.14099 85.0537 4.96801C85.5098 3.47939 87.6221 2.3839 85.0799 1.67104C82.5692 0.968664 80.3782 3.89349 78.6747 5.26679C73.7895 9.20324 68.9463 13.3127 64.3494 17.5793C63.1071 18.7325 60.0879 21.4581 60.0984 22.2077C59.9097 22.0766 59.7629 21.9404 59.5952 21.7884C59.7787 21.3533 59.9936 21.3061 60.2242 21.0336C60.4706 20.7453 60.8794 20.2264 61.0629 20.0272C62.1898 18.8321 67.6306 14.0465 69.4757 12.4006C71.0691 10.9749 81.893 1.56097 82.7003 1.25171C85.7247 0.103796 87.9209 2.49921 86.1912 5.23009V5.23534Z" fill="#604C1E"/>
<path d="M81.8355 5.85899C78.9368 7.95564 65.7227 18.6485 64.6115 20.2682C64.5958 20.2944 64.2813 20.3992 64.2079 20.698C64.276 21.1593 64.3284 21.6887 64.318 22.1499C63.8253 22.1342 64.3075 21.4056 63.9878 21.3218C63.7257 21.2536 63.4059 21.9455 63.3954 22.2338C63.0967 21.7359 62.3366 23.062 61.4298 23.8744L59.4223 22.1971C59.2913 21.7254 59.5848 21.8092 59.5953 21.7883C59.763 21.9403 59.9045 22.0766 60.0985 22.2076C60.1719 22.2548 60.4549 22.4382 60.4916 22.4487C60.523 22.4592 60.6384 22.8104 61.0996 22.7422C61.3617 22.7056 64.5276 19.6864 65.0099 19.2356C65.0623 19.1884 65.6913 18.1034 65.7385 18.0562C66.0372 17.7784 67.5573 16.7354 68.1234 16.2164C68.3697 15.991 68.4064 15.5612 68.4326 15.5403C69.2294 14.8169 71.2841 13.4593 71.9078 12.909C74.5758 10.5607 77.1652 8.06048 80.0585 5.74892C80.3835 5.5445 81.0544 5.16711 81.2903 4.98889C81.3742 5.70175 81.8145 5.80658 81.8355 5.86948V5.85899Z" fill="#3D3215"/>
<path d="M81.8092 6.60326C79.267 8.1443 66.6295 19.765 65.6755 20.2157C65.6074 20.2472 65.3348 19.9222 65.0046 20.5093C64.9679 20.4516 64.5538 20.5198 64.6115 20.2682C65.7227 18.6485 78.9368 7.95559 81.8354 5.85895C81.9874 6.294 81.783 6.43553 81.8092 6.60326Z" fill="#B49530"/>
<path d="M81.9615 7.24275C76.5574 11.4046 71.452 16.0854 66.2104 20.4988L65.6758 20.221C66.6298 19.7702 79.2673 8.14431 81.8095 6.60852C81.8147 6.63997 81.9143 6.69238 81.9615 7.24275Z" fill="#352412"/>
<path d="M85.0485 4.96784C84.4981 4.74769 83.8639 4.711 83.4341 3.53688C84.084 3.05465 84.3409 2.94458 84.8022 2.20551C84.8965 2.05875 85.0695 2.00109 85.08 1.67087C87.6221 2.38373 85.5098 3.47922 85.0538 4.96784H85.0485Z" fill="#8F6B29"/>
<path d="M84.8022 2.20551C84.3461 2.93933 84.0893 3.05464 83.4341 3.53687C82.7422 4.05055 82.0031 4.44367 81.2903 4.98356C81.0544 5.16177 80.3835 5.53917 80.0585 5.7436C79.1307 5.60731 78.6747 6.98585 77.6631 6.98061C78.4179 6.37782 79.4295 5.76456 79.9432 4.96783C81.4475 4.1449 82.5797 2.21074 84.8022 2.21074V2.20551Z" fill="#DCA831"/>
<path d="M65.0047 20.5093C65.314 20.9811 64.7689 23.6228 64.4491 24.1313C64.0508 24.1575 64.2971 22.8995 64.3181 22.1447C64.3286 21.6834 64.2814 21.154 64.208 20.6928C64.2814 20.394 64.5959 20.2839 64.6116 20.263C64.554 20.5146 64.9681 20.4517 65.0047 20.5041V20.5093Z" fill="#454953"/>
<path d="M64.3179 22.1501C64.297 22.9049 64.0506 24.1629 64.449 24.1367C64.3284 24.3254 64.0401 24.4512 63.8881 24.6032C63.9353 23.775 63.3692 23.0517 63.3954 22.234C63.4059 21.9457 63.7256 21.2538 63.9877 21.3219C64.3075 21.4058 63.8252 22.1396 64.3179 22.1501Z" fill="#0D0D0F"/>
<path d="M58.9559 24.4877C58.8773 24.2623 58.6099 23.4604 58.6204 23.3555C58.851 21.7464 59.9151 23.5076 60.9215 24.4248C59.6058 25.6357 59.6687 26.5844 58.9559 24.4877Z" fill="#0D0D0F"/>
<path d="M77.6631 6.97537C73.5222 10.2933 69.266 13.5117 65.4711 17.2385C65.3558 17.3538 65.5602 17.5477 65.5445 17.5582C63.8776 19.1988 62.1007 20.7503 60.4811 22.4486C60.4444 22.4329 60.1613 22.2547 60.088 22.2075C60.0722 21.458 63.0914 18.7323 64.3389 17.5792C68.9358 13.3125 73.7791 9.19782 78.6642 5.26661C79.288 5.53393 79.3561 5.28233 79.9379 4.96783C79.4295 5.76456 78.4126 6.37783 77.6578 6.98061L77.6631 6.97537Z" fill="#E8D97A"/>
<path d="M85.0799 1.67099C85.0695 2.00122 84.8965 2.05888 84.8021 2.20564C82.5797 2.20564 81.4475 4.14504 79.9432 4.96273C79.3613 5.27722 79.2984 5.52882 78.6694 5.2615C80.373 3.88819 82.564 0.96337 85.0747 1.66575L85.0799 1.67099Z" fill="#FDF7D1"/>
<path d="M80.0586 5.73847C77.1653 8.05527 74.5707 10.5503 71.9079 12.8985C71.2842 13.4489 69.2295 14.8065 68.4327 15.5298C68.4065 15.556 68.3698 15.9858 68.1235 16.206C67.5574 16.7249 66.0321 17.768 65.7386 18.0458C65.6861 18.093 65.0571 19.178 65.01 19.2251C64.533 19.6759 61.3618 22.6951 61.0997 22.7318C60.6437 22.7999 60.5231 22.4487 60.4917 22.4383C62.1114 20.74 63.8883 19.1937 65.5551 17.5478C65.5656 17.5373 65.3612 17.3434 65.4817 17.2281C69.2766 13.5013 73.5276 10.283 77.6737 6.96501C78.6853 6.96501 79.1414 5.5917 80.0691 5.72799L80.0586 5.73847Z" fill="#987B2D"/>
<path d="M47.5554 39.6726C47.8752 39.9295 48.3784 40.1182 48.4832 40.1915C49.0336 40.5689 49.6311 40.9516 50.1657 41.3395C50.7056 41.7273 50.9153 41.7955 50.952 41.8269C50.973 41.8427 50.8996 41.8741 51.3137 42.2148C51.9479 42.739 52.2414 43.0902 52.7866 43.6143C53.4732 44.28 54.2332 45.0086 54.836 45.7529C55.1086 46.0884 55.4074 46.4762 55.6328 46.8432C55.7481 47.0266 55.8477 47.3044 55.9263 47.5141C55.9053 47.5246 55.8686 47.8705 55.6118 47.8915C55.1663 47.9229 54.4062 47.3568 53.924 47.7185C50.8943 51.1832 34.986 64.5022 33.8748 65.8178C33.2458 66.5569 33.1043 67.4951 33.0099 67.5685C32.7426 67.7782 32.6011 67.2278 32.2656 67.5423C32.0927 67.7048 31.5842 68.7164 30.4153 69.6599C27.4329 72.0658 26.7619 71.5312 25.4463 72.244C24.9641 72.5061 16.9496 78.3191 16.5565 78.7069C16.4831 78.7803 16.436 79.3831 16.3206 79.7029C16.0743 79.9912 14.4232 80.5101 13.9776 80.725C13.5006 79.8811 12.835 79.163 12.2794 78.3715C11.881 77.8054 11.5717 77.1712 11.1943 76.6103C12.0854 75.8765 12.8507 74.9592 13.7156 74.1992C14.8739 73.1823 23.2396 66.3682 23.3759 65.7392C23.4283 65.4876 22.5739 64.8953 22.3904 64.8324C22.2175 64.7695 22.2751 64.5441 21.9816 64.6594C21.4731 64.8638 15.5292 71.2534 14.1716 72.2807C13.7522 72.6005 13.27 73.1194 13.0079 72.7577C15.8419 69.8713 18.6776 66.9867 21.5151 64.1038C21.1796 63.37 21.2478 62.7305 21.7038 62.0438C21.9082 61.7346 26.5523 57.9187 27.349 57.2163C27.4486 57.1272 27.7264 57.3369 28.1615 56.9595C30.8661 54.585 33.3873 51.9223 36.0815 49.5164C38.7495 47.1315 45.0395 42.0471 46.6381 40.4432C47.1047 39.9766 46.5595 39.4001 47.2095 39.3005C47.372 39.4001 47.4191 39.5626 47.5712 39.6884L47.5554 39.6726Z" fill="#0D0D0F"/>
<path d="M30.4364 59.3654C30.3106 59.1767 30.1219 58.9775 29.9699 58.8045C29.8074 58.6211 29.6869 58.4009 29.5034 58.2437C35.6256 52.2368 42.2248 46.7488 48.7139 41.1508C48.8345 41.177 50.365 42.0366 49.778 42.3773C43.0792 47.7342 36.5691 53.369 30.4417 59.3654H30.4364Z" fill="#454953"/>
<path d="M48.7138 41.1455C42.2247 46.7435 35.6255 52.2315 29.5033 58.2384C29.0997 57.8977 29.1678 57.8662 29.1416 57.8505C32.6378 54.7475 45.008 43.0953 47.5659 41.5491C47.9852 41.2975 48.1634 41.0249 48.7138 41.1455Z" fill="#7D7C8C"/>
<path d="M30.4367 59.3655C31.4483 60.8489 32.1769 63.0451 32.46 64.801C32.1927 65.2466 32.1717 65.6974 31.983 66.1901C31.7943 66.0748 31.6842 66.2425 31.5217 66.232C31.008 64.4865 29.3517 63.6898 28.2457 62.3008C28.665 61.9181 29.1211 61.9339 29.0896 61.5984C27.9679 61.2577 27.6377 62.4423 27.5381 62.4318C26.3325 62.3375 28.4868 60.419 26.9563 61.394C25.6197 61.546 29.3622 59.1191 29.9702 58.7994C30.1222 58.9724 30.3109 59.1715 30.4367 59.3602V59.3655Z" fill="#E8D97A"/>
<path d="M31.5162 66.2267C31.3957 66.2214 31.207 66.169 31.0917 66.1271C30.5046 65.9122 30.5518 65.6292 30.232 65.6239C29.4353 65.9017 29.3357 67.1545 28.9636 67.5004C28.56 67.8778 27.4697 67.6105 27.4645 68.1242C27.4435 68.0875 27.3387 68.1661 26.8564 67.5266C26.998 67.2278 27.4645 66.8924 27.4697 66.8452C27.4802 66.7299 27.1342 66.4311 27.0189 66.211L27.6479 65.4562C27.6479 65.4562 27.7161 65.2255 27.8943 65.3618C27.9991 65.4457 27.7842 65.8074 28.0463 65.9961C28.1721 66.0852 28.9845 66.0537 29.0212 65.9961C29.1313 65.8388 27.7737 64.4393 27.6322 64.2401C27.454 63.9938 27.2758 63.5063 27.1238 63.218C27.5012 62.9035 27.8786 62.6205 28.2455 62.2798C29.3567 63.6688 31.0078 64.4603 31.5215 66.211L31.5162 66.2267Z" fill="#352412"/>
<path d="M28.2402 62.3007C27.8733 62.6362 27.4959 62.9192 27.1185 63.239C26.5315 63.7264 26.3899 63.9256 26.348 63.9571C26.1593 64.1143 25.9759 64.2663 25.7872 64.4236C25.5775 64.6018 24.7703 64.9372 24.6654 65.3618C24.5292 65.2465 22.1914 64.5808 22.0132 63.2337C22.1757 63.2809 22.2595 63.6059 22.3015 63.6006C22.4378 63.5902 22.422 63.3281 22.4744 63.1918C23.5228 65.6606 23.984 63.2285 24.9275 62.3426C25.4412 61.8604 25.0795 62.6886 25.2001 62.783C25.2368 62.8144 25.8763 62.1644 25.8815 62.1173C25.9129 61.8709 25.1162 62.3951 25.7138 61.5512C26.2222 62.0858 27.412 62.9926 26.5681 61.7503C26.6677 61.635 26.8355 61.4673 26.956 61.3887C28.4866 60.4137 26.3323 62.3322 27.5379 62.4265C27.6374 62.4318 27.9677 61.2472 29.0894 61.5931C29.1208 61.9286 28.6648 61.9128 28.2455 62.2955L28.2402 62.3007Z" fill="#E8D97A"/>
<path d="M28.8534 57.7877C28.9373 57.8244 29.0736 57.8191 29.1365 57.8558C29.1574 57.8715 29.0945 57.8977 29.4981 58.2437C29.6816 58.4009 29.8074 58.6211 29.9646 58.8045C29.3514 59.119 25.6141 61.5511 26.9507 61.3991C26.8301 61.4778 26.6677 61.6455 26.5628 61.7608C26.2116 61.2471 25.6088 60.8907 25.2314 60.3927C26.2588 59.5436 27.6374 58.0655 28.8482 57.7929L28.8534 57.7877Z" fill="#F8F9FC"/>
<path d="M31.0916 66.1271C30.5255 66.3577 30.3735 67.6838 30.0013 68.1975C29.7864 68.4963 27.8837 70.1317 27.7631 69.3978C27.5692 68.8999 27.5115 68.2132 27.4644 68.1241C27.4696 67.6104 28.5599 67.8778 28.9635 67.5004C29.3356 67.1544 29.4352 65.9017 30.2319 65.6239C30.5517 65.6239 30.5045 65.9122 31.0916 66.1271Z" fill="#987B2D"/>
<path d="M28.8536 57.7877C27.6428 58.0602 26.259 59.5384 25.2369 60.3875C25.2211 60.4033 25.2369 60.3037 24.8857 60.6024C23.6853 61.6245 23.114 61.4935 22.4745 63.1865C22.4221 63.3228 22.4378 63.5849 22.3015 63.5954C22.2596 63.5954 22.1757 63.2757 22.0133 63.2285C21.8193 61.7503 26.867 58.38 28.1093 57.4575C28.9951 57.5833 28.8221 57.7667 28.8588 57.7824L28.8536 57.7877Z" fill="#C6C138"/>
<path d="M31.9776 66.1848C30.9712 68.7898 29.3043 68.6483 29.3306 69.7648C28.9112 70.0478 28.45 70.6768 28.1722 70.5405C27.9468 70.1998 27.9101 69.7595 27.7686 69.3926C27.8891 70.1264 29.7866 68.4911 30.0067 68.1923C30.3789 67.6786 30.5309 66.3525 31.097 66.1219C31.2175 66.1638 31.4062 66.2162 31.5215 66.2214C31.684 66.2319 31.7941 66.0642 31.9828 66.1795L31.9776 66.1848Z" fill="#F4F197"/>
<path d="M27.0136 66.2162C27.129 66.4364 27.4749 66.7299 27.4644 66.8505C27.4644 66.8976 26.9927 67.2331 26.8512 67.5319C26.7568 67.4113 24.8908 65.5505 24.6602 65.3618C24.7702 64.9373 25.5722 64.6018 25.7819 64.4236C26.0387 65.1102 26.6729 65.5872 27.0084 66.2162H27.0136Z" fill="#8F6B29"/>
<path d="M29.3304 69.77C29.3095 68.6535 30.9711 68.795 31.9775 66.1899C32.1661 65.6972 32.1871 65.2464 32.4544 64.8009C32.5278 65.2674 32.7113 65.7339 32.879 66.1795C32.7951 67.1072 30.1691 69.2039 29.3252 69.77H29.3304Z" fill="#B49530"/>
<path d="M26.8513 64.3763C27.0138 64.5807 27.1029 64.9948 27.648 65.4666L27.019 66.2214C26.6836 65.5924 26.0493 65.1154 25.7925 64.4287C25.9812 64.2715 26.1646 64.1142 26.3533 63.9622C26.6259 64.3606 26.8356 64.3553 26.8565 64.3815L26.8513 64.3763Z" fill="#604C1E"/>
<path d="M27.6429 65.4613C27.103 64.9896 27.0087 64.5755 26.8462 64.3711C27.3337 64.6646 27.2079 64.5545 27.6272 64.2558C27.7687 64.4497 29.1263 65.8544 29.0162 66.0117C28.9795 66.0641 28.1618 66.0956 28.0413 66.0117C27.7844 65.823 27.9993 65.4613 27.8893 65.3775C27.7058 65.2359 27.6534 65.4771 27.6429 65.4718V65.4613Z" fill="#8F6B29"/>
<path d="M27.627 64.2559C27.2076 64.5547 27.3334 64.6648 26.846 64.3712C26.825 64.345 26.6206 64.3503 26.3428 63.9519C26.3847 63.9204 26.5262 63.7213 27.1133 63.2338C27.2653 63.5221 27.4435 64.0096 27.6217 64.2559H27.627Z" fill="#C3862B"/>
<path d="M25.7139 61.5512C25.1164 62.3951 25.9079 61.8709 25.8817 62.1172C25.8764 62.1644 25.2369 62.8144 25.2002 62.7829C25.0797 62.6886 25.4414 61.8604 24.9277 62.3426C23.9842 63.2285 23.5229 65.6553 22.4746 63.1918C23.1193 61.4987 23.6854 61.6298 24.8858 60.6077C25.4256 60.9693 25.672 61.5092 25.7139 61.5564V61.5512Z" fill="#F8F9FC"/>
<path d="M25.2369 60.3874C25.6091 60.8854 26.2119 61.2365 26.5683 61.7555C27.4122 62.9925 26.2276 62.0857 25.7139 61.5563C25.672 61.5091 25.4256 60.9692 24.8857 60.6076C25.2422 60.3088 25.2212 60.4031 25.2369 60.3927V60.3874Z" fill="#8F6B29"/>
<path d="M54.983 32.413C52.509 34.8312 50.0349 37.2511 47.5609 39.6727C47.4089 39.5521 47.3617 39.3844 47.1992 39.2848C47.9435 38.6191 48.5358 37.77 49.2277 37.0624C49.5842 36.6954 50.014 36.36 50.3861 35.9826C51.0203 35.3326 51.6755 34.6512 52.3465 34.0432C52.6767 33.7444 53.1118 33.3041 53.3581 32.932L54.0605 32.4969C54.9306 31.9832 54.8258 32.3921 54.983 32.413Z" fill="#3D3215"/>
<path d="M61.2417 42.1572C61.2679 42.2672 61.2941 42.3668 61.3151 42.4769C61.3256 42.5188 60.6809 42.8176 61.4986 42.9696C61.3937 43.1111 61.4985 43.4099 61.2941 43.52C61.2312 43.5567 60.9324 43.3837 60.7962 43.4047C60.7752 43.4047 60.7857 43.1007 60.3873 43.2317C60.1148 43.3208 58.5895 45.1763 55.8062 46.7331C56.2622 45.559 58.9826 44.7622 60.0781 42.6341C60.1148 42.566 60.8224 42.7128 59.8212 41.8217C60.1672 41.4024 59.7007 41.2661 60.5498 40.6423C60.6389 40.9411 61.1421 41.7116 61.2417 42.1572Z" fill="#B49530"/>
<path d="M60.7962 43.4046C60.2353 44.411 56.6867 47.1524 55.9215 47.5088C55.8428 47.2991 55.7432 47.0213 55.6279 46.8379C55.7957 46.8955 55.7957 46.733 55.8061 46.7278C58.5894 45.171 60.1147 43.3207 60.3873 43.2264C60.7857 43.0954 60.7752 43.3994 60.7962 43.3994V43.4046Z" fill="#352412"/>
<path d="M61.5039 42.9701C60.6852 42.8127 61.3254 42.5188 61.3202 42.4768C62.4327 42.7025 61.5354 42.9281 61.5039 42.9701Z" fill="#341B0D"/>
<path d="M57.4097 33.5871C57.5041 33.6605 57.8867 33.9803 57.9129 34.0065C58.0649 34.169 58.327 34.6879 58.4581 34.8871C58.3218 35.0391 58.2799 35.0705 58.217 35.2802C57.9811 36.0297 57.8972 35.9406 57.2053 36.3914C56.3195 36.9627 55.9631 36.8055 55.9002 36.8317C55.5699 36.3023 54.5531 35.364 54.0708 35.0443C52.9334 33.9645 55.507 32.6961 56.3824 32.8848C56.4296 32.8953 56.4767 32.9057 56.5239 32.9162C56.6916 32.9686 57.1948 33.4037 57.4202 33.5767L57.4097 33.5871Z" fill="#F8F9FC"/>
<path d="M60.5495 40.6371C59.7004 41.2609 60.1668 41.3971 59.8209 41.8165C59.7475 41.9056 59.6584 41.9632 59.6112 42.0681L59.4697 42.0366C59.9467 40.8625 59.8157 40.6843 59.4121 40.3698C59.3858 40.3488 58.9823 40.1444 58.8774 40.092C59.1343 38.7134 56.1832 36.7321 56.6183 38.205C56.6026 38.1893 56.3352 38.1002 56.2252 37.9639C56.1518 37.8695 56.0155 37.728 56.0103 37.6127C56.2461 37.445 56.5292 37.2196 56.7493 37.0361L57.2787 37.0099C56.7808 38.2469 59.9729 35.6209 58.2117 35.2802C58.2799 35.0705 58.3166 35.0391 58.4528 34.8871C59.4488 36.4438 59.2024 36.9313 60.0725 38.1998C60.1197 40.0972 60.4342 40.2597 60.5495 40.6423V40.6371Z" fill="#DCA831"/>
<path d="M56.1206 32.6803C56.2254 32.7327 56.4299 32.6803 56.3722 32.8899C55.4916 32.7012 52.918 33.9697 54.0607 35.0495C53.657 34.7874 53.657 34.6511 53.6308 34.6459C53.4317 34.6144 53.5679 35.1019 53.0385 35.5579C52.4724 36.0454 51.9063 36.428 51.356 36.9627C50.9157 37.3872 50.9576 37.4396 50.9366 37.4659C50.0665 38.3307 49.013 39.0069 48.4888 40.1915C48.384 40.1181 47.8808 39.9294 47.561 39.6726C50.0351 37.2544 52.5091 34.8346 54.9832 32.4129C55.544 32.4863 55.5231 32.371 56.1206 32.6803Z" fill="#C6C138"/>
<path d="M57.4468 39.1537C57.0641 39.6569 55.9634 40.4379 55.3554 40.3855C54.957 41.6854 53.4841 42.4088 52.7922 43.6091C52.2523 43.0849 51.9536 42.7337 51.3193 42.2096C52.3886 41.2189 53.4579 40.2754 54.4381 39.1904C55.13 39.4839 56.4509 39.5206 56.9855 38.5876C57.1585 38.7711 57.2633 38.986 57.452 39.1485L57.4468 39.1537Z" fill="#7B5321"/>
<path d="M52.2205 38.3728C52.2205 38.3728 52.1105 38.6034 52.2205 38.6715C52.3883 38.7764 52.5141 38.551 52.6084 38.6139C52.1943 39.7933 50.8158 40.265 50.1606 41.3395C49.626 40.9516 49.0284 40.569 48.478 40.1916C49.0022 39.0018 50.0558 38.3308 50.9259 37.466C51.5339 38.1055 52.1157 38.3046 52.2153 38.3728H52.2205Z" fill="#F8F9FC"/>
<path d="M56.7441 37.0361C56.524 37.2196 56.2409 37.4502 56.0051 37.6127C55.9265 37.6704 55.1874 37.749 54.3907 38.7344C54.1548 39.028 54.4483 39.18 54.4326 39.1957C53.4524 40.2807 52.3831 41.2242 51.3138 42.2149C50.905 41.8794 50.9731 41.8479 50.9521 41.827L53.9504 39.3058C53.2427 39.1852 53.1484 38.9598 52.6137 38.6139C52.5142 38.551 52.3936 38.7764 52.2259 38.6715C52.1106 38.6034 52.2364 38.378 52.2259 38.3728C52.6085 38.5405 52.5561 38.1631 52.5771 38.1579C52.75 38.0897 53.3161 38.226 53.3947 38.1998C53.9399 38.0006 54.3173 37.4293 55.0825 37.0938C55.1192 37.0781 55.0563 37.2458 55.895 36.837C55.9579 36.8055 56.3196 36.968 57.2002 36.3967C57.3574 36.7164 57.1635 36.6902 56.7494 37.0414L56.7441 37.0361Z" fill="#B49530"/>
<path d="M60.0779 42.6289C58.9772 44.757 56.262 45.5537 55.806 46.7279C55.7955 46.7279 55.8007 46.8956 55.6278 46.8379C55.4024 46.4763 55.1036 46.0831 54.8311 45.7477C56.3354 45.1134 57.8555 44.128 58.8356 42.7862C58.8671 42.7442 59.2445 42.5765 59.4646 42.0314L59.6062 42.0628L60.0727 42.6237L60.0779 42.6289Z" fill="#F4F197"/>
<path d="M50.9523 41.8269C50.9156 41.8007 50.7059 41.7325 50.166 41.3394C50.8212 40.2596 52.1998 39.7931 52.6139 38.6138C53.1537 38.9597 53.2481 39.1851 53.9505 39.3057L50.9523 41.8269Z" fill="#E8D97A"/>
<path d="M60.0784 42.6299L59.6113 42.0684C59.6586 41.9635 59.7478 41.9057 59.8212 41.8165C60.8235 42.7086 60.1151 42.5617 60.0784 42.6299Z" fill="#341B0D"/>
<path d="M54.0606 35.0495C54.5428 35.364 55.5649 36.3075 55.8899 36.8369C55.0512 37.2457 55.1141 37.078 55.0774 37.0937C54.7996 36.7583 54.3698 36.6377 54.0396 36.3966C53.6937 36.145 53.3791 35.8148 53.0332 35.5579C53.5626 35.1019 53.4263 34.6144 53.6255 34.6459C53.657 34.6459 53.6517 34.7822 54.0553 35.0495H54.0606Z" fill="#987B2D"/>
<path d="M56.7441 37.0362C57.1582 36.685 57.3522 36.7165 57.1949 36.3915C57.892 35.9407 57.9707 36.0298 58.2066 35.2803C59.9677 35.6262 56.7704 38.247 57.2735 37.01L56.7441 37.0362Z" fill="#D2972B"/>
<path d="M58.8777 40.092C58.8148 40.0606 58.537 40.2755 58.2015 40.0815C57.9027 39.9086 57.7245 39.3949 57.4467 39.1538C57.258 38.9913 57.1479 38.7764 56.9802 38.5929C56.8596 38.4619 56.7496 38.3308 56.6185 38.205C56.1782 36.7321 59.1345 38.7135 58.8777 40.092Z" fill="#352412"/>
<path d="M56.6186 38.2103C56.7444 38.3361 56.8597 38.4672 56.9803 38.5982C56.4509 39.5312 55.1247 39.4893 54.4329 39.201C54.4486 39.1853 54.1551 39.0333 54.3909 38.7397C54.9098 38.7817 55.9739 38.5248 56.2255 37.9692C56.3356 38.1055 56.6029 38.1946 56.6186 38.2103Z" fill="#946427"/>
<path d="M56.2252 37.9639C55.9736 38.5195 54.9148 38.7764 54.3906 38.7344C55.1926 37.749 55.9264 37.6704 56.005 37.6127C56.0155 37.7333 56.1518 37.8748 56.2199 37.9639H56.2252Z" fill="#8F6B29"/>
<path d="M53.0385 35.5579C53.3845 35.8147 53.699 36.145 54.0449 36.3966C53.7461 37.0884 52.9127 37.2667 52.5039 37.8328L51.356 36.9626C51.9116 36.428 52.4777 36.0454 53.0385 35.5579Z" fill="#F8F9FC"/>
<path d="M52.4984 37.8381C52.4302 37.9324 52.6242 38.0425 52.5718 38.1578C52.5508 38.1683 52.6032 38.5457 52.2206 38.3727C52.121 38.3046 51.5392 38.1054 50.9312 37.4659C50.9521 37.4449 50.9102 37.3925 51.3505 36.9627L52.4984 37.8328V37.8381Z" fill="#8F6B29"/>
<path d="M58.8774 40.0919C58.9875 40.1443 59.3911 40.3487 59.412 40.3697C59.3282 41.6487 57.7085 43.4046 58.8407 42.7861C57.8605 44.1227 56.3404 45.1134 54.8361 45.7476C54.2333 45.0033 53.4733 44.2747 52.7866 43.609C53.4838 42.4087 54.9514 41.6854 55.3498 40.3854C55.9578 40.4379 57.0638 39.6569 57.4412 39.1537C57.719 39.4 57.8972 39.9085 58.196 40.0814C58.5262 40.2701 58.804 40.0605 58.8721 40.0919H58.8774Z" fill="#593F17"/>
<path d="M59.4698 42.0366C59.2497 42.5817 58.8723 42.7495 58.8409 42.7914C57.7087 43.4047 59.3283 41.654 59.4122 40.375C59.8158 40.6895 59.9468 40.8677 59.4698 42.0418V42.0366Z" fill="#7B5321"/>
<path d="M56.6446 40.3172C59.5432 40.7575 56.891 42.9276 56.1047 42.5921C55.287 42.2461 56.587 41.6591 56.6446 40.3172Z" fill="#221C10"/>
<path d="M55.0775 37.0938C54.3122 37.4293 53.9348 38.0006 53.3897 38.1998C53.311 38.226 52.7502 38.0897 52.572 38.1579C52.6244 38.0425 52.4304 37.9325 52.4986 37.8381C52.9074 37.2668 53.7408 37.0886 54.0396 36.4019C54.3646 36.6378 54.7997 36.7636 55.0775 37.0991V37.0938Z" fill="#E8D97A"/>
</svg>
