<svg width="72" height="68" viewBox="0 0 72 68" fill="none" xmlns="http://www.w3.org/2000/svg">
<path d="M13.663 54.8781C13.3852 55.0039 13.1127 54.7051 13.0445 54.6789C12.8558 54.6108 11.5716 54.2596 11.4878 54.2596L11.4249 54.0185C11.6188 54.0971 13.2647 54.485 13.3381 54.4221C13.6054 52.8391 13.7207 52.5194 12.6881 51.057C12.5256 50.9888 9.98343 52.6504 10.0673 52.9806C9.82094 52.6766 9.84715 52.5928 9.78425 52.4879C12.1535 50.8158 13.2699 50.8473 11.5454 49.1595C10.7312 49.7256 9.91529 50.2917 9.09759 50.8578C9.09759 50.8578 8.9089 50.8368 9.12905 50.386C9.70563 50.0873 10.6701 49.1857 11.4091 48.8345L10.56 47.2778C10.1616 47.304 10.0358 47.566 9.86287 47.6656L9.81045 47.2673C10.4028 46.6959 10.277 46.3028 9.17622 45.4432C9.01373 45.5533 8.87221 45.7577 8.71496 45.8468C8.57344 45.5008 8.91939 45.5008 8.99801 45.1549C9.12381 44.5783 8.32708 43.4828 8.11218 43.5562C7.54608 44.0961 6.47155 44.6098 5.98932 45.1182L6.4401 44.2796C6.94854 43.9441 7.4098 43.4881 7.97065 43.2312C8.07024 43.0897 7.75575 42.4555 7.67712 42.3035C7.74526 42.1986 8.31659 41.7164 8.31135 41.6745C8.29563 41.3862 5.6591 37.4969 5.51758 36.6215C5.5962 36.5744 5.66958 36.6216 5.9369 36.2546C7.29972 39.6093 12.9816 48.1741 15.2303 51.9428C15.419 52.6399 13.034 52.252 13.6526 54.8833L13.663 54.8781Z" fill="#CCC1D4"/>
<path d="M11.4247 54.0185C11.2412 53.9451 10.5755 53.7092 10.5388 53.683C10.1562 53.3947 10.0986 53.0121 10.0723 52.9806C9.98848 52.6504 12.5307 50.9888 12.6931 51.057C13.7205 52.5194 13.6104 52.8391 13.3431 54.4221C13.2697 54.4902 11.6239 54.0971 11.4299 54.0185H11.4247Z" fill="#141113"/>
<path d="M7.68228 42.2983C7.76091 42.4503 8.0754 43.0845 7.97581 43.226C7.41496 43.4829 6.9537 43.9389 6.44526 44.2743C6.2356 44.4106 5.33404 45.1182 5.17155 45.0239L4.24902 43.378L7.03233 41.3862C7.26296 41.7793 7.62987 42.1987 7.68228 42.2983Z" fill="#141113"/>
<path d="M7.68247 42.2981C7.63005 42.1933 7.26314 41.7792 7.03251 41.3861C6.92244 41.2026 6.78091 41.2865 6.7285 41.2079C6.68132 41.1345 6.8805 40.8514 5.99466 39.6983C5.70638 39.5987 5.633 39.866 5.46526 39.9394L5.32899 39.6144C6.02612 38.9802 4.90441 38 4.55847 38.0629C4.66854 37.979 4.5637 37.9109 4.56894 37.9057C4.69474 37.6226 4.61613 37.4549 4.29639 37.2557C4.42743 37.219 5.29753 36.763 5.52292 36.6267C5.66445 37.4968 8.30098 41.3913 8.3167 41.6796C8.3167 41.7268 7.74537 42.2038 7.68247 42.3086V42.2981Z" fill="#CCC1D4"/>
<path d="M8.99793 45.1549L6.53961 47.0105C5.23969 45.4013 5.52274 45.611 5.98924 45.113C6.46623 44.6046 7.546 44.0909 8.1121 43.551C8.32176 43.4776 9.12373 44.5731 8.99793 45.1497V45.1549Z" fill="#141113"/>
<path d="M6.72852 41.2027C4.23875 42.597 4.11295 44.1799 3.19043 41.4857C3.91377 41.0612 4.76815 40.254 5.47053 39.9342C5.63826 39.8556 5.71165 39.5935 5.99994 39.6931C6.88577 40.8515 6.68134 41.1346 6.73376 41.2027H6.72852Z" fill="#141113"/>
<path d="M9.12906 50.3861C9.03471 50.4333 8.64682 50.6482 8.59965 50.6272C7.7243 49.1333 7.35739 49.1386 9.86288 47.6657C10.0359 47.5661 10.1669 47.2988 10.56 47.2778L11.4092 48.8346C10.6701 49.1858 9.70563 50.0873 9.12906 50.3861Z" fill="#141113"/>
<path d="M5.329 39.6093C5.19796 39.7246 3.03317 41.1766 2.89164 41.1503L1.88525 39.5831L4.55848 38.0578C4.90443 38.0001 6.02613 38.9803 5.329 39.6093Z" fill="#141113"/>
<path d="M9.78421 52.4879C9.55882 52.1262 8.92459 51.2456 8.88265 51.1251C8.7883 50.8368 9.08707 50.9049 9.09755 50.863C9.91175 50.2969 10.7277 49.7308 11.5454 49.1647C13.2699 50.8525 12.1482 50.8158 9.78421 52.4931V52.4879Z" fill="#141113"/>
<path d="M9.81056 47.262C9.3493 47.7076 8.21712 48.237 7.68771 48.824C6.2882 47.5556 6.66559 47.0157 8.71507 45.8468C8.87231 45.7577 9.01384 45.548 9.17633 45.4432C10.2718 46.2976 10.3976 46.6959 9.81056 47.2673V47.262Z" fill="#141113"/>
<path d="M4.56885 37.8953L1.75934 39.0956C-0.494551 35.4108 2.51414 37.78 4.29629 37.2453C4.62127 37.4445 4.69989 37.6122 4.56885 37.8953Z" fill="#18130C"/>
<path d="M19.4028 49.4006C19.3766 49.4268 19.3451 49.4478 19.3189 49.474C18.8105 49.1752 17.6154 50.5747 16.588 51.2719C14.0458 48.0745 8.21191 37.2925 5.44434 32.9681C6.05236 32.1452 7.21077 30.9606 8.07039 30.3683L8.3482 30.3473C11.9439 36.7526 16.0481 42.859 19.4028 49.3953V49.4006Z" fill="#E6BA5E"/>
<path d="M23.2395 50.0453C22.7049 50.3284 22.8622 49.1228 21.9029 49.8776C21.363 49.5526 20.0684 49.322 19.4027 49.3954C16.048 42.8591 11.9439 36.7526 8.34812 30.3473L8.07031 30.3683C8.30619 30.2058 8.50536 30.0119 8.77269 29.9018C8.93518 29.8704 9.18678 30.0486 9.34927 30.1377C10.1198 31.4061 18.0608 37.6122 18.1971 38.1993C12.5204 39.1742 21.4417 48.3156 23.2343 50.0453H23.2395Z" fill="#F1E496"/>
<path d="M33.6441 57.8553C33.99 58.5315 34.8444 59.5274 34.3936 60.3189C34.3884 60.3294 34.2416 60.2507 34.1106 60.4185C34.0581 60.3713 34.011 60.2822 33.9638 60.2507C31.1123 58.4424 23.4072 50.7844 21.9028 49.8828C22.8568 49.128 22.7048 50.3336 23.2394 50.0505C25.1317 51.8746 28.0775 55.2135 29.3826 51.1251C30.7979 53.3528 32.0716 55.8058 33.6493 57.8553H33.6441Z" fill="#BB9975"/>
<path d="M16.9497 51.8484C17.7517 51.1565 18.5379 50.4436 19.3451 49.7518C19.408 49.6993 19.3137 49.4844 19.3242 49.474C19.3504 49.4477 19.3818 49.4268 19.408 49.4006C20.0737 49.3219 21.3684 49.5578 21.9083 49.8828C23.4126 50.7896 31.1126 58.4424 33.9692 60.2507L30.4154 63.1441C25.7818 59.5693 21.3265 55.7429 16.9549 51.8536L16.9497 51.8484Z" fill="#3E2B15"/>
<path d="M16.9497 51.8485C16.6037 51.5549 16.6247 51.3138 16.5933 51.2719C17.6154 50.5747 18.8105 49.1752 19.3241 49.474C19.3137 49.4845 19.408 49.6994 19.3451 49.7518C18.5379 50.4437 17.7569 51.1566 16.9497 51.8485Z" fill="#8F6A2C"/>
<path d="M34.1107 60.4185C33.0886 61.7131 31.6105 62.6252 30.4468 63.7783C29.7444 63.2017 28.1143 62.1429 27.197 62.6147C25.1266 63.6787 26.72 65.246 26.7515 65.7492C26.7986 66.4463 25.8394 67.3164 25.158 67.1487C24.3194 66.9443 13.6946 57.3102 11.7972 56.1413L11.3569 55.6381C11.8181 55.072 10.4815 54.291 11.4879 54.2596C11.5665 54.2596 12.856 54.6108 13.0447 54.6789C12.8297 54.8204 12.9084 54.8886 13.0604 55.0353C13.7994 55.7534 15.8908 57.1005 16.8134 58.1331L16.9811 57.9863C16.2316 57.5827 16.3888 56.8908 15.9275 57.1267C15.3719 56.2042 14.3026 55.7796 13.6632 54.8781C13.0447 52.2468 15.4296 52.6294 15.2409 51.9375C12.987 48.1688 7.30508 39.604 5.94751 36.2494C5.88985 36.1078 5.55963 34.3519 4.90967 33.3717C5.05643 32.9943 5.42859 33.0048 5.44955 32.9734C8.21189 37.2977 14.0458 48.0797 16.5932 51.2771C16.6247 51.319 16.609 51.5654 16.9497 51.8537C21.3264 55.7482 25.7818 59.5693 30.4101 63.1441L33.9639 60.2507C34.0111 60.2822 34.0583 60.3713 34.1107 60.4185Z" fill="#18130C"/>
<path d="M25.9705 64.5122C27.4434 66.0008 24.4295 65.2198 23.7847 64.0509C22.9041 62.4522 25.7294 64.2658 25.9705 64.5122Z" fill="#141113"/>
<path d="M13.0445 54.679C13.1179 54.7052 13.3905 55.004 13.6631 54.8782C14.3078 55.7797 15.3718 56.199 15.9274 57.1268C16.3887 56.8909 16.2262 57.5881 16.981 57.9864L16.8133 58.1332C15.8907 57.1006 13.7993 55.7535 13.0603 55.0354C12.9083 54.8834 12.8296 54.8153 13.0445 54.679Z" fill="#141113"/>
<path d="M54.6422 5.7381C54.2858 5.70665 54.7051 6.40378 54.8205 6.61868C54.7733 6.56103 54.7051 6.44571 54.6318 6.48764C53.7145 6.96987 41.1556 18.1607 38.9069 19.9743C38.6343 19.6231 38.3723 19.251 38.1049 18.8945C37.7747 18.449 37.4917 17.6523 36.9256 17.5527C36.7998 17.2172 36.7002 16.8503 36.6006 16.5044C36.6006 15.8701 36.3752 15.346 36.7579 14.7327C37.8376 12.9977 49.2172 3.46323 52.1053 2.16855C53.1065 3.35315 54.029 5.00427 54.6422 5.7381Z" fill="#CF9D43"/>
<path d="M66.7973 15.8754C65.272 14.848 63.9301 13.2545 62.4205 12.0647C60.7799 11.1422 56.8539 7.65125 56.3979 7.39441C56.3193 7.34724 56.2511 7.45207 56.1935 7.49924C56.0572 7.33675 56.0886 7.11661 55.8737 6.9646L55.706 7.11137C57.4095 9.4072 58.982 11.7921 60.8323 13.9779C60.3763 14.2714 60.5702 14.4863 60.5597 14.5125C60.2976 15.1206 60.1456 15.7915 59.7316 16.2789C59.48 16.0798 59.459 15.8282 59.3856 15.5451C59.2231 14.9161 59.2598 14.6803 58.9348 14.0093C58.5208 11.6978 56.0153 8.82538 54.8306 6.61866C54.7153 6.40375 54.296 5.70138 54.6524 5.73807C55.0141 6.16788 55.423 6.7497 55.7375 6.71825C56.1725 6.59769 56.1253 4.76837 57.3466 5.08287C58.699 5.43405 65.3086 13.5323 66.8077 15.8754H66.7973Z" fill="#E6BA5E"/>
<path d="M68.9204 20.8392C66.8185 19.293 64.8267 17.5003 63.0131 15.6238C60.5338 13.0554 58.4791 10.2197 56.1885 7.49932C56.2461 7.45215 56.3143 7.34732 56.3929 7.39449C56.8542 7.65133 60.7801 11.1423 62.4155 12.0648C63.9303 13.2546 65.267 14.8481 66.7923 15.8754C67.7567 17.385 68.7055 19.0256 68.9204 20.8445V20.8392Z" fill="#9D7731"/>
<path d="M70.2987 21.5679L70.131 21.7146C69.7274 21.4421 69.3133 21.1328 68.9202 20.8445C68.7105 19.0257 67.7565 17.385 66.7921 15.8755C65.2982 13.5325 58.6886 5.43416 57.331 5.08298C56.1044 4.76848 56.1569 6.5978 55.7218 6.71836C55.4073 6.74457 54.9985 6.16799 54.6368 5.73818C54.0235 5.00435 53.101 3.35324 52.0998 2.16863C51.8587 1.88034 52.0003 1.79124 51.5757 1.73882C52.2099 1.60778 52.0684 1.45578 53.2635 1.96946C56.9431 3.54194 62.5464 8.84646 65.0309 12.0019C66.4619 13.8155 69.848 19.4031 70.2987 21.5679Z" fill="#F1E496"/>
<path d="M52.1053 2.16861C49.2172 3.46329 37.8376 12.9978 36.7579 14.7328C36.3752 15.346 36.6006 15.8702 36.6006 16.5044C35.9716 14.3449 35.8511 13.6111 37.5022 11.8551C39.4678 9.75847 49.0337 2.2682 51.5812 1.7388C52.011 1.79122 51.8642 1.88032 52.1053 2.16861Z" fill="#E6BA5E"/>
<path d="M53.0801 22.2545C50.6166 24.5241 48.2264 26.8776 45.6685 29.0476C45.4536 28.8222 45.2387 28.6388 44.9976 28.4501C47.4035 26.495 49.5316 24.2463 51.8221 22.1706C51.9794 22.0291 52.2415 21.9662 52.6503 21.5941L53.0801 22.2545Z" fill="#6C5B30"/>
<path d="M38.11 18.8946C38.7652 21.1013 44.4419 27.4908 44.6673 28.0727C44.7302 28.2299 44.5729 28.4081 44.4419 28.492C43.5246 27.5013 40.9719 24.7652 40.495 24.1572C40.4425 24.089 40.6417 23.9947 40.5893 23.9265C39.4414 22.4432 38.5136 21.1485 37.6802 19.424C37.523 19.099 37.0932 17.9825 36.9307 17.5527C37.4968 17.6523 37.7798 18.449 38.11 18.8946Z" fill="#6C5B30"/>
<path d="M59.7266 16.2791C59.0137 17.1125 54.4902 20.9546 53.0802 22.2545L52.6504 21.5941C54.8833 19.5708 57.0429 17.4584 59.3806 15.5452C59.454 15.8283 59.475 16.0799 59.7266 16.2791Z" fill="#9D7731"/>
<path d="M49.0283 34.5669C49.0283 34.5669 48.7925 34.3625 49.0074 34.2891C49.2904 34.1947 49.6416 34.939 50.1605 34.1685C51.5181 35.1959 54.1441 36.543 55.8582 36.6006C59.3281 36.7212 65.5866 29.8599 67.8353 27.1395C69.1666 25.5303 71.6878 22.3539 69.6698 23.3027C67.9191 26.3376 58.7673 35.8511 55.8896 36.1289C53.7196 36.3385 49.8932 33.1726 48.3417 31.7574C47.4087 30.903 46.5491 29.9647 45.6685 29.0475C48.2264 26.8774 50.6165 24.524 53.0801 22.2543C54.4901 20.9544 59.0136 17.1175 59.7265 16.2789C60.1406 15.7914 60.2926 15.1205 60.5547 14.5125C61.1574 15.8858 67.7304 22.16 68.8207 21.8245C68.8783 21.8036 69.0146 21.683 68.9937 21.5991C66.6716 20.0738 64.3391 17.8619 62.4469 15.8281L63.013 15.6289C64.8266 17.5054 66.8184 19.2981 68.9203 20.8443C69.3134 21.1326 69.7275 21.4419 70.1311 21.7144C70.2202 21.7721 70.2936 21.9818 70.3932 21.9294C70.367 21.8088 70.325 21.6882 70.2988 21.5677C69.848 19.4029 66.4619 13.8153 65.031 12.0017C62.5517 8.84628 56.9484 3.54177 53.2636 1.96928C52.0685 1.46084 52.21 1.60761 51.5758 1.73865C49.0283 2.26281 39.4624 9.75832 37.4968 11.855C35.8457 13.6109 35.9715 14.3447 36.5952 16.5043C36.6948 16.8502 36.7944 17.2171 36.9202 17.5526C37.0775 17.9824 37.5125 19.0936 37.6698 19.4239C37.1508 19.6702 36.092 18.6481 36.286 18.1868L36.0815 18.2917C35.3634 15.5818 34.4986 13.873 36.569 11.4776C38.4193 9.33375 46.2241 3.41596 48.8292 1.91686C51.2875 0.501626 51.9636 0.365347 53.8559 1.29836C60.8429 4.73161 70.2307 15.0366 71.258 23.0982C69.5021 26.8512 62.9605 33.3299 59.7422 35.7148C55.3078 39.0013 53.274 36.7893 49.0126 34.5721L49.0283 34.5669Z" fill="#18130C"/>
<path d="M55.8579 36.6009L55.8894 36.1291C58.7723 35.8513 67.9241 26.3378 69.6696 23.3029C71.6824 22.3489 69.1664 25.5306 67.835 27.1397C65.5811 29.8601 59.3279 36.7214 55.8579 36.6009Z" fill="#45382A"/>
<path d="M60.5546 14.5126C60.5651 14.4863 60.3712 14.2714 60.8272 13.9779C61.3514 14.6017 61.8912 15.2307 62.4469 15.823C64.3338 17.8619 66.6664 20.0687 68.9936 21.594C69.0146 21.6778 68.8783 21.8036 68.8207 21.8194C67.7304 22.1548 61.1627 15.8859 60.5546 14.5073V14.5126Z" fill="#5F4C36"/>
<path d="M55.8581 36.6008C54.1493 36.5431 51.518 35.196 50.1605 34.1687C48.892 33.2042 48.6299 32.6381 47.8594 31.8781C47.9957 31.6684 47.3562 31.2753 47.4715 31.181C47.6078 31.0656 48.1162 32.1402 48.3416 31.7523C49.8931 33.1728 53.7143 36.3335 55.8896 36.1238L55.8581 36.5955V36.6008Z" fill="#898067"/>
<path d="M56.1882 7.49942C58.4787 10.2198 60.5335 13.0555 63.0127 15.6239L62.4466 15.8231C61.891 15.2256 61.3511 14.5966 60.827 13.9781C58.9767 11.7923 57.4042 9.40738 55.7007 7.11155L55.8684 6.96478C56.0833 7.11679 56.0519 7.33693 56.1882 7.49942Z" fill="#301A0E"/>
<path d="M48.3418 31.7523C48.1112 32.1402 47.6028 31.0656 47.4717 31.1809C47.3564 31.2753 47.9959 31.6684 47.8596 31.8781C46.8008 30.8402 45.763 29.75 44.7461 28.665L44.9977 28.4448C45.2441 28.6388 45.4537 28.817 45.6686 29.0424C46.5492 29.9544 47.4036 30.8927 48.3418 31.7523Z" fill="#AAA183"/>
<path d="M70.1309 21.7146L70.2988 21.5677C70.325 21.6884 70.367 21.8091 70.3932 21.9298C70.2935 21.9823 70.2201 21.7723 70.1309 21.7146Z" fill="#898067"/>
<path d="M44.9974 28.4501L44.7458 28.6703C44.7458 28.6703 44.8453 28.9271 44.4417 28.4921C44.578 28.4082 44.73 28.23 44.6671 28.0727C44.4365 27.4909 38.7651 21.1014 38.1099 18.8947C38.3719 19.2563 38.634 19.6232 38.9118 19.9744C40.6992 22.265 43.189 25.085 46.5017 23.7169C47.8435 23.9161 50.3753 22.6372 51.8272 22.1654C49.5366 24.2411 47.4085 26.4898 45.0026 28.4449L44.9974 28.4501Z" fill="#3E2B15"/>
<path d="M54.8203 6.61866C56.0049 8.82538 58.5104 11.6978 58.9245 14.0093C58.2221 12.5889 58.112 13.3017 58.3794 14.4863C55.659 16.714 49.2327 22.5846 46.4966 23.7168C43.1839 25.0849 40.6941 22.2596 38.9067 19.9743C41.1554 18.1607 53.7143 6.96985 54.6316 6.48762C54.705 6.44569 54.7731 6.561 54.8203 6.61866Z" fill="#8F6A2C"/>
<path d="M58.9243 14.0095C59.2545 14.6752 59.2126 14.9163 59.3751 15.5453C57.0426 17.4585 54.883 19.5708 52.6449 21.5941C52.236 21.9663 51.9739 22.0292 51.8167 22.1707C50.3648 22.6424 47.8331 23.9161 46.4912 23.7222C49.2273 22.59 55.6536 16.7194 58.374 14.4917C58.1119 13.3019 58.222 12.589 58.9191 14.0147L58.9243 14.0095Z" fill="#613F1A"/>
<path d="M44.4417 28.492C44.8453 28.9271 44.73 28.6493 44.7458 28.6702C45.7574 29.75 46.8005 30.8403 47.8593 31.8833C48.6298 32.6381 48.8919 33.2095 50.1603 34.1739C49.6362 34.9445 49.285 34.2001 49.0072 34.2945C48.7923 34.3679 49.0334 34.5618 49.0281 34.5723C48.7923 34.9969 48.1056 36.3073 47.8331 36.5117C47.6129 36.6742 43.6974 37.6911 42.9059 38.0056C38.1623 39.9187 34.2206 43.3101 30.2422 46.4341C30.0849 47.3461 29.0943 50.0141 29.3249 50.727C30.7559 53.0962 32.3808 55.392 33.644 57.8556C32.0663 55.8061 30.7926 53.353 29.3773 51.1253C28.0774 55.2138 25.1316 51.8749 23.2342 50.0508C21.4415 48.3263 12.5203 39.1797 18.197 38.2047C18.0607 37.6177 10.1196 31.4116 9.34912 30.1431C10.3555 30.7092 17.0753 36.7004 18.6687 38.2362C20.0176 38.1663 21.3681 38.0964 22.7205 38.0265C26.5311 34.6771 30.2841 31.1286 32.8054 26.6627C34.273 24.0681 34.3674 21.442 36.8991 20.9965C36.6632 20.0845 36.3277 19.2039 36.0866 18.2918L36.291 18.187C36.0971 18.6483 37.1507 19.6756 37.6748 19.424C38.5082 21.1485 39.436 22.4432 40.5839 23.9266C40.6363 23.9947 40.4371 24.0891 40.4896 24.1572C40.9665 24.7652 43.5192 27.5014 44.4365 28.492H44.4417Z" fill="#18130C"/>
<path d="M44.9185 32.0826C39.5616 34.2736 37.8895 35.6993 33.6857 39.2584C33.0253 39.8192 29.2723 43.3154 28.9421 43.4202C28.6171 43.4779 28.5594 43.1529 28.376 43.0271C29.8698 41.2869 31.4056 39.5729 32.8366 37.7802C33.7015 36.6952 35.5675 34.3679 36.1755 33.372C36.9041 32.1717 36.946 31.5165 37.1609 31.0238C37.2186 30.8875 37.4387 30.3109 37.4859 30.2952C38.1988 30.0593 38.7229 33.566 38.9221 27.1031C39.1947 27.3337 39.7031 27.6587 39.7503 27.7111C40.3426 28.3191 41.8941 30.2638 42.7066 29.7239C43.4194 30.5101 44.1847 31.3226 44.9238 32.0878L44.9185 32.0826Z" fill="#3E2B15"/>
<path d="M35.9397 27.7738C35.9135 28.6387 35.7458 30.7511 35.4994 31.4273C34.7551 33.4977 29.0994 39.9816 27.1024 41.7585C27.0814 41.7375 27.1129 41.9315 26.6516 41.4125C26.3581 41.0823 25.9073 40.6368 25.6924 40.3223C27.8677 38.8703 33.0673 33.0679 34.0999 31.0236C34.3935 30.4418 34.4564 29.7971 34.6555 29.1996C34.9071 28.4395 35.0644 27.648 35.5152 26.9614C35.5361 27.0033 35.7091 26.8985 35.9345 27.7791L35.9397 27.7738Z" fill="#CF9D43"/>
<path d="M19.811 44.4422C20.5029 44.6362 21.9863 45.8418 22.0282 44.4318C22.0545 43.6141 20.6602 41.334 20.482 40.2961L20.4086 40.2122C21.2315 41.2711 23.302 45.999 24.235 46.4393C25.3986 46.9844 23.6112 44.1749 23.564 43.981C24.4499 43.9443 24.6805 46.2925 26.1167 44.2693C26.1639 44.2011 26.0643 44.1225 26.0119 44.0648C26.2792 44.3636 27.8674 45.6478 27.9093 45.8889C25.451 48.84 27.2489 52.3833 22.9298 48.1743C21.7871 47.0578 20.7965 45.7055 19.811 44.4475V44.4422Z" fill="#3E2B15"/>
<path d="M37.879 23.5492C37.8161 23.6173 37.6169 23.5282 37.6746 23.654C37.9734 24.3197 38.4818 24.9958 38.5919 26.5631L38.9116 27.0977C38.7124 33.5606 38.1883 30.0488 37.4754 30.2899C37.4282 30.3056 37.2081 30.8874 37.1504 31.0185H35.9658C36.2069 30.1064 36.1755 28.6755 35.9396 27.7739C35.709 26.8933 35.5412 26.9981 35.5203 26.9562C35.4679 26.8461 35.536 26.7623 35.3945 26.474C35.3001 26.28 35.3211 25.9236 35.0171 26.2119C35.5727 25.0849 35.9239 22.9044 37.2395 22.4799C37.4806 22.8101 37.6484 23.198 37.879 23.5492Z" fill="#E6BA5E"/>
<path d="M37.2393 22.4798C35.9237 22.9044 35.5673 25.0849 35.0169 26.2119C32.4118 31.5164 29.2616 35.2117 24.6071 38.9018C24.5704 38.8651 23.9309 38.6502 23.9885 38.1103C28.6012 34.4517 31.4788 31.0394 34.2097 25.8817C34.65 25.0535 35.6144 21.6517 36.841 21.94C37.1712 22.0186 37.2027 22.4274 37.2393 22.4798Z" fill="#E6C870"/>
<path d="M33.6807 39.2583C37.8844 35.6992 39.5565 34.2735 44.9135 32.0825C45.076 32.2502 46.2972 33.0784 46.3077 33.1623C43.2361 35.023 39.6771 36.2181 36.4954 37.9793C35.5152 38.5244 34.0895 39.9868 33.6807 39.2583Z" fill="#18130C"/>
<path d="M35.3947 26.474C33.9113 31.4902 29.0838 36.4173 25.0739 39.6042C25.1054 39.3998 24.8381 39.1273 24.6808 38.9857C24.6546 38.9595 24.6336 38.9281 24.6074 38.9019C29.262 35.2118 32.4122 31.5164 35.0173 26.2119C35.3265 25.9236 35.3003 26.2801 35.3947 26.474Z" fill="#9D7731"/>
<path d="M24.1039 41.7165C23.8523 42.3455 23.4225 43.3833 23.5588 43.9756C23.6007 44.1696 25.3933 46.9791 24.2297 46.434C23.2967 45.9937 21.2263 41.2657 20.4033 40.2069L20.4557 40.013L22.8931 39.6566C23.3386 40.5686 23.5011 40.8621 24.1039 41.7165Z" fill="#E6BA5E"/>
<path d="M35.5202 26.9562C35.0694 27.6428 34.9121 28.4343 34.6606 29.1944C32.4014 33.4191 29.246 36.8681 25.3829 39.7038C25.299 40.0131 25.5663 40.1179 25.6974 40.3171C25.9123 40.6316 26.3631 41.0771 26.6566 41.4073C26.5989 41.4597 26.4889 41.5122 26.5256 41.596C26.6933 42.0101 29.225 44.5942 29.9431 44.9874C29.4032 46.13 24.2874 39.8086 24.2979 39.3945C24.2979 39.2373 24.5757 39.1063 24.6805 38.9857C24.8378 39.1272 25.1103 39.3998 25.0736 39.6042C29.0835 36.4173 33.911 31.4902 35.3944 26.474C35.5411 26.7675 35.4678 26.8461 35.5202 26.9562Z" fill="#4D3015"/>
<path d="M32.8315 37.7801C31.4057 39.5727 29.8647 41.2867 28.3709 43.0269C27.8624 42.681 27.6475 42.2931 27.2544 41.9262C28.916 40.3223 30.5828 38.6974 32.0924 36.9414C32.4436 37.4289 32.7843 37.1197 32.8262 37.7801H32.8315Z" fill="#8F6A2C"/>
<path d="M19.0933 40.9094C20.0683 42.2355 21.1795 45.3176 22.0286 44.4265C21.9867 45.8365 20.5033 44.6362 19.8114 44.437C19.0828 43.504 17.8353 42.2041 17.4946 41.119C18.6373 39.8034 18.5796 40.2175 19.0933 40.9094Z" fill="#8F6A2C"/>
<path d="M22.8932 39.6567L20.4559 40.0131L20.4035 40.207L20.4769 40.2909L19.0931 40.9094C18.5846 40.2175 18.6371 39.8087 17.4944 41.1191C16.7186 38.645 20.4978 39.1168 22.6679 38.8861C22.9509 39.3841 22.8775 39.6147 22.8932 39.6514V39.6567Z" fill="#E6BA5E"/>
<path d="M35.9658 31.0184C35.4259 33.0783 33.4655 35.3479 32.0922 36.9361C30.5826 38.6868 28.9158 40.3117 27.2542 41.9209C27.1494 41.8213 27.1651 41.8108 27.1074 41.7532C29.1045 39.9763 34.7602 33.4924 35.5045 31.422C35.7456 30.7458 35.9133 28.6334 35.9448 27.7686C36.1807 28.6701 36.2121 30.1011 35.971 31.0131L35.9658 31.0184Z" fill="#301A0E"/>
<path d="M26.0066 44.0544C26.0591 44.1121 26.1639 44.1907 26.1115 44.2588C24.6753 46.2821 24.4446 43.9391 23.5588 43.9705C23.4225 43.3782 23.8523 42.3404 24.1039 41.7114C24.6648 42.5081 25.3619 43.3206 26.0066 44.0544Z" fill="#9D7731"/>
<path d="M41.0028 27.7896L39.7396 27.7058C39.6872 27.6533 39.184 27.3284 38.9114 27.0977L38.5917 26.5631C38.4816 24.9958 37.9732 24.3197 37.6744 23.654C37.6168 23.5282 37.8159 23.6173 37.8788 23.5492C38.9272 25.1426 39.7658 26.322 41.0028 27.7896Z" fill="#E6C870"/>
<path d="M42.696 29.7237C41.8888 30.2636 40.3373 28.319 39.7397 27.711L41.003 27.7948C41.5533 28.4448 42.1247 29.0948 42.696 29.7237Z" fill="#BDAB5E"/>
<path d="M29.1989 46.6804C29.5396 46.9477 27.9252 51.6966 27.8204 49.5947C27.8099 49.4323 28.8949 46.4393 29.1989 46.6804Z" fill="#7E6955"/>
<path d="M46.2552 35.8092C46.6588 35.6991 47.0572 35.5838 47.4608 35.4947C47.4398 35.5261 47.5342 35.8249 47.0624 36.1394C42.2087 37.4026 38.8278 39.1953 34.797 42.1411C33.8902 42.8067 31.8146 44.7199 31.6154 44.7828C31.3585 44.8615 30.913 44.3006 30.9445 44.1853C30.9864 44.0018 33.5024 42.052 33.8745 41.7689C38.2618 38.3985 41.0346 37.2611 46.2552 35.8144V35.8092Z" fill="#45382A"/>
<path d="M47.4607 35.4946C47.0519 35.5838 46.6535 35.6991 46.2551 35.8091C46.2132 34.2367 46.5749 34.6665 47.8853 34.4516C47.9691 34.5354 47.5498 35.3479 47.4607 35.4894V35.4946Z" fill="#80796E"/>
<path d="M32.8315 37.7802C32.7895 37.1145 32.4436 37.429 32.0977 36.9416C33.4657 35.3534 35.4261 33.0837 35.9712 31.0238H37.1558C36.9409 31.5165 36.899 32.1717 36.1704 33.372C35.5676 34.3679 33.6963 36.7005 32.8315 37.7802Z" fill="#9D7731"/>
<path d="M25.6974 40.317C25.5611 40.1178 25.299 40.0078 25.3829 39.7037C29.246 36.868 32.4014 33.419 34.6606 29.1943C34.4614 29.7918 34.3985 30.4366 34.105 31.0184C33.0724 33.0626 27.8727 38.8651 25.6974 40.317Z" fill="#9D7731"/>
<path d="M22.0232 44.4265C21.174 45.3176 20.0681 42.2355 19.0879 40.9094L20.4717 40.2909C20.6499 41.3339 22.0442 43.6141 22.018 44.4265H22.0232Z" fill="#E6BA5E"/>
</svg>
